<svg width="1000" height="1000" viewBox="0 0 1000 1000" fill="none" xmlns="http://www.w3.org/2000/svg">
<rect width="1000" height="1000" rx="500" fill="#1A1A1A"/>
<path d="M782.855 750.247C463.847 902.068 265.866 775.044 139.133 697.892C131.291 693.03 117.962 699.029 129.526 712.312C171.748 763.507 310.115 886.899 490.726 886.899C671.461 886.899 778.981 788.282 792.431 771.079C805.791 754.021 796.354 744.612 782.852 750.247H782.855ZM872.448 700.769C863.881 689.613 820.357 687.534 792.965 690.899C765.531 694.166 724.352 710.933 727.932 721C729.769 724.771 733.519 723.08 752.365 721.385C771.263 719.5 824.203 712.819 835.235 727.239C846.317 741.759 818.35 810.93 813.242 822.085C808.307 833.241 815.127 836.117 824.397 828.688C833.54 821.261 850.092 802.026 861.199 774.808C872.23 747.44 878.956 709.263 872.445 700.769H872.448Z" fill="#FF9900"/>
<path fill-rule="evenodd" clip-rule="evenodd" d="M568.357 440.457C568.357 480.292 569.363 513.513 549.229 548.89C532.978 577.655 507.235 595.343 478.473 595.343C439.21 595.343 416.345 565.429 416.345 521.28C416.345 434.127 494.433 418.31 568.357 418.31V440.457ZM671.47 689.686C664.71 695.724 654.931 696.158 647.31 692.129C613.37 663.943 607.329 650.857 588.634 623.962C532.547 681.201 492.854 698.313 420.085 698.313C334.085 698.313 267.067 645.246 267.067 538.968C267.067 455.99 312.083 399.469 376.076 371.859C431.59 347.408 509.105 343.095 568.357 336.338V323.106C568.357 298.8 570.224 270.038 555.989 249.043C543.475 230.202 519.603 222.436 498.605 222.436C459.633 222.436 424.83 242.425 416.345 283.843C414.617 293.049 407.86 302.11 398.656 302.541L299.424 291.9C291.084 290.027 281.881 283.27 284.182 270.468C307.048 150.243 415.623 114 512.84 114C562.6 114 627.603 127.232 666.865 164.912C716.625 211.362 711.878 273.345 711.878 340.794V500.139C711.878 548.029 731.725 569.024 750.419 594.912C757.034 604.116 758.474 615.192 750.131 622.092C729.278 639.492 692.174 671.852 671.755 689.974L671.467 689.686" fill="black"/>
<path d="M782.855 750.247C463.847 902.068 265.866 775.044 139.133 697.892C131.291 693.03 117.962 699.029 129.526 712.312C171.748 763.507 310.115 886.899 490.726 886.899C671.461 886.899 778.981 788.282 792.431 771.079C805.791 754.021 796.354 744.612 782.852 750.247H782.855ZM872.448 700.769C863.881 689.613 820.357 687.534 792.965 690.899C765.531 694.166 724.352 710.933 727.932 721C729.769 724.771 733.519 723.08 752.365 721.385C771.263 719.5 824.203 712.819 835.235 727.239C846.317 741.759 818.35 810.93 813.242 822.085C808.307 833.241 815.127 836.117 824.397 828.688C833.54 821.261 850.092 802.026 861.199 774.808C872.23 747.44 878.956 709.263 872.445 700.769H872.448Z" fill="#FF9900"/>
<path fill-rule="evenodd" clip-rule="evenodd" d="M568.357 440.457C568.357 480.292 569.363 513.513 549.229 548.89C532.978 577.655 507.235 595.343 478.473 595.343C439.21 595.343 416.345 565.429 416.345 521.28C416.345 434.127 494.433 418.31 568.357 418.31V440.457ZM671.47 689.686C664.71 695.724 654.931 696.158 647.31 692.129C613.37 663.943 607.329 650.857 588.634 623.962C532.547 681.201 492.854 698.313 420.085 698.313C334.085 698.313 267.067 645.246 267.067 538.968C267.067 455.99 312.083 399.469 376.076 371.859C431.59 347.408 509.105 343.095 568.357 336.338V323.106C568.357 298.8 570.224 270.038 555.989 249.043C543.475 230.202 519.603 222.436 498.605 222.436C459.633 222.436 424.83 242.425 416.345 283.843C414.617 293.049 407.86 302.11 398.656 302.541L299.424 291.9C291.084 290.027 281.881 283.27 284.182 270.468C307.048 150.243 415.623 114 512.84 114C562.6 114 627.603 127.232 666.865 164.912C716.625 211.362 711.878 273.345 711.878 340.794V500.139C711.878 548.029 731.725 569.024 750.419 594.912C757.034 604.116 758.474 615.192 750.131 622.092C729.278 639.492 692.174 671.852 671.755 689.974L671.467 689.686" fill="white"/>
</svg>
