<svg width="123" height="87" viewBox="0 0 123 87" fill="none" xmlns="http://www.w3.org/2000/svg">
<g clip-path="url(#clip0_1387_2)">
<path d="M57.055 28.881C53.855 28.881 51.259 31.477 51.259 34.677C51.259 37.877 53.855 40.473 57.055 40.473C60.256 40.473 62.851 37.877 62.851 34.677C62.851 31.477 60.255 28.881 57.055 28.881ZM21.489 28.881C18.288 28.881 15.693 31.477 15.693 34.677C15.693 37.877 18.289 40.473 21.489 40.473C24.689 40.473 27.285 37.877 27.285 34.677C27.285 31.477 24.689 28.881 21.489 28.881ZM39.271 28.881C36.07 28.881 33.475 31.477 33.475 34.677C33.475 37.877 36.07 40.473 39.271 40.473C42.472 40.473 45.067 37.877 45.067 34.677C45.067 31.477 42.472 28.881 39.271 28.881ZM83.299 8.182H108.767C116.53 8.182 122.88 14.533 122.88 22.295V47.202C122.88 54.963 116.528 61.315 108.767 61.315H97.803C99.371 67.521 101.271 73.096 107.075 78.244C95.977 75.406 87.41 69.668 81.123 61.315H79.227C78.491 61.315 77.718 61.256 76.925 61.147C81.118 57.751 84.03 53.488 84.03 48.872V38.493C84.956 39.136 86.082 39.514 87.294 39.514C90.458 39.514 93.024 36.948 93.024 33.785C93.024 30.622 90.458 28.056 87.294 28.056C86.082 28.056 84.956 28.433 84.03 29.076V13.535C84.031 11.683 83.774 9.888 83.299 8.182ZM105.571 28.056C102.407 28.056 99.842 30.622 99.842 33.785C99.842 36.948 102.407 39.514 105.571 39.514C108.735 39.514 111.3 36.948 111.3 33.785C111.3 30.622 108.735 28.056 105.571 28.056ZM19.542 0H59H59.004V0.014C64.39 0.016 69.274 2.207 72.804 5.738L72.797 5.745C76.333 9.284 78.527 14.167 78.528 19.541H78.542V19.543H78.528V47.727H78.542V47.73H78.528C78.526 53.476 74.534 58.482 69.216 61.978C64.265 65.234 58.012 67.255 52.969 67.255V67.27H52.967V67.255H52.563C49.001 71.691 44.867 75.48 40.134 78.588C34.899 82.026 28.977 84.616 22.335 86.315L22.332 86.303C21.082 86.618 19.704 86.243 18.791 85.212C17.489 83.74 17.626 81.491 19.098 80.189C21.994 77.622 23.914 74.95 25.305 72.148C26.079 70.589 26.703 68.96 27.244 67.27H19.542H19.538V67.255C14.153 67.254 9.268 65.062 5.739 61.532C2.207 58.001 0.015 53.115 0.014 47.728H0V47.726H0.014V19.542H0V19.537H0.014C0.016 14.263 2.126 9.466 5.541 5.952C5.603 5.879 5.668 5.807 5.737 5.738C9.268 2.207 14.154 0.014 19.54 0.013V0H19.542Z" fill="#C4C4C4"/>
</g>
<defs>
<clipPath id="clip0_1387_2">
<rect width="122.88" height="86.411" fill="white"/>
</clipPath>
</defs>
</svg>
