<svg width="122" height="123" viewBox="0 0 122 123" fill="none" xmlns="http://www.w3.org/2000/svg">
<g clip-path="url(#clip0_1382_2)">
<path fill-rule="evenodd" clip-rule="evenodd" d="M90.9139 5.29569C97.8409 -1.73831 109.102 -1.76931 116.068 5.22769C123.029 12.2227 123.059 23.5967 116.136 30.6247L85.7429 61.4517L116.168 92.3067C123.034 99.2847 122.941 110.587 115.96 117.554C108.977 124.518 97.7499 124.5 90.8859 117.523L60.6689 86.8807L30.3949 117.58C23.4679 124.614 12.2069 124.645 5.24094 117.648C-1.72006 110.653 -1.75106 99.2787 5.17294 92.2507L35.5659 61.4237L5.14194 30.5677C-1.72506 23.5897 -1.63106 12.2877 5.34994 5.32069C12.3329 -1.64231 23.5599 -1.62531 30.4239 5.35169L60.6409 35.9947L90.9139 5.29569Z" fill="white"/>
</g>
<defs>
<clipPath id="clip0_1382_2">
<rect width="121.31" height="122.876" fill="white"/>
</clipPath>
</defs>
</svg>
