<svg width="123" height="101" viewBox="0 0 123 101" fill="none" xmlns="http://www.w3.org/2000/svg">
<g clip-path="url(#clip0_1382_5)">
<path d="M23.417 50.189V23.298H50.945V32.882H33.001V50.189H23.417V50.189ZM14.279 0H108.602C112.516 0 116.082 1.609 118.678 4.201L118.688 4.191C121.274 6.777 122.879 10.349 122.879 14.279V86.149C122.879 90.055 121.274 93.622 118.688 96.215L118.659 96.246C116.063 98.826 112.505 100.426 108.602 100.426H14.279C10.348 100.426 6.777 98.821 4.191 96.235C4.083 96.128 3.982 96.016 3.886 95.901C1.479 93.336 0 89.9 0 86.148V14.278C0 10.346 1.605 6.775 4.19 4.19C6.776 1.605 10.346 0 14.279 0ZM108.602 9.743H14.279C13.037 9.743 11.904 10.255 11.079 11.079C10.255 11.904 9.743 13.037 9.743 14.279V86.149C9.743 87.313 10.179 88.374 10.892 89.169L11.079 89.347C11.904 90.173 13.037 90.685 14.278 90.685H108.601C109.855 90.685 110.986 90.179 111.798 89.367L111.818 89.347C112.631 88.534 113.136 87.402 113.136 86.15V14.28C113.136 13.039 112.624 11.905 111.798 11.081L111.808 11.072L111.798 11.062C110.988 10.248 109.855 9.743 108.602 9.743ZM99.463 50.237V77.129H71.934V67.545H89.879V50.237H99.463Z" fill="white"/>
</g>
<defs>
<clipPath id="clip0_1382_5">
<rect width="122.879" height="100.426" fill="white"/>
</clipPath>
</defs>
</svg>
