<svg width="119" height="123" viewBox="0 0 119 123" fill="none" xmlns="http://www.w3.org/2000/svg">
<g clip-path="url(#clip0_1392_16)">
<path d="M16.08 59.2609C16.08 61.3933 15.2329 63.4383 13.7251 64.9461C12.2173 66.4539 10.1723 67.3009 8.04 67.3009C5.90766 67.3009 3.86265 66.4539 2.35486 64.9461C0.847069 63.4383 0 61.3933 0 59.2609C0.00445454 48.0091 3.22625 36.9932 9.28547 27.5122C15.3447 18.0312 23.9886 10.4805 34.198 5.75056C44.4074 1.0206 55.7564 -0.691385 66.9067 0.816489C78.057 2.32436 88.5436 6.98921 97.13 14.2609V8.00094C97.13 5.8686 97.9771 3.82359 99.4849 2.3158C100.993 0.808007 103.038 -0.0390625 105.17 -0.0390625C107.302 -0.0390625 109.347 0.808007 110.855 2.3158C112.363 3.82359 113.21 5.8686 113.21 8.00094V33.3509C113.21 35.4727 112.367 37.5075 110.867 39.0078C109.367 40.5081 107.332 41.3509 105.21 41.3509L80.82 43.6209C79.7727 43.7155 78.717 43.6028 77.7133 43.2894C76.7095 42.976 75.7773 42.4679 74.9699 41.7942C74.1625 41.1205 73.4957 40.2944 73.0076 39.363C72.5195 38.4316 72.2196 37.4132 72.125 36.3659C72.0304 35.3186 72.1431 34.263 72.4565 33.2592C72.77 32.2555 73.278 31.3233 73.9517 30.5159C74.6254 29.7085 75.4515 29.0417 76.3829 28.5535C77.3143 28.0654 78.3327 27.7655 79.38 27.6709L87.38 26.9409C81.1652 21.5083 73.518 17.9792 65.3517 16.7753C57.1855 15.5713 48.8452 16.7433 41.327 20.1513C33.8088 23.5592 27.4304 29.0592 22.9535 35.9942C18.4766 42.9293 16.0905 51.0064 16.08 59.2609V59.2609ZM38.85 78.8609C40.9717 78.67 43.0824 79.3297 44.7177 80.695C46.3531 82.0602 47.379 84.0192 47.57 86.1409C47.761 88.2627 47.1012 90.3734 45.736 92.0087C44.3707 93.644 42.4117 94.67 40.29 94.8609L30.21 95.7709C36.3767 101.359 44.034 105.035 52.251 106.352C60.468 107.67 68.8907 106.572 76.4952 103.192C84.0998 99.8114 90.5586 94.2949 95.0864 87.3125C99.6142 80.3302 102.016 72.1828 102 63.8609C102 61.7286 102.847 59.6836 104.355 58.1758C105.863 56.668 107.908 55.8209 110.04 55.8209C112.172 55.8209 114.217 56.668 115.725 58.1758C117.233 59.6836 118.08 61.7286 118.08 63.8609C118.081 74.9668 114.948 85.8475 109.041 95.2519C103.133 104.656 94.6912 112.202 84.6858 117.022C74.6804 121.842 63.5177 123.74 52.4815 122.498C41.4453 121.256 30.9838 116.924 22.3 110.001V114.181C22.3 116.313 21.4529 118.358 19.9451 119.866C18.4373 121.374 16.3923 122.221 14.26 122.221C12.1277 122.221 10.0827 121.374 8.57486 119.866C7.06707 118.358 6.22 116.313 6.22 114.181V89.1409C6.21209 87.1367 6.9568 85.2025 8.30678 83.721C9.65675 82.2396 11.5136 81.3188 13.51 81.1409L38.82 78.8409L38.85 78.8609Z" fill="white"/>
</g>
<defs>
<clipPath id="clip0_1392_16">
<rect width="118.04" height="122.88" fill="white"/>
</clipPath>
</defs>
</svg>
