<svg width="123" height="115" viewBox="0 0 123 115" fill="none" xmlns="http://www.w3.org/2000/svg">
<g clip-path="url(#clip0_1391_2)">
<path fill-rule="evenodd" clip-rule="evenodd" d="M122.88 35.289L87.9449 70.578V52.998C65.8539 48.421 48.4029 53.466 35.1489 70.269C37.4499 35.711 61.0559 19.034 87.9439 17.93L87.9449 0L122.88 35.289Z" fill="white"/>
<path d="M6.908 23.7461H42.534C37.947 27.7061 33.824 32.3091 30.27 37.5611H13.815V100.504H94.418V85.8311L108.232 72.2521V107.411C108.232 111.225 105.139 114.318 101.325 114.318H6.908C3.093 114.318 0 111.225 0 107.411V30.6531C0 26.8381 3.093 23.7461 6.908 23.7461Z" fill="white"/>
</g>
<defs>
<clipPath id="clip0_1391_2">
<rect width="122.88" height="114.318" fill="white"/>
</clipPath>
</defs>
</svg>
