<svg width="24" height="24" viewBox="0 0 24 24" fill="none" xmlns="http://www.w3.org/2000/svg">
<path d="M12 2C9.34784 2 6.8043 3.05357 4.92893 4.92893C3.05357 6.8043 2 9.34784 2 12C2 14.6522 3.05357 17.1957 4.92893 19.0711C6.8043 20.9464 9.34784 22 12 22C12.55 22 17 21.7 17 20.06C17 19.7948 16.8946 19.5404 16.7071 19.3529C16.5196 19.1654 16.2652 19.06 16 19.06C15.36 19.06 14.48 20 12 20C10.4177 20 8.87103 19.5308 7.55544 18.6518C6.23984 17.7727 5.21447 16.5233 4.60896 15.0615C4.00346 13.5997 3.84504 11.9911 4.15372 10.4393C4.4624 8.88743 5.22433 7.46197 6.34315 6.34315C7.46197 5.22433 8.88743 4.4624 10.4393 4.15372C11.9911 3.84504 13.5997 4.00346 15.0615 4.60896C16.5233 5.21447 17.7727 6.23984 18.6518 7.55544C19.5308 8.87103 20 10.4177 20 12C20 13.23 19.86 15 18.41 15C18.036 15 17.6774 14.8514 17.413 14.587C17.1486 14.3226 17 13.964 17 13.59V12C17.0001 10.8405 16.5972 9.71698 15.8603 8.82176C15.1234 7.92654 14.0982 7.31528 12.9603 7.09258C11.8224 6.86989 10.6424 7.04961 9.62239 7.60098C8.60236 8.15236 7.80567 9.04111 7.36868 10.1151C6.93169 11.1891 6.88156 12.3816 7.22687 13.4885C7.57219 14.5954 8.29148 15.5479 9.26163 16.183C10.2318 16.818 11.3925 17.0961 12.5451 16.9697C13.6977 16.8433 14.7705 16.3202 15.58 15.49C15.8929 15.9533 16.3144 16.333 16.8076 16.5962C17.3009 16.8594 17.8509 16.998 18.41 17C20.41 17 22 15.62 22 12C22 10.6868 21.7413 9.38642 21.2388 8.17317C20.7362 6.95991 19.9997 5.85752 19.0711 4.92893C18.1425 4.00035 17.0401 3.26375 15.8268 2.7612C14.6136 2.25866 13.3132 2 12 2V2ZM12 15C11.4067 15 10.8266 14.8241 10.3333 14.4944C9.83994 14.1648 9.45542 13.6962 9.22836 13.1481C9.0013 12.5999 8.94189 11.9967 9.05764 11.4147C9.1734 10.8328 9.45912 10.2982 9.87868 9.87868C10.2982 9.45912 10.8328 9.1734 11.4147 9.05764C11.9967 8.94189 12.5999 9.0013 13.1481 9.22836C13.6962 9.45542 14.1648 9.83994 14.4944 10.3333C14.8241 10.8266 15 11.4067 15 12C15 12.7956 14.6839 13.5587 14.1213 14.1213C13.5587 14.6839 12.7956 15 12 15Z" fill="#333333"/>
</svg>
