<svg width="24" height="24" viewBox="0 0 24 24" fill="none" xmlns="http://www.w3.org/2000/svg">
<path d="M15 6H5C4.20435 6 3.44129 6.31607 2.87868 6.87868C2.31607 7.44129 2 8.20435 2 9V19C2 19.7956 2.31607 20.5587 2.87868 21.1213C3.44129 21.6839 4.20435 22 5 22H15C15.7956 22 16.5587 21.6839 17.1213 21.1213C17.6839 20.5587 18 19.7956 18 19V9C18 8.20435 17.6839 7.44129 17.1213 6.87868C16.5587 6.31607 15.7956 6 15 6V6ZM16 19C16 19.2652 15.8946 19.5196 15.7071 19.7071C15.5196 19.8946 15.2652 20 15 20H5C4.73478 20 4.48043 19.8946 4.29289 19.7071C4.10536 19.5196 4 19.2652 4 19V9C4 8.73478 4.10536 8.48043 4.29289 8.29289C4.48043 8.10536 4.73478 8 5 8H15C15.2652 8 15.5196 8.10536 15.7071 8.29289C15.8946 8.48043 16 8.73478 16 9V19ZM19 2H8C7.73478 2 7.48043 2.10536 7.29289 2.29289C7.10536 2.48043 7 2.73478 7 3C7 3.26522 7.10536 3.51957 7.29289 3.70711C7.48043 3.89464 7.73478 4 8 4H19C19.2652 4 19.5196 4.10536 19.7071 4.29289C19.8946 4.48043 20 4.73478 20 5V16C20 16.2652 20.1054 16.5196 20.2929 16.7071C20.4804 16.8946 20.7348 17 21 17C21.2652 17 21.5196 16.8946 21.7071 16.7071C21.8946 16.5196 22 16.2652 22 16V5C22 4.20435 21.6839 3.44129 21.1213 2.87868C20.5587 2.31607 19.7956 2 19 2ZM13 11C12.8684 10.9992 12.7379 11.0245 12.6161 11.0742C12.4943 11.124 12.3834 11.1973 12.29 11.29L9 14.59L7.71 13.29C7.61656 13.1973 7.50574 13.124 7.38391 13.0742C7.26207 13.0245 7.13161 12.9992 7 13C6.73478 13 6.48043 13.1054 6.29289 13.2929C6.10536 13.4804 6 13.7348 6 14C5.99924 14.1316 6.02446 14.2621 6.07423 14.3839C6.12399 14.5057 6.19732 14.6166 6.29 14.71L8.29 16.71C8.38296 16.8037 8.49356 16.8781 8.61542 16.9289C8.73728 16.9797 8.86799 17.0058 9 17.0058C9.13201 17.0058 9.26272 16.9797 9.38458 16.9289C9.50644 16.8781 9.61704 16.8037 9.71 16.71L13.71 12.71C13.8027 12.6166 13.876 12.5057 13.9258 12.3839C13.9755 12.2621 14.0008 12.1316 14 12C14 11.7348 13.8946 11.4804 13.7071 11.2929C13.5196 11.1054 13.2652 11 13 11Z" fill="#333333"/>
</svg>
