<svg width="24" height="24" viewBox="0 0 24 24" fill="none" xmlns="http://www.w3.org/2000/svg">
<path d="M18.9998 11H7.40984L12.7098 5.71002C12.8025 5.61658 12.8758 5.50576 12.9256 5.38392C12.9754 5.26209 13.0006 5.13162 12.9998 5.00002C12.9998 4.7348 12.8945 4.48045 12.707 4.29291C12.5194 4.10537 12.2651 4.00002 11.9998 4.00002C11.8682 3.99926 11.7378 4.02448 11.6159 4.07425C11.4941 4.12401 11.3833 4.19734 11.2898 4.29002L3.58984 12L11.2898 19.71C11.3833 19.8027 11.4941 19.876 11.6159 19.9258C11.7378 19.9756 11.8682 20.0008 11.9998 20C12.2651 20 12.5194 19.8947 12.707 19.7071C12.8945 19.5196 12.9998 19.2652 12.9998 19C13.0006 18.8684 12.9754 18.7379 12.9256 18.6161C12.8758 18.4943 12.8025 18.3835 12.7098 18.29L7.40984 13H18.9998C19.2651 13 19.5194 12.8947 19.707 12.7071C19.8945 12.5196 19.9998 12.2652 19.9998 12C19.9998 11.7348 19.8945 11.4804 19.707 11.2929C19.5194 11.1054 19.2651 11 18.9998 11Z" fill="white"/>
</svg>
