<svg width="24" height="24" viewBox="0 0 24 24" fill="none" xmlns="http://www.w3.org/2000/svg">
<path d="M15.0016 18.0001H3.00159C2.73637 18.0001 2.48201 18.1054 2.29448 18.293C2.10694 18.4805 2.00158 18.7349 2.00158 19.0001C2.00158 19.2653 2.10694 19.5196 2.29448 19.7072C2.48201 19.8947 2.73637 20.0001 3.00159 20.0001H15.0016C15.2668 20.0001 15.5212 19.8947 15.7087 19.7072C15.8962 19.5196 16.0016 19.2653 16.0016 19.0001C16.0016 18.7349 15.8962 18.4805 15.7087 18.293C15.5212 18.1054 15.2668 18.0001 15.0016 18.0001ZM3.00159 9.00007H21.0016C21.2221 8.9994 21.4363 8.92583 21.6107 8.79081C21.7851 8.65579 21.91 8.4669 21.9659 8.25355C22.0218 8.04019 22.0056 7.81434 21.9198 7.61114C21.834 7.40795 21.6835 7.23881 21.4916 7.13007L12.4916 2.13007C12.3396 2.0423 12.1671 1.99609 11.9916 1.99609C11.816 1.99609 11.6436 2.0423 11.4916 2.13007L2.49158 7.13007C2.29813 7.23962 2.14671 7.41052 2.06123 7.61575C1.97576 7.82099 1.96112 8.04885 2.01961 8.26333C2.07811 8.47782 2.20641 8.6667 2.38424 8.80012C2.56208 8.93354 2.7793 9.00389 3.00159 9.00007V9.00007ZM12.0016 4.14007L17.1416 7.00007H6.86159L12.0016 4.14007ZM11.0016 11.0001V16.0001C11.0016 16.2653 11.1069 16.5196 11.2945 16.7072C11.482 16.8947 11.7364 17.0001 12.0016 17.0001C12.2668 17.0001 12.5212 16.8947 12.7087 16.7072C12.8962 16.5196 13.0016 16.2653 13.0016 16.0001V11.0001C13.0016 10.7349 12.8962 10.4805 12.7087 10.293C12.5212 10.1054 12.2668 10.0001 12.0016 10.0001C11.7364 10.0001 11.482 10.1054 11.2945 10.293C11.1069 10.4805 11.0016 10.7349 11.0016 11.0001ZM5.00159 11.0001V16.0001C5.00159 16.2653 5.10694 16.5196 5.29448 16.7072C5.48201 16.8947 5.73637 17.0001 6.00159 17.0001C6.2668 17.0001 6.52116 16.8947 6.70869 16.7072C6.89623 16.5196 7.00159 16.2653 7.00159 16.0001V11.0001C7.00159 10.7349 6.89623 10.4805 6.70869 10.293C6.52116 10.1054 6.2668 10.0001 6.00159 10.0001C5.73637 10.0001 5.48201 10.1054 5.29448 10.293C5.10694 10.4805 5.00159 10.7349 5.00159 11.0001ZM19.0016 15.0001V11.0001C19.0016 10.7349 18.8962 10.4805 18.7087 10.293C18.5212 10.1054 18.2668 10.0001 18.0016 10.0001C17.7364 10.0001 17.482 10.1054 17.2945 10.293C17.1069 10.4805 17.0016 10.7349 17.0016 11.0001V15.0001C17.0016 15.2653 17.1069 15.5196 17.2945 15.7072C17.482 15.8947 17.7364 16.0001 18.0016 16.0001C18.2668 16.0001 18.5212 15.8947 18.7087 15.7072C18.8962 15.5196 19.0016 15.2653 19.0016 15.0001ZM23.2016 18.0001H22.0016V16.8001C22.0016 16.5879 21.9173 16.3844 21.7673 16.2344C21.6172 16.0844 21.4138 16.0001 21.2016 16.0001H20.8016C20.5894 16.0001 20.3859 16.0844 20.2359 16.2344C20.0859 16.3844 20.0016 16.5879 20.0016 16.8001V18.0001H18.8016C18.5894 18.0001 18.3859 18.0844 18.2359 18.2344C18.0859 18.3844 18.0016 18.5879 18.0016 18.8001V19.2001C18.0016 19.4122 18.0859 19.6157 18.2359 19.7658C18.3859 19.9158 18.5894 20.0001 18.8016 20.0001H20.0016V21.2001C20.0016 21.4122 20.0859 21.6157 20.2359 21.7658C20.3859 21.9158 20.5894 22.0001 20.8016 22.0001H21.2016C21.4138 22.0001 21.6172 21.9158 21.7673 21.7658C21.9173 21.6157 22.0016 21.4122 22.0016 21.2001V20.0001H23.2016C23.4138 20.0001 23.6172 19.9158 23.7673 19.7658C23.9173 19.6157 24.0016 19.4122 24.0016 19.2001V18.8001C24.0016 18.5879 23.9173 18.3844 23.7673 18.2344C23.6172 18.0844 23.4138 18.0001 23.2016 18.0001V18.0001Z" fill="#333333"/>
</svg>
