<svg width="24" height="24" viewBox="0 0 24 24" fill="none" xmlns="http://www.w3.org/2000/svg">
<path d="M19 22C18.8248 22.0012 18.6524 21.9564 18.5 21.87L12.5 18.44C12.348 18.3522 12.1755 18.306 12 18.306C11.8245 18.306 11.652 18.3522 11.5 18.44L5.5 21.87C5.3476 21.9564 5.17518 22.0012 5 22C4.73478 22 4.48043 21.8946 4.29289 21.7071C4.10536 21.5196 4 21.2652 4 21V6C4 5.20435 4.31607 4.44129 4.87868 3.87868C5.44129 3.31607 6.20435 3 7 3H17C17.7956 3 18.5587 3.31607 19.1213 3.87868C19.6839 4.44129 20 5.20435 20 6V21C20 21.2652 19.8946 21.5196 19.7071 21.7071C19.5196 21.8946 19.2652 22 19 22ZM7 5C6.73478 5 6.48043 5.10536 6.29289 5.29289C6.10536 5.48043 6 5.73478 6 6V19.28L10.51 16.7C10.9661 16.4367 11.4834 16.2981 12.01 16.2981C12.5366 16.2981 13.0539 16.4367 13.51 16.7L18 19.28V6C18 5.73478 17.8946 5.48043 17.7071 5.29289C17.5196 5.10536 17.2652 5 17 5H7Z" fill="#333333"/>
</svg>
