<svg width="50" height="50" viewBox="0 0 50 50" fill="none" xmlns="http://www.w3.org/2000/svg">
<g clip-path="url(#clip0_674:73)">
<path d="M13.8841 18.8264L17.2107 22.6281L21.362 17.8839L18.5869 14.7125C15.619 11.319 11.3328 9.375 6.82837 9.375H0V15.625H6.82837C9.5307 15.6251 12.1033 16.7909 13.8841 18.8264V18.8264Z" fill="#333333"/>
<path d="M40.6252 34.375H40.0468C37.3445 34.375 34.7718 33.2093 32.9911 31.1737L27.5888 25L32.9911 18.8262C34.7718 16.7907 37.3445 15.6249 40.0468 15.6249H40.6252V21.8749L50 12.4997L40.6252 3.125V9.37496H40.0468C35.5425 9.37496 31.2562 11.3189 28.2883 14.7125L13.884 31.1737C12.1033 33.2092 9.5306 34.375 6.82827 34.375H0V40.625H6.82837C11.3327 40.625 15.619 38.681 18.5869 35.2874L23.4377 29.7439L28.2884 35.2874C31.2563 38.681 35.5425 40.625 40.0469 40.625H40.6252V46.8749L50.0001 37.5001L40.6252 28.1251V34.375Z" fill="#333333"/>
</g>
<defs>
<clipPath id="clip0_674:73">
<rect width="50" height="50" fill="white"/>
</clipPath>
</defs>
</svg>
