<?xml version="1.0" encoding="UTF-8"?>
<svg xmlns="http://www.w3.org/2000/svg" xmlns:xlink="http://www.w3.org/1999/xlink" width="24pt" height="24pt" viewBox="0 0 24 24" version="1.1">
<g id="surface1">
<path style=" stroke:none;fill-rule:nonzero;fill:rgb(100%,100%,100%);fill-opacity:1;" d="M 22.5 3.058594 L 22.5 13.042969 C 22.5 14.746094 21.113281 16.136719 19.40625 16.136719 L 9.59375 16.136719 L 3.082031 20.664062 L 3.082031 16.136719 C 1.382812 16.128906 0 14.742188 0 13.042969 L 0 3.058594 C 0 1.351562 1.386719 -0.0351562 3.09375 -0.0351562 L 19.40625 -0.0351562 C 21.113281 -0.0351562 22.5 1.351562 22.5 3.058594 Z M 22.5 3.058594 "/>
<path style=" stroke:none;fill-rule:nonzero;fill:rgb(92.941176%,92.941176%,92.54902%);fill-opacity:1;" d="M 22.5 3.058594 L 22.5 13.042969 C 22.5 14.746094 21.113281 16.136719 19.40625 16.136719 L 11.246094 16.136719 L 11.246094 -0.0351562 L 19.40625 -0.0351562 C 21.113281 -0.0351562 22.5 1.351562 22.5 3.058594 Z M 22.5 3.058594 "/>
<path style=" stroke:none;fill-rule:nonzero;fill:rgb(40%,38.039216%,90.588235%);fill-opacity:1;" d="M 6.023438 4.625 L 16.476562 4.625 L 16.476562 5.941406 L 6.023438 5.941406 Z M 6.023438 4.625 "/>
<path style=" stroke:none;fill-rule:nonzero;fill:rgb(40%,38.039216%,90.588235%);fill-opacity:1;" d="M 6.023438 7.4375 L 16.476562 7.4375 L 16.476562 8.753906 L 6.023438 8.753906 Z M 6.023438 7.4375 "/>
<path style=" stroke:none;fill-rule:nonzero;fill:rgb(40%,38.039216%,90.588235%);fill-opacity:1;" d="M 6.023438 10.25 L 16.476562 10.25 L 16.476562 11.566406 L 6.023438 11.566406 Z M 6.023438 10.25 "/>
<path style=" stroke:none;fill-rule:nonzero;fill:rgb(88.235294%,88.235294%,89.019608%);fill-opacity:1;" d="M 11.246094 4.625 L 16.476562 4.625 L 16.476562 5.941406 L 11.246094 5.941406 Z M 11.246094 4.625 "/>
<path style=" stroke:none;fill-rule:nonzero;fill:rgb(88.235294%,88.235294%,89.019608%);fill-opacity:1;" d="M 11.246094 7.4375 L 16.476562 7.4375 L 16.476562 8.753906 L 11.246094 8.753906 Z M 11.246094 7.4375 "/>
<path style=" stroke:none;fill-rule:nonzero;fill:rgb(88.235294%,88.235294%,89.019608%);fill-opacity:1;" d="M 11.246094 10.25 L 16.476562 10.25 L 16.476562 11.566406 L 11.246094 11.566406 Z M 11.246094 10.25 "/>
</g>
</svg>
