<svg width="24" height="24" viewBox="0 0 24 24" fill="none" xmlns="http://www.w3.org/2000/svg">
<path d="M12 23.0004C11.7348 23.0004 11.4804 22.895 11.2929 22.7075C11.1054 22.5199 11 22.2656 11 22.0004V19.9404C9.27319 19.7473 7.63919 19.0585 6.29528 17.9571C4.95136 16.8558 3.95499 15.3889 3.42646 13.7337C2.89793 12.0785 2.85985 10.3056 3.3168 8.62923C3.77376 6.95282 4.70621 5.44454 6.00159 4.28647C7.29697 3.1284 8.89988 2.37007 10.6168 2.10302C12.3337 1.83598 14.0912 2.07165 15.6772 2.78157C17.2631 3.49149 18.6096 4.64531 19.5541 6.10373C20.4987 7.56215 21.0008 9.26281 21 11.0004C21 18.3704 13.09 23.0004 12 23.0004ZM12 4.00037C10.1435 4.00037 8.36301 4.73787 7.05025 6.05062C5.7375 7.36338 5 9.14386 5 11.0004C5 12.8569 5.7375 14.6374 7.05025 15.9501C8.36301 17.2629 10.1435 18.0004 12 18.0004C12.2652 18.0004 12.5196 18.1057 12.7071 18.2933C12.8946 18.4808 13 18.7352 13 19.0004V20.2804C16 18.3504 19 15.0604 19 11.0004C19 9.14386 18.2625 7.36338 16.9497 6.05062C15.637 4.73787 13.8565 4.00037 12 4.00037V4.00037Z" fill="#333333"/>
</svg>
