<?xml version="1.0" encoding="UTF-8"?>
<svg xmlns="http://www.w3.org/2000/svg" xmlns:xlink="http://www.w3.org/1999/xlink" width="24pt" height="24pt" viewBox="0 0 24 24" version="1.1">
<g id="surface1">
<path style=" stroke:none;fill-rule:nonzero;fill:rgb(100%,100%,100%);fill-opacity:1;" d="M 19.714844 0 L 4.285156 0 C 1.921875 0.00390625 0.00390625 1.921875 0 4.285156 L 0 19.714844 C 0.00390625 22.078125 1.921875 23.996094 4.285156 24 L 19.714844 24 C 22.078125 23.996094 23.996094 22.078125 24 19.714844 L 24 4.285156 C 23.996094 1.921875 22.078125 0.00390625 19.714844 0 Z M 22.285156 19.714844 C 22.285156 21.132812 21.132812 22.285156 19.714844 22.285156 L 4.285156 22.285156 C 2.867188 22.285156 1.714844 21.132812 1.714844 19.714844 L 1.714844 4.285156 C 1.714844 2.867188 2.867188 1.714844 4.285156 1.714844 L 19.714844 1.714844 C 21.132812 1.714844 22.285156 2.867188 22.285156 4.285156 Z M 22.285156 19.714844 "/>
<path style=" stroke:none;fill-rule:nonzero;fill:rgb(100%,100%,100%);fill-opacity:1;" d="M 16.285156 11.144531 L 12.855469 11.144531 L 12.855469 7.714844 C 12.855469 7.242188 12.472656 6.855469 12 6.855469 C 11.527344 6.855469 11.144531 7.242188 11.144531 7.714844 L 11.144531 11.144531 L 7.714844 11.144531 C 7.242188 11.144531 6.855469 11.527344 6.855469 12 C 6.855469 12.472656 7.242188 12.855469 7.714844 12.855469 L 11.144531 12.855469 L 11.144531 16.285156 C 11.144531 16.757812 11.527344 17.144531 12 17.144531 C 12.472656 17.144531 12.855469 16.757812 12.855469 16.285156 L 12.855469 12.855469 L 16.285156 12.855469 C 16.757812 12.855469 17.144531 12.472656 17.144531 12 C 17.144531 11.527344 16.757812 11.144531 16.285156 11.144531 Z M 16.285156 11.144531 "/>
</g>
</svg>
