<svg width="24" height="24" viewBox="0 0 24 24" fill="none" xmlns="http://www.w3.org/2000/svg">
<path d="M18 3H6C5.20435 3 4.44129 3.31607 3.87868 3.87868C3.31607 4.44129 3 5.20435 3 6V18C3 18.7956 3.31607 19.5587 3.87868 20.1213C4.44129 20.6839 5.20435 21 6 21H18C18.7956 21 19.5587 20.6839 20.1213 20.1213C20.6839 19.5587 21 18.7956 21 18V6C21 5.20435 20.6839 4.44129 20.1213 3.87868C19.5587 3.31607 18.7956 3 18 3ZM18 19H6C5.7962 18.9979 5.59791 18.9335 5.4317 18.8156C5.26549 18.6976 5.13929 18.5317 5.07 18.34L8.5 14.91L9.59 16L9.29 16.29C9.19732 16.3834 9.12399 16.4943 9.07423 16.6161C9.02446 16.7379 8.99924 16.8684 9 17C9 17.2652 9.10536 17.5196 9.29289 17.7071C9.48043 17.8946 9.73478 18 10 18C10.1316 18.0008 10.2621 17.9755 10.3839 17.9258C10.5057 17.876 10.6166 17.8027 10.71 17.71L14.5 13.91L18.93 18.34C18.8607 18.5317 18.7345 18.6976 18.5683 18.8156C18.4021 18.9335 18.2038 18.9979 18 19ZM19 15.59L15.21 11.79C15.117 11.6963 15.0064 11.6219 14.8846 11.5711C14.7627 11.5203 14.632 11.4942 14.5 11.4942C14.368 11.4942 14.2373 11.5203 14.1154 11.5711C13.9936 11.6219 13.883 11.6963 13.79 11.79L11 14.59L9.21 12.79C9.11704 12.6963 9.00644 12.6219 8.88458 12.5711C8.76272 12.5203 8.63201 12.4942 8.5 12.4942C8.36799 12.4942 8.23728 12.5203 8.11542 12.5711C7.99356 12.6219 7.88296 12.6963 7.79 12.79L5 15.59V6C5 5.73478 5.10536 5.48043 5.29289 5.29289C5.48043 5.10536 5.73478 5 6 5H18C18.2652 5 18.5196 5.10536 18.7071 5.29289C18.8946 5.48043 19 5.73478 19 6V15.59ZM8.5 7C8.20333 7 7.91332 7.08797 7.66664 7.2528C7.41997 7.41762 7.22771 7.65189 7.11418 7.92597C7.00065 8.20006 6.97094 8.50166 7.02882 8.79264C7.0867 9.08361 7.22956 9.35088 7.43934 9.56066C7.64912 9.77044 7.91639 9.9133 8.20736 9.97118C8.49834 10.0291 8.79994 9.99935 9.07403 9.88582C9.34811 9.77229 9.58238 9.58003 9.7472 9.33335C9.91203 9.08668 10 8.79667 10 8.5C10 8.10218 9.84196 7.72064 9.56066 7.43934C9.27936 7.15804 8.89782 7 8.5 7Z" fill="#333333"/>
</svg>
