<svg width="16" height="16" viewBox="0 0 16 16" fill="none" xmlns="http://www.w3.org/2000/svg">
<g clip-path="url(#clip0_1256_13)">
<path d="M14.6924 1.96094C13.8643 1.07422 12.7041 0.570312 11.4932 0.566406C10.2744 0.570312 9.11426 1.07422 8.28223 1.96094L8.00098 2.26172L7.71973 1.96094C6.0752 0.195312 3.30566 0.0937502 1.53613 1.73438C1.45801 1.80859 1.38379 1.88281 1.30957 1.96094C-0.436523 3.84375 -0.436523 6.75391 1.30957 8.63281L7.58691 15.2578C7.80566 15.4844 8.16504 15.4922 8.39551 15.2773C8.40332 15.2695 8.41113 15.2656 8.41504 15.2578L14.6924 8.63281C16.4385 6.75391 16.4385 3.84375 14.6924 1.96094Z" fill="#E21F36"/>
</g>
<defs>
<clipPath id="clip0_1256_13">
<rect width="16" height="16" fill="white"/>
</clipPath>
</defs>
</svg>
