<svg width="24" height="24" viewBox="0 0 24 24" fill="none" xmlns="http://www.w3.org/2000/svg">
<path d="M12.0011 22C11.8695 22.0008 11.739 21.9755 11.6172 21.9258C11.4953 21.876 11.3845 21.8027 11.2911 21.71C5.87106 16.29 2.00106 13.06 2.00106 9C1.97154 7.44289 2.55992 5.93746 3.63749 4.81304C4.71506 3.68862 6.1941 3.03674 7.75106 3C8.57715 3.03403 9.38576 3.24864 10.12 3.62872C10.8543 4.00881 11.4963 4.54514 12.0011 5.2C12.5058 4.54514 13.1479 4.00881 13.8821 3.62872C14.6164 3.24864 15.425 3.03403 16.2511 3C17.808 3.03674 19.2871 3.68862 20.3646 4.81304C21.4422 5.93746 22.0306 7.44289 22.0011 9C22.0011 13 18.2511 16.17 12.7111 21.71C12.6176 21.8027 12.5068 21.876 12.385 21.9258C12.2631 21.9755 12.1327 22.0008 12.0011 22ZM7.75106 5C6.72361 5.03393 5.75163 5.47423 5.04853 6.22419C4.34544 6.97416 3.96871 7.9725 4.00106 9C4.00106 12.12 7.81106 15.44 12.0011 19.59C16.0911 15.53 20.0011 12.12 20.0011 9C20.0334 7.9725 19.6567 6.97416 18.9536 6.22419C18.2505 5.47423 17.2785 5.03393 16.2511 5C15.5199 5.06713 14.8239 5.34463 14.2471 5.79894C13.6704 6.25326 13.2376 6.86493 13.0011 7.56C12.9353 7.76007 12.8081 7.93427 12.6375 8.05777C12.4669 8.18126 12.2617 8.24775 12.0511 8.24775C11.8405 8.24775 11.6352 8.18126 11.4647 8.05777C11.2941 7.93427 11.1668 7.76007 11.1011 7.56C10.8578 6.85023 10.4098 6.22836 9.81366 5.77279C9.2175 5.31721 8.49981 5.04832 7.75106 5Z" fill="white"/>
</svg>
