<svg width="24" height="24" viewBox="0 0 24 24" fill="none" xmlns="http://www.w3.org/2000/svg">
<path d="M11.9983 14C11.7313 14 11.4703 14.0792 11.2483 14.2275C11.0263 14.3759 10.8533 14.5867 10.7511 14.8334C10.6489 15.0801 10.6222 15.3515 10.6743 15.6134C10.7264 15.8752 10.8549 16.1158 11.0437 16.3046C11.2325 16.4934 11.4731 16.622 11.7349 16.6741C11.9968 16.7262 12.2683 16.6994 12.5149 16.5972C12.7616 16.4951 12.9725 16.322 13.1208 16.1C13.2691 15.878 13.3483 15.617 13.3483 15.35C13.3497 15.1723 13.3156 14.9962 13.2483 14.8318C13.1809 14.6674 13.0815 14.5181 12.9559 14.3924C12.8303 14.2668 12.6809 14.1674 12.5165 14.1001C12.3521 14.0327 12.176 13.9987 11.9983 14V14ZM11.9983 2C9.70447 2.00939 7.50077 2.8943 5.83746 4.47394C4.17416 6.05358 3.17678 8.20871 3.04912 10.499C2.92145 12.7893 3.67313 15.042 5.15058 16.7967C6.62802 18.5514 8.71972 19.6757 10.9983 19.94V22C10.9983 22.2652 11.1037 22.5196 11.2912 22.7071C11.4788 22.8946 11.7331 23 11.9983 23C13.0883 23 20.9983 18.37 20.9983 11C20.9983 8.61305 20.0501 6.32387 18.3623 4.63604C16.6745 2.94821 14.3853 2 11.9983 2V2ZM12.9983 20.28V19C12.9983 18.7348 12.893 18.4804 12.7054 18.2929C12.5179 18.1054 12.2635 18 11.9983 18C10.6139 18 9.26047 17.5895 8.10933 16.8203C6.95819 16.0511 6.06098 14.9579 5.53116 13.6788C5.00135 12.3997 4.86273 10.9922 5.13282 9.63437C5.40292 8.2765 6.06961 7.02922 7.04857 6.05025C8.02754 5.07128 9.27482 4.4046 10.6327 4.1345C11.9906 3.86441 13.398 4.00303 14.6771 4.53284C15.9562 5.06266 17.0494 5.95986 17.8186 7.11101C18.5878 8.26215 18.9983 9.61553 18.9983 11C18.9983 15.06 15.9983 18.35 12.9983 20.28ZM12.0483 6C11.1666 5.96656 10.3049 6.26735 9.63548 6.84217C8.96611 7.41698 8.53852 8.2234 8.43832 9.1C8.43561 9.1389 8.44078 9.17795 8.45351 9.21482C8.46624 9.25168 8.48627 9.28559 8.51241 9.31453C8.53855 9.34347 8.57026 9.36684 8.60564 9.38325C8.64102 9.39965 8.67934 9.40875 8.71832 9.41H10.3083C10.5683 9.41 10.6583 9.24 10.7483 8.98C10.8403 8.71838 11.0201 8.49671 11.2571 8.35269C11.4941 8.20866 11.7737 8.15118 12.0483 8.19C12.6883 8.19 13.2183 8.42 13.2183 9.07C13.2183 10.17 10.8683 10.75 10.8683 12.62C10.8656 12.7165 10.9006 12.8102 10.966 12.8812C11.0314 12.9522 11.1219 12.9948 11.2183 13H12.8083C12.9783 13 13.0983 12.87 13.1583 12.62C13.4883 11.32 15.5583 10.95 15.5583 8.91C15.5583 7.15 13.9083 6 12.0483 6Z" fill="#333333"/>
</svg>
