<?xml version="1.0" encoding="UTF-8"?>
<svg xmlns="http://www.w3.org/2000/svg" xmlns:xlink="http://www.w3.org/1999/xlink" width="24pt" height="24pt" viewBox="0 0 24 24" version="1.1">
<g id="surface1">
<path style=" stroke:none;fill-rule:nonzero;fill:rgb(100%,100%,100%);fill-opacity:1;" d="M 23.351562 10.4375 L 13.5625 0.648438 C 13.144531 0.230469 12.589844 0 12 0 C 11.410156 0 10.855469 0.230469 10.4375 0.648438 L 0.652344 10.433594 C 0.648438 10.433594 0.644531 10.4375 0.640625 10.441406 C -0.214844 11.304688 -0.214844 12.703125 0.644531 13.5625 C 1.039062 13.953125 1.558594 14.183594 2.113281 14.207031 C 2.132812 14.207031 2.15625 14.210938 2.179688 14.210938 L 2.570312 14.210938 L 2.570312 21.414062 C 2.570312 22.839844 3.730469 24 5.15625 24 L 8.984375 24 C 9.375 24 9.6875 23.683594 9.6875 23.296875 L 9.6875 17.648438 C 9.6875 16.996094 10.21875 16.46875 10.871094 16.46875 L 13.128906 16.46875 C 13.777344 16.46875 14.308594 16.996094 14.308594 17.648438 L 14.308594 23.296875 C 14.308594 23.683594 14.625 24 15.011719 24 L 18.839844 24 C 20.265625 24 21.425781 22.839844 21.425781 21.414062 L 21.425781 14.210938 L 21.789062 14.210938 C 22.378906 14.210938 22.933594 13.980469 23.351562 13.5625 C 24.210938 12.703125 24.214844 11.300781 23.351562 10.4375 Z M 23.351562 10.4375 "/>
<path style=" stroke:none;fill-rule:nonzero;fill:rgb(94.509804%,94.117647%,95.294118%);fill-opacity:1;" d="M 23.351562 10.4375 L 13.5625 0.648438 C 13.144531 0.230469 12.589844 0 12 0 L 12 16.46875 L 13.128906 16.46875 C 13.777344 16.46875 14.308594 16.996094 14.308594 17.648438 L 14.308594 23.296875 C 14.308594 23.683594 14.625 24 15.011719 24 L 18.839844 24 C 20.265625 24 21.425781 22.839844 21.425781 21.414062 L 21.425781 14.210938 L 21.789062 14.210938 C 22.378906 14.210938 22.933594 13.980469 23.351562 13.5625 C 24.210938 12.703125 24.214844 11.300781 23.351562 10.4375 Z M 23.351562 10.4375 "/>
</g>
</svg>
