<svg width="24" height="24" viewBox="0 0 24 24" fill="none" xmlns="http://www.w3.org/2000/svg">
<path d="M6.69063 4.99815H5.24063L4.80063 3.63815C4.78334 3.57174 4.74451 3.51295 4.69022 3.47098C4.63593 3.42902 4.56925 3.40625 4.50063 3.40625C4.43201 3.40625 4.36533 3.42902 4.31104 3.47098C4.25675 3.51295 4.21791 3.57174 4.20063 3.63815L3.76063 4.99815H2.31063C2.24556 4.99884 2.18236 5.01998 2.12997 5.05859C2.07759 5.0972 2.03869 5.15132 2.01878 5.21327C1.99886 5.27522 1.99895 5.34186 2.01903 5.40376C2.0391 5.46566 2.07815 5.51967 2.13063 5.55815L3.30063 6.40815L2.85063 7.79815C2.84577 7.82795 2.84577 7.85834 2.85063 7.88815C2.84929 7.92969 2.85631 7.97108 2.87129 8.00985C2.88627 8.04863 2.90889 8.08399 2.93781 8.11384C2.96673 8.1437 3.00136 8.16743 3.03964 8.18363C3.07792 8.19983 3.11906 8.20817 3.16063 8.20815C3.22554 8.20815 3.2887 8.18709 3.34063 8.14815L4.50063 7.29815L5.67063 8.14815C5.72256 8.18709 5.78572 8.20815 5.85063 8.20815C5.89219 8.20817 5.93334 8.19983 5.97161 8.18363C6.00989 8.16743 6.04452 8.1437 6.07344 8.11384C6.10236 8.08399 6.12499 8.04863 6.13996 8.00985C6.15494 7.97108 6.16197 7.92969 6.16063 7.88815C6.16548 7.85834 6.16548 7.82795 6.16063 7.79815L5.70063 6.41815L6.87063 5.56815C6.9276 5.53126 6.97089 5.47669 6.99385 5.41282C7.01682 5.34895 7.01819 5.27931 6.99775 5.21458C6.97731 5.14986 6.93619 5.09363 6.88071 5.05454C6.82523 5.01544 6.75845 4.99563 6.69063 4.99815V4.99815ZM6.69063 10.9981H5.24063L4.80063 9.63815C4.78334 9.57174 4.74451 9.51295 4.69022 9.47098C4.63593 9.42902 4.56925 9.40625 4.50063 9.40625C4.43201 9.40625 4.36533 9.42902 4.31104 9.47098C4.25675 9.51295 4.21791 9.57174 4.20063 9.63815L3.76063 10.9981H2.31063C2.24556 10.9988 2.18236 11.02 2.12997 11.0586C2.07759 11.0972 2.03869 11.1513 2.01878 11.2133C1.99886 11.2752 1.99895 11.3419 2.01903 11.4038C2.0391 11.4657 2.07815 11.5197 2.13063 11.5581L3.30063 12.4081L2.85063 13.7981C2.84577 13.828 2.84577 13.8583 2.85063 13.8881C2.84929 13.9297 2.85631 13.9711 2.87129 14.0099C2.88627 14.0486 2.90889 14.084 2.93781 14.1138C2.96673 14.1437 3.00136 14.1674 3.03964 14.1836C3.07792 14.1998 3.11906 14.2082 3.16063 14.2081C3.22554 14.2081 3.2887 14.1871 3.34063 14.1481L4.50063 13.2981L5.67063 14.1481C5.72256 14.1871 5.78572 14.2081 5.85063 14.2081C5.89219 14.2082 5.93334 14.1998 5.97161 14.1836C6.00989 14.1674 6.04452 14.1437 6.07344 14.1138C6.10236 14.084 6.12499 14.0486 6.13996 14.0099C6.15494 13.9711 6.16197 13.9297 6.16063 13.8881C6.16548 13.8583 6.16548 13.828 6.16063 13.7981L5.70063 12.4181L6.87063 11.5681C6.9276 11.5313 6.97089 11.4767 6.99385 11.4128C7.01682 11.3489 7.01819 11.2793 6.99775 11.2146C6.97731 11.1499 6.93619 11.0936 6.88071 11.0545C6.82523 11.0154 6.75845 10.9956 6.69063 10.9981V10.9981ZM6.69063 16.9981H5.24063L4.80063 15.6381C4.78334 15.5717 4.74451 15.5129 4.69022 15.471C4.63593 15.429 4.56925 15.4062 4.50063 15.4062C4.43201 15.4062 4.36533 15.429 4.31104 15.471C4.25675 15.5129 4.21791 15.5717 4.20063 15.6381L3.76063 16.9981H2.31063C2.24556 16.9988 2.18236 17.02 2.12997 17.0586C2.07759 17.0972 2.03869 17.1513 2.01878 17.2133C1.99886 17.2752 1.99895 17.3419 2.01903 17.4038C2.0391 17.4657 2.07815 17.5197 2.13063 17.5581L3.30063 18.4081L2.85063 19.7981C2.84577 19.828 2.84577 19.8583 2.85063 19.8881C2.84929 19.9297 2.85631 19.9711 2.87129 20.0099C2.88627 20.0486 2.90889 20.084 2.93781 20.1138C2.96673 20.1437 3.00136 20.1674 3.03964 20.1836C3.07792 20.1998 3.11906 20.2082 3.16063 20.2081C3.22554 20.2081 3.2887 20.1871 3.34063 20.1481L4.50063 19.2981L5.67063 20.1481C5.72256 20.1871 5.78572 20.2081 5.85063 20.2081C5.89219 20.2082 5.93334 20.1998 5.97161 20.1836C6.00989 20.1674 6.04452 20.1437 6.07344 20.1138C6.10236 20.084 6.12499 20.0486 6.13996 20.0099C6.15494 19.9711 6.16197 19.9297 6.16063 19.8881C6.16548 19.8583 6.16548 19.828 6.16063 19.7981L5.70063 18.4181L6.87063 17.5681C6.9276 17.5313 6.97089 17.4767 6.99385 17.4128C7.01682 17.3489 7.01819 17.2793 6.99775 17.2146C6.97731 17.1499 6.93619 17.0936 6.88071 17.0545C6.82523 17.0154 6.75845 16.9956 6.69063 16.9981V16.9981ZM10.0006 6.99815H20.0006C20.2658 6.99815 20.5202 6.89279 20.7077 6.70525C20.8953 6.51772 21.0006 6.26336 21.0006 5.99815C21.0006 5.73293 20.8953 5.47858 20.7077 5.29104C20.5202 5.1035 20.2658 4.99815 20.0006 4.99815H10.0006C9.73541 4.99815 9.48106 5.1035 9.29352 5.29104C9.10598 5.47858 9.00063 5.73293 9.00063 5.99815C9.00063 6.26336 9.10598 6.51772 9.29352 6.70525C9.48106 6.89279 9.73541 6.99815 10.0006 6.99815V6.99815ZM20.0006 10.9981H10.0006C9.73541 10.9981 9.48106 11.1035 9.29352 11.291C9.10598 11.4786 9.00063 11.7329 9.00063 11.9981C9.00063 12.2634 9.10598 12.5177 9.29352 12.7053C9.48106 12.8928 9.73541 12.9981 10.0006 12.9981H20.0006C20.2658 12.9981 20.5202 12.8928 20.7077 12.7053C20.8953 12.5177 21.0006 12.2634 21.0006 11.9981C21.0006 11.7329 20.8953 11.4786 20.7077 11.291C20.5202 11.1035 20.2658 10.9981 20.0006 10.9981ZM20.0006 16.9981H10.0006C9.73541 16.9981 9.48106 17.1035 9.29352 17.291C9.10598 17.4786 9.00063 17.7329 9.00063 17.9981C9.00063 18.2634 9.10598 18.5177 9.29352 18.7053C9.48106 18.8928 9.73541 18.9981 10.0006 18.9981H20.0006C20.2658 18.9981 20.5202 18.8928 20.7077 18.7053C20.8953 18.5177 21.0006 18.2634 21.0006 17.9981C21.0006 17.7329 20.8953 17.4786 20.7077 17.291C20.5202 17.1035 20.2658 16.9981 20.0006 16.9981Z" fill="#333333"/>
</svg>
