<?xml version="1.0" encoding="UTF-8"?>
<svg xmlns="http://www.w3.org/2000/svg" xmlns:xlink="http://www.w3.org/1999/xlink" width="20pt" height="20pt" viewBox="0 0 20 20" version="1.1">
<g id="surface1">
<path style=" stroke:none;fill-rule:nonzero;fill:rgb(14.117647%,14.509804%,16.078431%);fill-opacity:1;" d="M 18.746094 7.324219 L 15.222656 10.003906 L 15.222656 7.945312 C 15.222656 7.515625 14.875 7.164062 14.441406 7.164062 L 0.78125 7.164062 C 0.351562 7.164062 0 7.515625 0 7.945312 L 0 19.21875 C 0 19.648438 0.351562 20 0.78125 20 L 14.441406 20 C 14.875 20 15.222656 19.648438 15.222656 19.21875 L 15.222656 17.164062 L 18.746094 19.839844 C 19.253906 20.226562 20 19.867188 20 19.21875 L 20 7.945312 C 20 7.300781 19.257812 6.933594 18.746094 7.324219 Z M 13.660156 18.4375 L 1.5625 18.4375 L 1.5625 8.726562 L 13.660156 8.726562 Z M 18.4375 17.644531 L 15.222656 15.203125 L 15.222656 11.964844 L 18.4375 9.523438 Z M 3.4375 3.09375 C 5.0625 1.128906 7.457031 0 10 0 C 12.542969 0 14.9375 1.128906 16.5625 3.09375 C 16.839844 3.425781 16.792969 3.921875 16.460938 4.195312 C 16.128906 4.46875 15.636719 4.425781 15.359375 4.089844 C 14.03125 2.484375 12.078125 1.5625 10 1.5625 C 7.921875 1.5625 5.96875 2.484375 4.640625 4.089844 C 4.367188 4.421875 3.871094 4.46875 3.539062 4.195312 C 3.207031 3.921875 3.160156 3.425781 3.4375 3.09375 Z M 12.824219 4.355469 C 13.191406 4.582031 13.304688 5.0625 13.078125 5.429688 C 12.851562 5.796875 12.371094 5.910156 12.003906 5.683594 C 11.402344 5.3125 10.710938 5.113281 10 5.113281 C 9.289062 5.113281 8.597656 5.3125 7.996094 5.683594 C 7.628906 5.910156 7.148438 5.796875 6.921875 5.429688 C 6.695312 5.0625 6.808594 4.582031 7.175781 4.355469 C 8.023438 3.828125 9 3.550781 10 3.550781 C 11 3.550781 11.976562 3.828125 12.824219 4.355469 Z M 12.824219 4.355469 "/>
</g>
</svg>
