<svg width="24" height="24" viewBox="0 0 24 24" fill="none" xmlns="http://www.w3.org/2000/svg">
<path d="M18 3H6C5.20435 3 4.44129 3.31607 3.87868 3.87868C3.31607 4.44129 3 5.20435 3 6V7C3 7.26522 3.10536 7.51957 3.29289 7.70711C3.48043 7.89464 3.73478 8 4 8C4.26522 8 4.51957 7.89464 4.70711 7.70711C4.89464 7.51957 5 7.26522 5 7V6C5 5.73478 5.10536 5.48043 5.29289 5.29289C5.48043 5.10536 5.73478 5 6 5H18C18.2652 5 18.5196 5.10536 18.7071 5.29289C18.8946 5.48043 19 5.73478 19 6V18C19 18.2652 18.8946 18.5196 18.7071 18.7071C18.5196 18.8946 18.2652 19 18 19H6C5.73478 19 5.48043 18.8946 5.29289 18.7071C5.10536 18.5196 5 18.2652 5 18V17C5 16.7348 4.89464 16.4804 4.70711 16.2929C4.51957 16.1054 4.26522 16 4 16C3.73478 16 3.48043 16.1054 3.29289 16.2929C3.10536 16.4804 3 16.7348 3 17V18C3 18.7956 3.31607 19.5587 3.87868 20.1213C4.44129 20.6839 5.20435 21 6 21H18C18.7956 21 19.5587 20.6839 20.1213 20.1213C20.6839 19.5587 21 18.7956 21 18V6C21 5.20435 20.6839 4.44129 20.1213 3.87868C19.5587 3.31607 18.7956 3 18 3ZM10 8C10 7.73478 9.89464 7.48043 9.70711 7.29289C9.51957 7.10536 9.26522 7 9 7C8.86839 6.99924 8.73793 7.02446 8.61609 7.07423C8.49426 7.12399 8.38344 7.19732 8.29 7.29L4.29 11.29C4.19627 11.383 4.12188 11.4936 4.07111 11.6154C4.02034 11.7373 3.9942 11.868 3.9942 12C3.9942 12.132 4.02034 12.2627 4.07111 12.3846C4.12188 12.5064 4.19627 12.617 4.29 12.71L8.29 16.71C8.38344 16.8027 8.49426 16.876 8.61609 16.9258C8.73793 16.9755 8.86839 17.0008 9 17C9.26522 17 9.51957 16.8946 9.70711 16.7071C9.89464 16.5196 10 16.2652 10 16C10.0008 15.8684 9.97554 15.7379 9.92577 15.6161C9.87601 15.4943 9.80268 15.3834 9.71 15.29L7.41 13H16C16.2652 13 16.5196 12.8946 16.7071 12.7071C16.8946 12.5196 17 12.2652 17 12C17 11.7348 16.8946 11.4804 16.7071 11.2929C16.5196 11.1054 16.2652 11 16 11H7.41L9.71 8.71C9.80268 8.61656 9.87601 8.50574 9.92577 8.38391C9.97554 8.26207 10.0008 8.13161 10 8Z" fill="#333333"/>
</svg>
