<svg id="Capa_1" enable-background="new 0 0 512 512" height="512" viewBox="0 0 512 512" width="512" xmlns="http://www.w3.org/2000/svg"><g><path d="m136.106 258.513c22.703 0 41.173-18.509 41.173-41.26s-18.47-41.26-41.173-41.26-41.173 18.509-41.173 41.26 18.47 41.26 41.173 41.26zm0-67.519c14.432 0 26.173 11.78 26.173 26.26s-11.741 26.26-26.173 26.26-26.173-11.78-26.173-26.26 11.741-26.26 26.173-26.26z"/><path d="m300.803 217.253c0-22.75-18.47-41.26-41.173-41.26s-41.173 18.509-41.173 41.26 18.47 41.26 41.173 41.26 41.173-18.509 41.173-41.26zm-41.173 26.26c-14.432 0-26.173-11.78-26.173-26.26s11.741-26.26 26.173-26.26 26.173 11.78 26.173 26.26-11.741 26.26-26.173 26.26z"/><path d="m424.327 217.253c0-22.75-18.47-41.26-41.173-41.26s-41.173 18.509-41.173 41.26 18.47 41.26 41.173 41.26 41.173-18.509 41.173-41.26zm-67.347 0c0-14.479 11.741-26.26 26.173-26.26s26.173 11.78 26.173 26.26-11.741 26.26-26.173 26.26-26.173-11.78-26.173-26.26z"/><path d="m241.021 378.206h-19.373c-1.5 0-2.965.45-4.207 1.291l-112.015 75.887c-3.312 2.243-6.263.518-7.089-.065-.835-.588-3.48-2.813-2.469-6.737l15.727-61.004c.579-2.246.086-4.633-1.334-6.466s-3.609-2.906-5.928-2.906h-40.99c-26.656 0-48.343-21.75-48.343-48.486v-225.726c0-26.735 21.687-48.486 48.343-48.486h34.561c4.142 0 7.5-3.358 7.5-7.5s-3.358-7.5-7.5-7.5h-34.561c-34.927 0-63.343 28.479-63.343 63.486v225.726c0 35.006 28.416 63.486 63.343 63.486h31.313l-13.311 51.632c-2.234 8.666 1.045 17.593 8.354 22.743 3.699 2.606 7.961 3.912 12.228 3.911 4.138 0 8.281-1.229 11.914-3.69l110.109-74.596h17.071c4.142 0 7.5-3.358 7.5-7.5s-3.357-7.5-7.5-7.5z"/><path d="m448.657 40.508h-320.188c-4.142 0-7.5 3.358-7.5 7.5s3.358 7.5 7.5 7.5h320.188c26.656 0 48.343 21.75 48.343 48.486v225.726c0 26.735-21.687 48.486-48.343 48.486h-175.871c-4.142 0-7.5 3.358-7.5 7.5s3.358 7.5 7.5 7.5h175.872c34.927 0 63.343-28.479 63.343-63.486v-225.726c-.001-35.007-28.417-63.486-63.344-63.486z"/></g></svg>