<svg id="Capa_1" enable-background="new 0 0 512.003 512.003" height="512" viewBox="0 0 512.003 512.003" width="512" xmlns="http://www.w3.org/2000/svg"><g><g><g><g><g><path d="m448.344 470.673h-369.853c-5.523 0-10-4.478-10-10v-179.169c0-5.523 4.477-10 10-10h212.993c5.523 0 10 4.477 10 10 0 5.522-4.477 10-10 10h-202.993v159.169h349.853v-159.169h-24.029c-5.523 0-10-4.478-10-10 0-5.523 4.477-10 10-10h34.029c5.523 0 10 4.477 10 10v179.169c0 5.522-4.477 10-10 10z"/></g></g><g><g><g><path d="m489.733 168.144h-369.944l359.238-88.194c2.577-.633 4.796-2.264 6.17-4.533 1.374-2.271 1.79-4.993 1.155-7.569l-1.896-7.699c0-.001-12.935-52.536-12.935-52.536-1.319-5.36-6.734-8.638-12.094-7.321l-439.541 107.908c-2.577.633-4.796 2.264-6.17 4.533-.945 1.561-1.436 3.335-1.445 5.129-.004.816.092 1.635.29 2.44l14.541 59.061v286.09c0 25.667 20.905 46.549 46.602 46.549h379.429c25.696 0 46.601-20.882 46.601-46.549v-287.31c-.001-5.521-4.478-9.999-10.001-9.999zm-10 39.983-20.011-19.983h20.011zm-48.316-19.983 42.089 42.029h-43.85l-42.089-42.029zm-94.229 42.03-42.089-42.029h64.164l42.089 42.029zm-70.393-42.03 42.089 42.029h-43.849l-42.089-42.029zm-94.228 42.03-42.089-42.029h64.163l42.089 42.029zm-84.721-118.064 50.921 30.78-42.563 10.45-50.922-30.78zm89.794-22.045 50.922 30.78-62.3 15.295-50.921-30.78zm70.067-17.201 50.921 30.78-42.572 10.452-50.922-30.78zm89.795-22.045 50.921 30.78-62.299 15.295-50.922-30.78zm70.067-17.202 50.922 30.78-42.574 10.452-50.921-30.78zm-338.86 126.473-24.288 5.963-5.971-24.253zm-21.608 45.103 25.017 24.981h-25.017zm11.231-17.049h43.841l42.089 42.029h-43.84zm400.936-146.646-24.204-14.631 19.428-4.77zm20.465 423.956c0 14.639-11.933 26.549-26.601 26.549h-379.429c-14.668 0-26.602-11.91-26.602-26.549v-215.28h432.632z"/></g></g></g><g><g><path d="m356.371 291.503c-1.957-.008-3.921-.592-5.55-1.69-8.994-6.118-3.184-20.138 7.5-18.109 11.732 2.575 10.048 19.547-1.95 19.799z"/></g></g></g></g><g><g><path d="m249.419 424.963c-3.728 0-7.456-.982-10.853-2.945-6.79-3.922-10.843-10.945-10.843-18.787v-64.285c0-7.841 4.053-14.863 10.842-18.786 6.79-3.923 14.899-3.927 21.691-.012l55.752 32.144c6.801 3.921 10.861 10.948 10.86 18.798s-4.061 14.877-10.861 18.797l-55.751 32.142c-3.393 1.955-7.115 2.934-10.837 2.934zm.001-87.732c-.284 0-.568.082-.85.245-.563.325-.848.819-.848 1.469v64.285c0 .65.285 1.145.848 1.47.563.326 1.134.326 1.696.001l55.753-32.143c.564-.325.85-.819.85-1.471 0-.65-.286-1.146-.85-1.471l-55.752-32.143c-.281-.161-.564-.242-.847-.242z"/></g></g></g></svg>