<?xml version="1.0" encoding="UTF-8"?>
<svg xmlns="http://www.w3.org/2000/svg" xmlns:xlink="http://www.w3.org/1999/xlink" width="24pt" height="24pt" viewBox="0 0 24 24" version="1.1">
<defs>
<filter id="alpha" filterUnits="objectBoundingBox" x="0%" y="0%" width="100%" height="100%">
  <feColorMatrix type="matrix" in="SourceGraphic" values="0 0 0 0 1 0 0 0 0 1 0 0 0 0 1 0 0 0 1 0"/>
</filter>
<mask id="mask0">
  <g filter="url(#alpha)">
<rect x="0" y="0" width="24" height="24" style="fill:rgb(0%,0%,0%);fill-opacity:0.501961;stroke:none;"/>
  </g>
</mask>
<clipPath id="clip1">
  <rect x="0" y="0" width="24" height="24"/>
</clipPath>
<g id="surface5" clip-path="url(#clip1)">
<path style=" stroke:none;fill-rule:nonzero;fill:rgb(93.72549%,93.333333%,91.764706%);fill-opacity:1;" d="M 21.105469 19.433594 L 21.105469 20.898438 C 21.105469 21.425781 20.675781 21.855469 20.148438 21.855469 L 17.925781 21.855469 C 18.453125 21.855469 18.882812 21.425781 18.882812 20.898438 L 18.882812 19.433594 C 18.882812 19.0625 18.609375 18.816406 18.332031 18.570312 C 15.933594 16.429688 15.726562 15.191406 15.1875 9.472656 C 14.785156 5.203125 12.367188 3.953125 10.890625 3.589844 C 11.253906 3.5 11.625 3.449219 12 3.445312 C 12.492188 3.441406 16.851562 3.601562 17.410156 9.472656 C 17.949219 15.191406 18.15625 16.429688 20.554688 18.570312 C 20.832031 18.816406 21.105469 19.0625 21.105469 19.433594 Z M 21.105469 19.433594 "/>
</g>
</defs>
<g id="surface1">
<path style=" stroke:none;fill-rule:nonzero;fill:rgb(93.72549%,93.333333%,91.764706%);fill-opacity:1;" d="M 14.417969 21.480469 C 14.417969 22.871094 13.289062 24 11.898438 24 C 10.503906 24 9.375 22.871094 9.375 21.480469 C 9.375 20.085938 10.503906 18.957031 11.898438 18.957031 C 13.289062 18.957031 14.417969 20.085938 14.417969 21.480469 Z M 14.417969 21.480469 "/>
<path style=" stroke:none;fill-rule:nonzero;fill:rgb(100%,100%,100%);fill-opacity:1;" d="M 20.554688 18.570312 C 18.15625 16.429688 17.949219 15.195312 17.410156 9.472656 C 16.851562 3.601562 12.496094 3.445312 12 3.445312 C 11.503906 3.445312 7.148438 3.601562 6.589844 9.472656 C 6.050781 15.195312 5.84375 16.429688 3.445312 18.570312 C 3.167969 18.816406 2.894531 19.0625 2.894531 19.433594 L 2.894531 20.898438 C 2.894531 21.425781 3.324219 21.851562 3.851562 21.851562 L 20.148438 21.851562 C 20.675781 21.851562 21.105469 21.425781 21.105469 20.898438 L 21.105469 19.433594 C 21.105469 19.0625 20.832031 18.816406 20.554688 18.570312 Z M 20.554688 18.570312 "/>
<use xlink:href="#surface5" mask="url(#mask0)"/>
<path style=" stroke:none;fill-rule:nonzero;fill:rgb(100%,100%,100%);fill-opacity:1;" d="M 12 0 C 10.773438 0 9.777344 0.992188 9.777344 2.222656 C 9.773438 3.449219 10.769531 4.445312 11.996094 4.445312 C 13.226562 4.445312 14.222656 3.449219 14.222656 2.222656 C 14.222656 0.996094 13.226562 0 12 0 Z M 12 3.269531 C 11.421875 3.269531 10.953125 2.800781 10.953125 2.222656 C 10.953125 1.644531 11.421875 1.175781 12 1.175781 C 12.578125 1.175781 13.046875 1.644531 13.046875 2.222656 C 13.046875 2.800781 12.578125 3.269531 12 3.269531 Z M 12 3.269531 "/>
</g>
</svg>
