<svg id="Capa_1" enable-background="new 0 0 512.006 512.006" height="512" viewBox="0 0 512.006 512.006" width="512" xmlns="http://www.w3.org/2000/svg"><g><path d="m306.016 320.989c-45.515 0-85.438 23.943-107.862 59.92-13.897-9.664-30.784-15.329-48.994-15.329h-2.833c-47.452 0-85.92 38.468-85.92 85.92h293.275v-130.511z" fill="#a4fcc4"/><g fill="#020288"><path d="m353.683 144.916h-293.275c-5.522 0-10 4.478-10 10v296.279c0 5.522 4.478 10 10 10h293.275c5.522 0 10-4.478 10-10v-296.279c0-5.523-4.477-10-10-10zm-10 296.279h-273.275v-276.279h273.275z"/><path d="m163.458 306.826c26.503 0 48.065-21.563 48.065-48.065 0-26.504-21.563-48.066-48.065-48.066-26.504 0-48.066 21.563-48.066 48.066-.001 26.503 21.562 48.065 48.066 48.065zm0-76.132c15.476 0 28.065 12.591 28.065 28.066s-12.59 28.065-28.065 28.065-28.066-12.59-28.066-28.065 12.59-28.066 28.066-28.066z"/><path d="m501.638 70.729c-5.688-7.987-14.146-13.281-23.815-14.906l-328.954-55.305c-9.671-1.629-19.394.61-27.381 6.299s-13.281 14.146-14.906 23.815l-10.672 63.473h-55.65c-20.242 0-36.71 16.468-36.71 36.709v344.482c0 20.241 16.468 36.709 36.71 36.709h333.57c20.242 0 36.71-16.468 36.71-36.709v-35.51s7.369 1.141 9.415 1.141c7.566 0 14.93-2.34 21.217-6.817 7.987-5.688 13.281-14.146 14.91-23.835l51.856-312.165c1.626-9.67-.611-19.394-6.3-27.381zm-111.097 404.568c0 9.213-7.496 16.709-16.71 16.709h-333.571c-9.214 0-16.71-7.496-16.71-16.709v-344.483c0-9.213 7.496-16.709 16.71-16.709h333.57c9.214 0 16.71 7.496 16.71 16.709v344.483zm97.671-380.484-51.855 312.166c-.74 4.401-3.149 8.251-6.785 10.84-3.608 2.569-7.995 3.594-12.36 2.885l-6.67-1.287v-288.603c0-20.241-16.468-36.709-36.71-36.709h-257.642l10.114-60.157c.74-4.4 3.149-8.251 6.785-10.84 3.636-2.59 8.063-3.605 12.463-2.867l328.955 55.305c4.401.74 8.251 3.149 10.84 6.785 2.59 3.636 3.608 8.061 2.865 12.482z"/></g></g></svg>