<svg width="24" height="24" viewBox="0 0 24 24" fill="none" xmlns="http://www.w3.org/2000/svg">
<path d="M12.0011 12C12.99 12 13.9567 11.7068 14.7789 11.1573C15.6012 10.6079 16.242 9.82705 16.6205 8.91342C16.9989 7.99979 17.0979 6.99446 16.905 6.02455C16.7121 5.05465 16.2359 4.16373 15.5366 3.46447C14.8374 2.76521 13.9464 2.289 12.9765 2.09608C12.0066 1.90315 11.0013 2.00217 10.0877 2.3806C9.17404 2.75904 8.39314 3.39991 7.84374 4.22215C7.29433 5.0444 7.00108 6.0111 7.00108 7C7.00108 8.32608 7.52787 9.59785 8.46555 10.5355C9.40323 11.4732 10.675 12 12.0011 12V12ZM12.0011 4C12.5944 4 13.1744 4.17595 13.6678 4.50559C14.1611 4.83524 14.5457 5.30377 14.7727 5.85195C14.9998 6.40013 15.0592 7.00333 14.9434 7.58527C14.8277 8.16722 14.542 8.70177 14.1224 9.12132C13.7028 9.54088 13.1683 9.8266 12.5864 9.94236C12.0044 10.0581 11.4012 9.9987 10.853 9.77164C10.3049 9.54458 9.83632 9.16006 9.50668 8.66671C9.17703 8.17337 9.00108 7.59335 9.00108 7C9.00108 6.20435 9.31715 5.44129 9.87976 4.87868C10.4424 4.31607 11.2054 4 12.0011 4V4ZM21.0011 21C21.0011 18.73 17.8011 14 12.0011 14C6.20108 14 3.00108 18.74 3.00108 21C2.97456 21.2652 3.05448 21.5301 3.22327 21.7364C3.39205 21.9427 3.63587 22.0735 3.90108 22.1C4.1663 22.1265 4.43119 22.0466 4.63748 21.8778C4.84377 21.709 4.97456 21.4652 5.00108 21.2C5.40748 19.6692 6.32103 18.3214 7.59247 17.3769C8.86392 16.4324 10.4181 15.947 12.0011 16C13.5841 15.947 15.1382 16.4324 16.4097 17.3769C17.6811 18.3214 18.5947 19.6692 19.0011 21.2C19.0276 21.4652 19.1584 21.709 19.3647 21.8778C19.571 22.0466 19.8359 22.1265 20.1011 22.1C20.3663 22.0735 20.6101 21.9427 20.7789 21.7364C20.9477 21.5301 21.0276 21.2652 21.0011 21V21Z" fill="#333333"/>
</svg>
