<svg width="24" height="24" viewBox="0 0 24 24" fill="none" xmlns="http://www.w3.org/2000/svg">
<path d="M12.5508 22.2008H11.4508C10.852 22.1977 10.2761 21.9699 9.83722 21.5625C9.39834 21.155 9.12838 20.5977 9.08078 20.0008V19.8808L8.51078 19.6408L8.42078 19.7208C7.99104 20.0937 7.43971 20.2964 6.87078 20.2908C6.55914 20.2919 6.25034 20.2315 5.96206 20.1131C5.67379 19.9947 5.41169 19.8206 5.19078 19.6008L4.41078 18.8208C4.19096 18.5999 4.01687 18.3378 3.89847 18.0495C3.78007 17.7612 3.71969 17.4524 3.72078 17.1408C3.71516 16.5718 3.91791 16.0205 4.29078 15.5908L4.37078 15.5008L4.13078 14.9308H4.00078C3.40384 14.8832 2.84652 14.6132 2.43911 14.1743C2.0317 13.7354 1.8039 13.1596 1.80078 12.5608V11.4608C1.80139 10.8602 2.02808 10.2819 2.43573 9.8409C2.84338 9.3999 3.40213 9.12852 4.00078 9.08078H4.12078L4.36078 8.51078L4.28078 8.42078C3.90791 7.99104 3.70516 7.43971 3.71078 6.87078C3.70837 6.55746 3.76811 6.24677 3.88654 5.95669C4.00498 5.6666 4.17976 5.40288 4.40078 5.18078L5.18078 4.40078C5.40169 4.18096 5.66379 4.00687 5.95206 3.88847C6.24034 3.77007 6.54914 3.70969 6.86078 3.71078C7.42971 3.70516 7.98104 3.90791 8.41078 4.28078L8.50078 4.36078L9.07078 4.12078V4.00078C9.11838 3.40384 9.38834 2.84652 9.82722 2.43911C10.2661 2.0317 10.842 1.8039 11.4408 1.80078H12.5408C13.1413 1.80139 13.7197 2.02808 14.1607 2.43573C14.6017 2.84338 14.873 3.40213 14.9208 4.00078V4.12078L15.4908 4.36078L15.5808 4.28078C16.0105 3.90791 16.5618 3.70516 17.1308 3.71078C17.4424 3.70969 17.7512 3.77007 18.0395 3.88847C18.3278 4.00687 18.5899 4.18096 18.8108 4.40078L19.5908 5.18078C19.8106 5.40169 19.9847 5.66379 20.1031 5.95206C20.2215 6.24034 20.2819 6.54914 20.2808 6.86078C20.2864 7.42971 20.0837 7.98104 19.7108 8.41078L19.6308 8.50078L19.8708 9.07078H20.0008C20.5977 9.11838 21.155 9.38834 21.5625 9.82722C21.9699 10.2661 22.1977 10.842 22.2008 11.4408V12.5408C22.2002 13.1413 21.9735 13.7197 21.5658 14.1607C21.1582 14.6017 20.5994 14.873 20.0008 14.9208H19.8808L19.6408 15.4908L19.7208 15.5808C20.0937 16.0105 20.2964 16.5618 20.2908 17.1308C20.2919 17.4424 20.2315 17.7512 20.1131 18.0395C19.9947 18.3278 19.8206 18.5899 19.6008 18.8108L18.8208 19.5908C18.3756 20.0375 17.7714 20.2892 17.1408 20.2908C16.5707 20.2927 16.0195 20.0865 15.5908 19.7108L15.5008 19.6308L14.9308 19.8708V20.0008C14.883 20.5994 14.6117 21.1582 14.1707 21.5658C13.7297 21.9735 13.1513 22.2002 12.5508 22.2008V22.2008ZM8.43078 17.5808C8.62637 17.5869 8.81934 17.6275 9.00078 17.7008L10.0008 18.1208C10.279 18.2297 10.5206 18.4153 10.6976 18.656C10.8746 18.8968 10.9797 19.1827 11.0008 19.4808V19.8508C11.0083 19.9463 11.0517 20.0354 11.1222 20.1003C11.1926 20.1652 11.285 20.2011 11.3808 20.2008H12.4808C12.5766 20.2011 12.6689 20.1652 12.7394 20.1003C12.8099 20.0354 12.8532 19.9463 12.8608 19.8508V19.4808C12.8818 19.1827 12.9869 18.8968 13.1639 18.656C13.3409 18.4153 13.5826 18.2297 13.8608 18.1208L14.8608 17.7008C15.0547 17.6227 15.2617 17.582 15.4708 17.5808C15.8399 17.5875 16.1945 17.7258 16.4708 17.9708L16.7508 18.2108C16.8223 18.2747 16.9149 18.3101 17.0108 18.3101C17.1067 18.3101 17.1993 18.2747 17.2708 18.2108L18.0508 17.4308C18.1147 17.3593 18.1501 17.2667 18.1501 17.1708C18.1501 17.0748 18.1147 16.9823 18.0508 16.9108L18.0008 16.6108C17.7558 16.3345 17.6175 15.9799 17.6108 15.6108C17.6024 15.4036 17.6329 15.1967 17.7008 15.0008L18.1208 14.0008C18.2317 13.7239 18.4179 13.4835 18.6582 13.3068C18.8985 13.1301 19.1834 13.0241 19.4808 13.0008H19.8508C19.9463 12.9932 20.0354 12.9499 20.1003 12.8794C20.1652 12.8089 20.2011 12.7166 20.2008 12.6208V11.5208C20.2011 11.425 20.1652 11.3326 20.1003 11.2622C20.0354 11.1917 19.9463 11.1483 19.8508 11.1408H19.4808C19.1841 11.1191 18.8998 11.0136 18.6608 10.8365C18.4218 10.6595 18.238 10.4182 18.1308 10.1408L17.7008 9.00078C17.6227 8.80682 17.582 8.59986 17.5808 8.39078C17.5875 8.02164 17.7258 7.66703 17.9708 7.39078L18.2108 7.11078C18.2747 7.03928 18.3101 6.94671 18.3101 6.85078C18.3101 6.75485 18.2747 6.66228 18.2108 6.59078L17.4308 5.81078C17.3593 5.74683 17.2667 5.71147 17.1708 5.71147C17.0748 5.71147 16.9823 5.74683 16.9108 5.81078L16.6108 6.00078C16.3345 6.24573 15.9799 6.38403 15.6108 6.39078C15.4036 6.39914 15.1967 6.36861 15.0008 6.30078L14.0008 5.88078C13.7226 5.77184 13.4809 5.58624 13.3039 5.34552C13.1269 5.1048 13.0218 4.81883 13.0008 4.52078V4.15078C12.9932 4.05529 12.9499 3.96617 12.8794 3.90127C12.8089 3.83637 12.7166 3.80048 12.6208 3.80078H11.5208C11.425 3.80048 11.3326 3.83637 11.2622 3.90127C11.1917 3.96617 11.1483 4.05529 11.1408 4.15078V4.52078C11.1186 4.81849 11.013 5.10393 10.8362 5.34445C10.6593 5.58496 10.4183 5.77083 10.1408 5.88078L9.00078 6.30078C8.80682 6.37884 8.59986 6.41955 8.39078 6.42078C8.02164 6.41403 7.66703 6.27573 7.39078 6.03078L7.11078 5.79078C7.03928 5.72683 6.94671 5.69147 6.85078 5.69147C6.75485 5.69147 6.66228 5.72683 6.59078 5.79078L5.81078 6.57078C5.74683 6.64228 5.71147 6.73485 5.71147 6.83078C5.71147 6.92671 5.74683 7.01928 5.81078 7.09078L6.00078 7.39078C6.24573 7.66703 6.38403 8.02164 6.39078 8.39078C6.39914 8.59795 6.36861 8.80485 6.30078 9.00078L5.88078 10.0008C5.76984 10.2777 5.5837 10.518 5.34339 10.6947C5.10308 10.8714 4.81815 10.9774 4.52078 11.0008H4.15078C4.05529 11.0083 3.96617 11.0517 3.90127 11.1222C3.83637 11.1926 3.80048 11.285 3.80078 11.3808V12.4808C3.80048 12.5766 3.83637 12.6689 3.90127 12.7394C3.96617 12.8099 4.05529 12.8532 4.15078 12.8608H4.52078C4.81815 12.8841 5.10308 12.9901 5.34339 13.1668C5.5837 13.3435 5.76984 13.5839 5.88078 13.8608L6.30078 14.8608C6.37884 15.0547 6.41955 15.2617 6.42078 15.4708C6.41403 15.8399 6.27573 16.1945 6.03078 16.4708L5.79078 16.7508C5.72683 16.8223 5.69147 16.9149 5.69147 17.0108C5.69147 17.1067 5.72683 17.1993 5.79078 17.2708L6.57078 18.0508C6.64228 18.1147 6.73485 18.1501 6.83078 18.1501C6.92671 18.1501 7.01928 18.1147 7.09078 18.0508L7.39078 18.0008C7.67286 17.7359 8.04384 17.586 8.43078 17.5808V17.5808ZM12.0008 16.0008C11.2097 16.0008 10.4363 15.7662 9.7785 15.3267C9.1207 14.8871 8.60801 14.2624 8.30526 13.5315C8.00251 12.8006 7.9233 11.9963 8.07764 11.2204C8.23198 10.4445 8.61294 9.73176 9.17235 9.17235C9.73176 8.61294 10.4445 8.23198 11.2204 8.07764C11.9963 7.9233 12.8006 8.00251 13.5315 8.30526C14.2624 8.60801 14.8871 9.1207 15.3267 9.7785C15.7662 10.4363 16.0008 11.2097 16.0008 12.0008C16.0008 13.0616 15.5794 14.0791 14.8292 14.8292C14.0791 15.5794 13.0616 16.0008 12.0008 16.0008ZM12.0008 10.0008C11.6052 10.0008 11.2185 10.1181 10.8896 10.3378C10.5607 10.5576 10.3044 10.87 10.153 11.2354C10.0016 11.6009 9.96204 12.003 10.0392 12.391C10.1164 12.7789 10.3069 13.1353 10.5866 13.415C10.8663 13.6947 11.2226 13.8852 11.6106 13.9624C11.9986 14.0395 12.4007 13.9999 12.7661 13.8485C13.1316 13.6972 13.444 13.4408 13.6637 13.1119C13.8835 12.783 14.0008 12.3963 14.0008 12.0008C14.0008 11.4703 13.7901 10.9616 13.415 10.5866C13.0399 10.2115 12.5312 10.0008 12.0008 10.0008Z" fill="#333333"/>
</svg>
