<svg width="24" height="24" viewBox="0 0 24 24" fill="none" xmlns="http://www.w3.org/2000/svg">
<path d="M12 2C10.0222 2 8.08879 2.58649 6.4443 3.6853C4.79981 4.78412 3.51809 6.3459 2.76121 8.17317C2.00433 10.0004 1.8063 12.0111 2.19215 13.9509C2.578 15.8907 3.53041 17.6725 4.92894 19.0711C6.32746 20.4696 8.10929 21.422 10.0491 21.8079C11.9889 22.1937 13.9996 21.9957 15.8268 21.2388C17.6541 20.4819 19.2159 19.2002 20.3147 17.5557C21.4135 15.9112 22 13.9778 22 12C22 10.6868 21.7413 9.38642 21.2388 8.17317C20.7363 6.95991 19.9997 5.85752 19.0711 4.92893C18.1425 4.00035 17.0401 3.26375 15.8268 2.7612C14.6136 2.25866 13.3132 2 12 2V2ZM12 20C10.4178 20 8.87104 19.5308 7.55544 18.6518C6.23985 17.7727 5.21447 16.5233 4.60897 15.0615C4.00347 13.5997 3.84504 11.9911 4.15372 10.4393C4.4624 8.88743 5.22433 7.46197 6.34315 6.34315C7.46197 5.22433 8.88743 4.4624 10.4393 4.15372C11.9911 3.84504 13.5997 4.00346 15.0615 4.60896C16.5233 5.21447 17.7727 6.23984 18.6518 7.55544C19.5308 8.87103 20 10.4177 20 12C20 14.1217 19.1572 16.1566 17.6569 17.6569C16.1566 19.1571 14.1217 20 12 20V20ZM16.42 8.58C16.2877 8.58055 16.1568 8.60735 16.0349 8.65884C15.9131 8.71034 15.8026 8.78551 15.71 8.88L10.5 14.09L8.29 11.88C8.19739 11.7855 8.08695 11.7103 7.96507 11.6588C7.84319 11.6073 7.71231 11.5805 7.58 11.58C7.31479 11.58 7.06043 11.6854 6.8729 11.8729C6.68536 12.0604 6.58 12.3148 6.58 12.58C6.58055 12.7123 6.60735 12.8432 6.65885 12.9651C6.71035 13.0869 6.78552 13.1974 6.88 13.29L10.5 16.91L17.12 10.29C17.2145 10.1974 17.2897 10.0869 17.3412 9.96507C17.3927 9.84319 17.4195 9.71231 17.42 9.58C17.42 9.31478 17.3146 9.06043 17.1271 8.87289C16.9396 8.68536 16.6852 8.58 16.42 8.58V8.58Z" fill="#333333"/>
</svg>
