<?xml version="1.0" encoding="UTF-8"?>
<svg xmlns="http://www.w3.org/2000/svg" xmlns:xlink="http://www.w3.org/1999/xlink" width="24pt" height="24pt" viewBox="0 0 24 24" version="1.1">
<g id="surface1">
<path style=" stroke:none;fill-rule:nonzero;fill:rgb(98.039216%,98.039216%,98.431373%);fill-opacity:1;" d="M 12 0.398438 C 5.59375 0.398438 0.398438 5.59375 0.398438 12 C 0.398438 14.8125 1.402344 17.390625 3.066406 19.398438 C 3.84375 16.242188 6.25 13.730469 9.34375 12.796875 C 8.050781 11.9375 7.199219 10.46875 7.199219 8.800781 C 7.199219 6.148438 9.347656 4 12 4 C 14.652344 4 16.800781 6.148438 16.800781 8.800781 C 16.800781 10.46875 15.949219 11.9375 14.65625 12.796875 C 17.75 13.730469 20.15625 16.242188 20.933594 19.398438 C 22.597656 17.390625 23.601562 14.8125 23.601562 12 C 23.601562 5.59375 18.40625 0.398438 12 0.398438 Z M 12 0.398438 "/>
<path style=" stroke:none;fill-rule:nonzero;fill:rgb(40%,38.039216%,90.588235%);fill-opacity:1;" d="M 14.65625 12.796875 C 15.949219 11.9375 16.800781 10.46875 16.800781 8.800781 C 16.800781 6.148438 14.652344 4 12 4 C 9.347656 4 7.199219 6.148438 7.199219 8.800781 C 7.199219 10.46875 8.050781 11.9375 9.34375 12.796875 C 6.25 13.730469 3.84375 16.242188 3.066406 19.398438 C 3.195312 19.550781 3.324219 19.703125 3.460938 19.847656 C 3.492188 19.882812 3.527344 19.917969 3.558594 19.953125 C 3.660156 20.0625 3.765625 20.167969 3.875 20.273438 C 3.917969 20.320312 3.964844 20.359375 4.007812 20.402344 C 4.109375 20.496094 4.207031 20.589844 4.308594 20.679688 C 4.359375 20.726562 4.414062 20.769531 4.464844 20.816406 C 4.5625 20.902344 4.664062 20.984375 4.769531 21.066406 C 4.824219 21.109375 4.878906 21.152344 4.933594 21.195312 C 5.039062 21.277344 5.144531 21.355469 5.253906 21.433594 C 5.308594 21.472656 5.363281 21.511719 5.417969 21.550781 C 5.53125 21.628906 5.648438 21.707031 5.765625 21.78125 C 5.816406 21.8125 5.867188 21.847656 5.921875 21.878906 C 6.054688 21.960938 6.191406 22.042969 6.332031 22.121094 C 6.367188 22.140625 6.402344 22.160156 6.4375 22.183594 C 6.617188 22.28125 6.796875 22.375 6.984375 22.460938 C 6.988281 22.464844 6.992188 22.464844 6.996094 22.46875 C 7.171875 22.550781 7.351562 22.632812 7.53125 22.707031 C 7.585938 22.730469 7.644531 22.75 7.699219 22.773438 C 7.832031 22.824219 7.960938 22.875 8.09375 22.921875 C 8.164062 22.949219 8.234375 22.972656 8.304688 22.996094 C 8.425781 23.035156 8.546875 23.074219 8.671875 23.113281 C 8.75 23.136719 8.828125 23.15625 8.90625 23.179688 C 9.023438 23.210938 9.144531 23.242188 9.261719 23.273438 C 9.34375 23.292969 9.425781 23.308594 9.507812 23.328125 C 9.628906 23.355469 9.75 23.378906 9.871094 23.402344 C 9.953125 23.417969 10.035156 23.433594 10.117188 23.445312 C 10.242188 23.464844 10.371094 23.484375 10.496094 23.5 C 10.578125 23.507812 10.65625 23.519531 10.738281 23.53125 C 10.878906 23.542969 11.019531 23.554688 11.160156 23.566406 C 11.226562 23.570312 11.296875 23.578125 11.363281 23.582031 C 11.574219 23.59375 11.785156 23.601562 12 23.601562 C 12.214844 23.601562 12.425781 23.59375 12.636719 23.582031 C 12.703125 23.578125 12.773438 23.570312 12.839844 23.566406 C 12.980469 23.554688 13.125 23.546875 13.261719 23.53125 C 13.34375 23.523438 13.421875 23.511719 13.503906 23.5 C 13.628906 23.484375 13.757812 23.464844 13.882812 23.445312 C 13.964844 23.433594 14.046875 23.417969 14.128906 23.402344 C 14.25 23.378906 14.371094 23.355469 14.492188 23.328125 C 14.574219 23.3125 14.65625 23.292969 14.738281 23.273438 C 14.855469 23.242188 14.976562 23.210938 15.09375 23.179688 C 15.171875 23.15625 15.25 23.136719 15.328125 23.113281 C 15.453125 23.078125 15.574219 23.035156 15.695312 22.996094 C 15.765625 22.972656 15.835938 22.949219 15.90625 22.925781 C 16.039062 22.875 16.167969 22.824219 16.300781 22.773438 C 16.355469 22.75 16.414062 22.730469 16.46875 22.707031 C 16.648438 22.632812 16.828125 22.554688 17 22.46875 C 17.007812 22.46875 17.011719 22.464844 17.015625 22.460938 C 17.203125 22.375 17.382812 22.28125 17.5625 22.183594 C 17.597656 22.164062 17.632812 22.140625 17.667969 22.121094 C 17.808594 22.042969 17.945312 21.964844 18.078125 21.878906 C 18.132812 21.847656 18.183594 21.8125 18.234375 21.78125 C 18.351562 21.707031 18.46875 21.628906 18.582031 21.550781 C 18.636719 21.511719 18.691406 21.472656 18.746094 21.433594 C 18.855469 21.355469 18.960938 21.277344 19.066406 21.195312 C 19.121094 21.15625 19.175781 21.113281 19.230469 21.066406 C 19.332031 20.984375 19.4375 20.902344 19.535156 20.816406 C 19.585938 20.769531 19.640625 20.726562 19.691406 20.683594 C 19.792969 20.589844 19.890625 20.496094 19.992188 20.402344 C 20.035156 20.359375 20.082031 20.320312 20.125 20.273438 C 20.234375 20.167969 20.339844 20.0625 20.441406 19.953125 C 20.472656 19.917969 20.507812 19.882812 20.539062 19.847656 C 20.675781 19.703125 20.804688 19.554688 20.933594 19.402344 C 20.933594 19.402344 20.933594 19.398438 20.933594 19.398438 C 20.15625 16.242188 17.75 13.730469 14.65625 12.796875 Z M 14.65625 12.796875 "/>
<path style=" stroke:none;fill-rule:nonzero;fill:rgb(100%,100%,100%);fill-opacity:1;" d="M 12 0 C 5.382812 0 0 5.382812 0 12 C 0 14.898438 1.03125 17.558594 2.75 19.636719 C 2.753906 19.640625 2.753906 19.648438 2.757812 19.65625 C 4 21.148438 5.554688 22.296875 7.289062 23.035156 C 7.308594 23.042969 7.328125 23.054688 7.351562 23.0625 C 7.492188 23.121094 7.632812 23.175781 7.773438 23.230469 C 7.832031 23.25 7.886719 23.273438 7.945312 23.292969 C 8.066406 23.335938 8.191406 23.378906 8.3125 23.417969 C 8.394531 23.445312 8.472656 23.46875 8.554688 23.492188 C 8.664062 23.527344 8.773438 23.558594 8.886719 23.585938 C 8.984375 23.613281 9.082031 23.636719 9.179688 23.660156 C 9.28125 23.6875 9.378906 23.710938 9.480469 23.730469 C 9.59375 23.753906 9.707031 23.777344 9.820312 23.796875 C 9.910156 23.8125 10 23.832031 10.09375 23.847656 C 10.21875 23.867188 10.34375 23.882812 10.472656 23.898438 C 10.554688 23.910156 10.636719 23.921875 10.71875 23.929688 C 10.863281 23.945312 11.007812 23.957031 11.152344 23.964844 C 11.222656 23.972656 11.289062 23.976562 11.355469 23.980469 C 11.570312 23.992188 11.785156 24 12 24 C 12.214844 24 12.429688 23.992188 12.644531 23.980469 C 12.710938 23.980469 12.78125 23.972656 12.847656 23.96875 C 12.992188 23.957031 13.136719 23.945312 13.28125 23.929688 C 13.363281 23.921875 13.445312 23.910156 13.527344 23.898438 C 13.65625 23.882812 13.78125 23.867188 13.90625 23.847656 C 14 23.832031 14.089844 23.8125 14.183594 23.796875 C 14.296875 23.777344 14.410156 23.753906 14.519531 23.730469 C 14.621094 23.710938 14.722656 23.6875 14.820312 23.664062 C 14.917969 23.636719 15.019531 23.613281 15.113281 23.589844 C 15.226562 23.558594 15.335938 23.527344 15.445312 23.492188 C 15.527344 23.46875 15.605469 23.445312 15.6875 23.417969 C 15.8125 23.378906 15.933594 23.335938 16.058594 23.292969 C 16.113281 23.273438 16.167969 23.25 16.226562 23.230469 C 16.367188 23.175781 16.511719 23.121094 16.652344 23.0625 C 16.671875 23.054688 16.691406 23.042969 16.710938 23.035156 C 18.445312 22.296875 20.003906 21.148438 21.242188 19.65625 C 21.246094 19.648438 21.246094 19.640625 21.25 19.636719 C 22.96875 17.558594 24 14.898438 24 12 C 24 5.382812 18.617188 0 12 0 Z M 14.394531 12.488281 C 14.234375 12.589844 14.070312 12.679688 13.902344 12.761719 C 13.882812 12.769531 13.863281 12.78125 13.84375 12.789062 C 12.6875 13.316406 11.3125 13.316406 10.15625 12.789062 C 10.136719 12.78125 10.117188 12.769531 10.097656 12.761719 C 9.925781 12.679688 9.765625 12.589844 9.605469 12.488281 C 8.402344 11.703125 7.601562 10.34375 7.601562 8.800781 C 7.601562 6.375 9.574219 4.398438 12 4.398438 C 14.425781 4.398438 16.398438 6.375 16.398438 8.800781 C 16.398438 10.34375 15.597656 11.703125 14.394531 12.488281 Z M 9.457031 13.332031 C 9.492188 13.351562 9.523438 13.371094 9.558594 13.386719 C 9.675781 13.453125 9.796875 13.511719 9.921875 13.5625 C 10.015625 13.605469 10.113281 13.640625 10.210938 13.675781 C 10.230469 13.683594 10.25 13.691406 10.269531 13.699219 C 10.8125 13.890625 11.394531 14 12 14 C 12.605469 14 13.1875 13.890625 13.730469 13.699219 C 13.75 13.691406 13.769531 13.683594 13.789062 13.675781 C 13.886719 13.640625 13.984375 13.605469 14.078125 13.5625 C 14.203125 13.511719 14.320312 13.453125 14.441406 13.386719 C 14.476562 13.371094 14.507812 13.351562 14.542969 13.332031 C 14.597656 13.300781 14.65625 13.269531 14.714844 13.234375 C 17.53125 14.148438 19.71875 16.445312 20.492188 19.289062 C 19.492188 20.453125 18.257812 21.414062 16.863281 22.089844 C 16.855469 22.089844 16.851562 22.09375 16.84375 22.097656 C 16.703125 22.164062 16.558594 22.230469 16.410156 22.292969 C 16.378906 22.308594 16.34375 22.320312 16.3125 22.335938 C 16.183594 22.390625 16.054688 22.441406 15.921875 22.488281 C 15.871094 22.507812 15.816406 22.53125 15.761719 22.546875 C 15.644531 22.589844 15.527344 22.628906 15.410156 22.667969 C 15.339844 22.691406 15.265625 22.710938 15.191406 22.734375 C 15.089844 22.765625 14.984375 22.796875 14.878906 22.824219 C 14.789062 22.847656 14.699219 22.867188 14.609375 22.890625 C 14.515625 22.910156 14.421875 22.933594 14.328125 22.953125 C 14.222656 22.976562 14.121094 22.996094 14.015625 23.015625 C 13.929688 23.03125 13.847656 23.046875 13.761719 23.058594 C 13.644531 23.078125 13.527344 23.09375 13.410156 23.109375 C 13.332031 23.117188 13.257812 23.128906 13.183594 23.136719 C 13.046875 23.152344 12.914062 23.160156 12.777344 23.171875 C 12.71875 23.175781 12.65625 23.179688 12.59375 23.183594 C 12.398438 23.195312 12.199219 23.199219 12 23.199219 C 11.800781 23.199219 11.601562 23.195312 11.40625 23.183594 C 11.34375 23.179688 11.285156 23.175781 11.222656 23.171875 C 11.085938 23.160156 10.953125 23.152344 10.816406 23.136719 C 10.742188 23.128906 10.667969 23.117188 10.59375 23.109375 C 10.472656 23.09375 10.355469 23.078125 10.238281 23.058594 C 10.152344 23.046875 10.070312 23.03125 9.984375 23.015625 C 9.878906 22.996094 9.777344 22.976562 9.671875 22.953125 C 9.578125 22.933594 9.484375 22.910156 9.390625 22.890625 C 9.300781 22.867188 9.210938 22.847656 9.121094 22.824219 C 9.015625 22.796875 8.914062 22.765625 8.808594 22.734375 C 8.734375 22.710938 8.660156 22.691406 8.589844 22.667969 C 8.472656 22.628906 8.355469 22.589844 8.242188 22.546875 C 8.1875 22.527344 8.132812 22.507812 8.078125 22.488281 C 7.945312 22.441406 7.816406 22.390625 7.6875 22.335938 C 7.65625 22.324219 7.625 22.308594 7.589844 22.292969 C 7.445312 22.230469 7.296875 22.164062 7.15625 22.097656 C 7.148438 22.09375 7.144531 22.089844 7.136719 22.089844 C 5.742188 21.414062 4.507812 20.453125 3.507812 19.289062 C 4.28125 16.445312 6.472656 14.148438 9.285156 13.234375 C 9.34375 13.269531 9.402344 13.300781 9.457031 13.332031 Z M 21.089844 18.527344 C 20.183594 15.851562 18.117188 13.6875 15.472656 12.660156 C 16.53125 11.707031 17.199219 10.332031 17.199219 8.800781 C 17.199219 5.933594 14.867188 3.601562 12 3.601562 C 9.132812 3.601562 6.800781 5.933594 6.800781 8.800781 C 6.800781 10.332031 7.46875 11.707031 8.527344 12.660156 C 5.882812 13.6875 3.816406 15.851562 2.910156 18.527344 C 1.582031 16.691406 0.800781 14.433594 0.800781 12 C 0.800781 5.824219 5.824219 0.800781 12 0.800781 C 18.175781 0.800781 23.199219 5.824219 23.199219 12 C 23.199219 14.433594 22.417969 16.691406 21.089844 18.527344 Z M 21.089844 18.527344 "/>
</g>
</svg>
