<svg width="24" height="24" viewBox="0 0 24 24" fill="none" xmlns="http://www.w3.org/2000/svg">
<path d="M21.79 6C21.6307 5.99884 21.4727 6.02916 21.3251 6.08923C21.1775 6.14929 21.0432 6.23791 20.93 6.35L19 8.25V7C19 6.20435 18.6839 5.44129 18.1213 4.87868C17.5587 4.31607 16.7956 4 16 4H5C4.20435 4 3.44129 4.31607 2.87868 4.87868C2.31607 5.44129 2 6.20435 2 7V17C2 17.7956 2.31607 18.5587 2.87868 19.1213C3.44129 19.6839 4.20435 20 5 20H16C16.7956 20 17.5587 19.6839 18.1213 19.1213C18.6839 18.5587 19 17.7956 19 17V15.75L20.93 17.68C21.1011 17.8462 21.3171 17.9586 21.5514 18.0033C21.7857 18.048 22.0279 18.0231 22.2482 17.9316C22.4684 17.8401 22.657 17.686 22.7906 17.4884C22.9243 17.2909 22.9971 17.0585 23 16.82V7.18C22.9922 6.86432 22.8612 6.5642 22.6352 6.34373C22.4091 6.12326 22.1058 5.9999 21.79 6V6ZM17 17C17 17.2652 16.8946 17.5196 16.7071 17.7071C16.5196 17.8946 16.2652 18 16 18H5C4.73478 18 4.48043 17.8946 4.29289 17.7071C4.10536 17.5196 4 17.2652 4 17V7C4 6.73478 4.10536 6.48043 4.29289 6.29289C4.48043 6.10536 4.73478 6 5 6H16C16.2652 6 16.5196 6.10536 16.7071 6.29289C16.8946 6.48043 17 6.73478 17 7V17ZM21 14.92L19.66 13.58C19.2447 13.159 19.0119 12.5914 19.0119 12C19.0119 11.4086 19.2447 10.841 19.66 10.42L21 9.08V14.92Z" fill="#333333"/>
</svg>
