<svg width="16" height="16" viewBox="0 0 16 16" fill="none" xmlns="http://www.w3.org/2000/svg">
<g clip-path="url(#clip0_668:35)">
<path d="M7.92578 10.4336C7.47656 10.4336 7.11328 10.7969 7.11328 11.2461C7.11328 11.6953 7.47656 12.0586 7.92578 12.0586C8.375 12.0586 8.73828 11.6953 8.73828 11.2461C8.73828 10.7969 8.375 10.4336 7.92578 10.4336ZM7.92578 11.4336C7.82031 11.4336 7.73828 11.3516 7.73828 11.2461C7.73828 11.1445 7.82031 11.0586 7.92578 11.0586C8.02734 11.0586 8.11328 11.1445 8.11328 11.2461C8.11328 11.3516 8.02734 11.4336 7.92578 11.4336Z" fill="#333333"/>
<path d="M10.4336 9.39844C10.375 9.33984 10.2969 9.30859 10.2109 9.30859C10.1289 9.30859 10.0508 9.33984 9.99219 9.39844C9.93359 9.45703 9.89844 9.53906 9.89844 9.62109C9.89844 9.70312 9.93359 9.78125 9.99219 9.83984C10.0508 9.89844 10.1289 9.93359 10.2109 9.93359C10.2969 9.93359 10.375 9.89844 10.4336 9.83984C10.4922 9.78125 10.5234 9.70312 10.5234 9.62109C10.5234 9.53906 10.4922 9.45703 10.4336 9.39844Z" fill="#333333"/>
<path d="M14.4375 4.50098H14.1016L9.69141 0.0908203C9.57031 -0.0302735 9.37109 -0.0302735 9.25 0.0908203L8.12109 1.22363L3.60547 0.0126953C3.4375 -0.0341797 3.26563 0.0673828 3.22266 0.231446L2.07812 4.50098H1.3125C0.589844 4.50098 0 5.09082 0 5.81348C0 5.8291 0 5.84863 0 5.86426C0 5.87207 0 5.88379 0 5.8916V14.4385C0 15.3018 0.699219 16.001 1.5625 16.001H12.75C12.7539 16.001 12.7578 16.001 12.7656 16.001H14.4375C15.2969 16.001 16 15.2979 16 14.4385V6.06348C16 5.2002 15.3008 4.50098 14.4375 4.50098ZM14.1562 5.12598H14.4375C14.9531 5.12598 15.375 5.54785 15.375 6.06348V8.56738C15.375 8.97754 15.043 9.30957 14.6328 9.30957H14.3125V8.06348C14.3125 7.21191 13.6289 6.52051 12.7812 6.50098L14.1562 5.12598ZM8.4375 1.79004L9.47266 0.754883L13.5586 4.84082L11.9102 6.48926H11.3359L12.0859 5.74316C12.207 5.62207 12.207 5.42285 12.0859 5.30176C11.832 5.04785 11.832 4.6377 12.0859 4.38379C12.207 4.2627 12.207 4.06348 12.0859 3.94238L10.3711 2.22754C10.25 2.10645 10.0508 2.10645 9.92969 2.22754C9.67578 2.48145 9.26562 2.48145 9.01172 2.22754C8.89062 2.10645 8.69141 2.10645 8.57031 2.22754L4.30859 6.48926H3.73828L8.4375 1.79004ZM7.51562 5.31738C6.80078 5.31738 6.20313 5.82129 6.05859 6.48926H5.19141L8.82031 2.86426C9.21875 3.10254 9.72266 3.10254 10.125 2.86426L11.4492 4.18848C11.2109 4.59082 11.2109 5.09473 11.4492 5.49316L10.4531 6.48926H8.97266C8.82813 5.82129 8.23047 5.31738 7.51562 5.31738ZM8.32031 6.48926H6.71094C6.83594 6.16895 7.14844 5.94238 7.51562 5.94238C7.88281 5.94238 8.19531 6.16895 8.32031 6.48926ZM3.40625 5.93848L4.23438 2.84863C4.46094 2.85254 4.6875 2.79395 4.88672 2.67676C5.08984 2.55957 5.25391 2.39551 5.36328 2.19629L6.76953 2.57129L4.73047 4.61426L3.40625 5.93848ZM3.74609 0.696289L7.60938 1.73145L7.28125 2.06348L5.26172 1.52051C5.17969 1.50098 5.09766 1.5127 5.02344 1.55176C4.95312 1.59473 4.89844 1.66113 4.87891 1.74316C4.83203 1.91113 4.72656 2.04785 4.57812 2.1377C4.42578 2.22363 4.25 2.24707 4.08203 2.2002C3.91797 2.15723 3.74609 2.25488 3.69922 2.42285L2.60938 6.50098H2.19141L3.74609 0.696289ZM1.3125 5.12598H1.91016L1.54297 6.50098H1.3125C0.933594 6.50098 0.625 6.19238 0.625 5.81348C0.625 5.43457 0.933594 5.12598 1.3125 5.12598ZM15.375 14.4385C15.375 14.9541 14.9531 15.376 14.4375 15.376H14C14.1953 15.1143 14.3125 14.79 14.3125 14.4385V13.1846H14.5C14.8281 13.1846 15.1289 13.0791 15.375 12.8994V14.4385ZM15.375 11.6846C15.375 12.165 14.9805 12.5596 14.5 12.5596H7.9375C7.21484 12.5596 6.625 11.9697 6.625 11.2471C6.625 10.5205 7.21484 9.93457 7.9375 9.93457H8.88281C9.05859 9.93457 9.19531 9.79395 9.19531 9.62207C9.19531 9.44629 9.05859 9.30957 8.88281 9.30957H7.9375C6.87109 9.30957 6 10.1768 6 11.2471C6 12.3135 6.87109 13.1846 7.9375 13.1846H13.6875V14.4385C13.6875 14.9502 13.2734 15.3682 12.7656 15.376H2.125V11.8564C2.125 11.6846 1.98438 11.5439 1.8125 11.5439C1.64062 11.5439 1.5 11.6846 1.5 11.8564V15.3721C1.01172 15.3408 0.625 14.9346 0.625 14.4385V6.93066C0.824219 7.05566 1.0625 7.12598 1.3125 7.12598H12.75C13.2656 7.12598 13.6875 7.54785 13.6875 8.06348V9.30957H11.4297C11.2539 9.30957 11.1172 9.44629 11.1172 9.62207C11.1172 9.79395 11.2539 9.93457 11.4297 9.93457H14.6328C14.9062 9.93457 15.1602 9.85254 15.375 9.71582V11.6846Z" fill="#333333"/>
<path d="M2.03516 10.418C1.97656 10.3594 1.89453 10.3242 1.8125 10.3242C1.73047 10.3242 1.64844 10.3594 1.58984 10.418C1.53516 10.4727 1.5 10.5547 1.5 10.6367C1.5 10.7187 1.53516 10.8008 1.58984 10.8594C1.64844 10.918 1.73047 10.9492 1.8125 10.9492C1.89453 10.9492 1.97656 10.918 2.03516 10.8594C2.08984 10.8008 2.125 10.7187 2.125 10.6367C2.125 10.5547 2.08984 10.4727 2.03516 10.418Z" fill="#333333"/>
</g>
<defs>
<clipPath id="clip0_668:35">
<rect width="16" height="16" fill="white"/>
</clipPath>
</defs>
</svg>
