<svg width="24" height="24" viewBox="0 0 24 24" fill="none" xmlns="http://www.w3.org/2000/svg">
<path d="M22.5614 18.3398C22.5635 17.869 22.4392 17.4062 22.2014 16.9998L14.3014 3.32985C14.0695 2.92463 13.7347 2.58787 13.3308 2.35366C12.9269 2.11944 12.4683 1.99609 12.0014 1.99609C11.5345 1.99609 11.0759 2.11944 10.6721 2.35366C10.2682 2.58787 9.93332 2.92463 9.70142 3.32985L1.80142 16.9998C1.56536 17.4033 1.4411 17.8624 1.44143 18.3298C1.44011 18.68 1.50794 19.027 1.64103 19.3509C1.77412 19.6747 1.96984 19.9692 2.21698 20.2172C2.46411 20.4653 2.75779 20.6621 3.08117 20.7964C3.40455 20.9307 3.75127 20.9999 4.10142 20.9998H19.9014C20.6069 20.9998 21.2835 20.7196 21.7823 20.2208C22.2812 19.7219 22.5614 19.0453 22.5614 18.3398V18.3398ZM20.5614 18.3398C20.5614 18.5149 20.4919 18.6828 20.3681 18.8065C20.2443 18.9303 20.0765 18.9998 19.9014 18.9998H4.10142C4.01475 18.9998 3.92893 18.9828 3.84885 18.9496C3.76878 18.9164 3.69602 18.8678 3.63473 18.8065C3.57345 18.7453 3.52483 18.6725 3.49166 18.5924C3.4585 18.5123 3.44143 18.4265 3.44143 18.3398C3.43854 18.2203 3.46976 18.1023 3.53142 17.9998L11.4314 4.31985C11.4932 4.22493 11.5777 4.14693 11.6772 4.09293C11.7767 4.03894 11.8882 4.01066 12.0014 4.01066C12.1147 4.01066 12.2261 4.03894 12.3257 4.09293C12.4252 4.14693 12.5097 4.22493 12.5714 4.31985L20.4714 17.9998C20.5331 18.1023 20.5643 18.2203 20.5614 18.3398V18.3398ZM12.0014 13.4998C12.2666 13.4998 12.521 13.3945 12.7085 13.207C12.8961 13.0194 13.0014 12.7651 13.0014 12.4998V8.49985C13.0014 8.23463 12.8961 7.98028 12.7085 7.79274C12.521 7.60521 12.2666 7.49985 12.0014 7.49985C11.7362 7.49985 11.4819 7.60521 11.2943 7.79274C11.1068 7.98028 11.0014 8.23463 11.0014 8.49985V12.4998C11.0014 12.7651 11.1068 13.0194 11.2943 13.207C11.4819 13.3945 11.7362 13.4998 12.0014 13.4998ZM12.0014 14.5998C11.7245 14.5998 11.4539 14.682 11.2236 14.8358C10.9934 14.9896 10.814 15.2083 10.708 15.4641C10.602 15.7199 10.5743 16.0014 10.6283 16.273C10.6823 16.5445 10.8157 16.794 11.0115 16.9898C11.2073 17.1856 11.4567 17.3189 11.7283 17.3729C11.9999 17.427 12.2814 17.3992 12.5372 17.2933C12.793 17.1873 13.0116 17.0079 13.1655 16.7776C13.3193 16.5474 13.4014 16.2767 13.4014 15.9998C13.4014 15.6285 13.2539 15.2725 12.9914 15.0099C12.7288 14.7473 12.3727 14.5998 12.0014 14.5998V14.5998Z" fill="#333333"/>
</svg>
