<svg width="729" height="599" viewBox="0 0 729 599" fill="none" xmlns="http://www.w3.org/2000/svg">
<g clip-path="url(#clip0)">
<path d="M592.675 60.1965C597.328 41.218 592.904 19.0845 577.871 6.60107C577.577 27.8489 569.777 48.308 555.851 64.3584C550.458 70.529 543.816 76.8305 543.555 85.0216C543.392 90.1183 545.88 95.0136 549.309 98.7883C552.737 102.563 557.062 105.388 561.336 108.17L561.964 109.277C575.721 95.4001 588.022 79.1751 592.675 60.1965Z" fill="#F0F0F0"/>
<path d="M577.569 6.8784C583.334 21.99 584.192 38.5341 580.019 54.1608C579.181 57.5408 577.815 60.7675 575.971 63.7221C574.083 66.5423 571.473 68.8052 568.414 70.2759C565.59 71.7044 562.535 72.8385 560.107 74.9288C558.88 76.0172 557.897 77.3528 557.222 78.8478C556.547 80.3428 556.196 81.9636 556.192 83.6038C556.074 87.6905 557.433 91.5756 558.893 95.3287C560.514 99.4958 562.264 103.798 561.889 108.361C561.844 108.914 562.704 108.952 562.749 108.4C563.401 100.462 558.01 93.7571 557.155 86.0579C556.756 82.4652 557.438 78.7306 560.094 76.1112C562.417 73.8207 565.566 72.6485 568.438 71.2268C571.443 69.8359 574.062 67.7303 576.066 65.094C578.054 62.2427 579.542 59.074 580.467 55.7235C582.669 48.2137 583.676 40.4043 583.452 32.5814C583.247 23.6518 581.515 14.8233 578.332 6.47779C578.134 5.96133 577.373 6.3653 577.569 6.87838V6.8784Z" fill="white"/>
<path d="M581.659 49.2082C584.376 49.5523 587.127 48.9195 589.42 47.4228C591.713 45.926 593.4 43.6628 594.179 41.0373C594.334 40.5055 593.515 40.2385 593.359 40.771C592.639 43.2172 591.067 45.3252 588.929 46.7147C586.791 48.1041 584.226 48.6833 581.698 48.3478C581.149 48.2756 581.113 49.1363 581.659 49.2082V49.2082Z" fill="white"/>
<path d="M569.942 69.74C566.473 65.3463 564.787 59.8065 565.221 54.2252C565.265 53.6723 564.404 53.634 564.361 54.1862C563.92 59.9951 565.686 65.7566 569.306 70.3208C569.651 70.7556 570.285 70.1725 569.942 69.74V69.74Z" fill="white"/>
<path d="M582.209 24.1295C581.13 24.2154 580.047 24.032 579.056 23.5957C578.066 23.1594 577.199 22.4839 576.534 21.6299C576.195 21.1909 575.561 21.7746 575.898 22.2107C576.637 23.1508 577.595 23.8957 578.689 24.3801C579.782 24.8646 580.977 25.0739 582.17 24.9899C582.283 24.9914 582.393 24.9497 582.476 24.8735C582.56 24.7972 582.611 24.692 582.62 24.5792C582.625 24.4652 582.584 24.3541 582.507 24.2699C582.43 24.1857 582.323 24.1352 582.209 24.1295V24.1295Z" fill="white"/>
<path d="M512.861 18.8872C513.065 19.1673 513.269 19.4475 513.471 19.7345C516.199 23.5148 518.614 27.5105 520.694 31.682C520.86 32.002 521.023 32.3287 521.18 32.6528C526.084 42.7564 529.07 53.6826 529.985 64.8762C530.346 69.3307 530.366 73.8061 530.048 78.2637C529.607 84.4199 528.639 91.0598 530.212 96.832C530.369 97.4361 530.564 98.0298 530.795 98.6098L560.564 109.957C560.644 109.949 560.723 109.947 560.804 109.939L561.971 110.447C562.004 110.218 562.033 109.98 562.065 109.751C562.085 109.619 562.097 109.484 562.117 109.351C562.128 109.262 562.138 109.172 562.153 109.093C562.157 109.063 562.16 109.033 562.161 109.01C562.176 108.93 562.182 108.854 562.194 108.781C562.358 107.452 562.514 106.119 562.66 104.782C562.663 104.775 562.663 104.775 562.659 104.766C563.873 94.5921 563.875 84.3103 562.666 74.1359C562.626 73.8328 562.589 73.523 562.535 73.2147C561.909 68.6764 560.914 64.1968 559.558 59.8207C558.808 57.4268 557.937 55.0725 556.949 52.7667C554.385 46.8138 550.9 41.3013 546.623 36.4313C538.095 26.7242 526.557 19.8527 513.834 18.9468C513.508 18.9239 513.189 18.9033 512.861 18.8872Z" fill="#F0F0F0"/>
<path d="M512.784 19.2906C526.486 27.8852 537.131 40.5786 543.208 55.5677C544.573 58.7713 545.425 62.1701 545.732 65.639C545.922 69.0279 545.201 72.4057 543.644 75.4217C542.249 78.2629 540.493 81.0076 539.812 84.1385C539.488 85.7464 539.507 87.4046 539.869 89.0045C540.23 90.6045 540.925 92.1099 541.909 93.4222C544.276 96.7558 547.7 99.0401 551.125 101.158C554.929 103.509 558.916 105.891 561.364 109.759C561.661 110.228 562.37 109.74 562.074 109.272C557.816 102.542 549.474 100.434 544.156 94.8014C541.675 92.1731 539.97 88.7811 540.514 85.0904C540.99 81.8631 542.798 79.0312 544.236 76.1666C545.798 73.2467 546.621 69.9888 546.634 66.6774C546.504 63.204 545.785 59.7781 544.506 56.5462C541.742 49.2242 537.845 42.3822 532.957 36.2708C527.416 29.2651 520.718 23.2587 513.152 18.5117C512.683 18.2181 512.319 18.999 512.784 19.2907V19.2906Z" fill="white"/>
<path d="M541.535 50.6261C543.911 49.2651 545.727 47.1037 546.656 44.5279C547.586 41.9521 547.57 39.1296 546.611 36.5644C546.416 36.0461 545.601 36.326 545.797 36.8451C546.694 39.2321 546.709 41.8613 545.838 44.2581C544.967 46.6549 543.268 48.6615 541.048 49.9157C540.566 50.1888 541.055 50.8977 541.535 50.6261Z" fill="white"/>
<path d="M544.541 74.0743C539.126 72.6548 534.445 69.2464 531.431 64.5288C531.133 64.0612 530.423 64.5486 530.72 65.0157C533.866 69.9191 538.745 73.4561 544.383 74.9209C544.921 75.0601 545.076 74.2127 544.541 74.0743V74.0743Z" fill="white"/>
<path d="M526.876 30.2708C526.066 30.989 525.09 31.4949 524.037 31.7429C522.983 31.9909 521.884 31.9734 520.839 31.6918C520.304 31.5458 520.149 32.3934 520.681 32.5384C521.837 32.8441 523.051 32.862 524.215 32.5906C525.38 32.3191 526.461 31.7666 527.362 30.9813C527.454 30.9144 527.516 30.8152 527.537 30.7041C527.557 30.5929 527.535 30.4779 527.474 30.3826C527.409 30.2889 527.31 30.2246 527.198 30.2036C527.086 30.1827 526.97 30.2069 526.876 30.2709V30.2708Z" fill="white"/>
<path d="M473.5 447.587C373.696 447.587 292.5 366.39 292.5 266.587C292.5 166.783 373.696 85.5867 473.5 85.5867C484.051 85.5854 494.583 86.4979 504.977 88.3142C505.107 88.3366 505.23 88.3843 505.342 88.4546C505.453 88.525 505.549 88.6165 505.625 88.7241C505.7 88.8317 505.754 88.9531 505.783 89.0815C505.811 89.2098 505.815 89.3426 505.792 89.4721C505.769 89.6017 505.721 89.7255 505.65 89.8364C505.58 89.9474 505.488 90.0433 505.38 90.1187C505.272 90.1941 505.151 90.2476 505.022 90.2759C504.894 90.3043 504.761 90.307 504.632 90.284C494.352 88.488 483.936 87.5855 473.5 87.5867C374.799 87.5867 294.5 167.885 294.5 266.587C294.5 365.288 374.799 445.587 473.5 445.587C572.201 445.587 652.5 365.288 652.5 266.587C652.544 221.975 635.886 178.962 605.805 146.018C605.628 145.822 605.536 145.563 605.549 145.299C605.562 145.035 605.679 144.787 605.874 144.609C606.069 144.431 606.327 144.338 606.591 144.349C606.855 144.36 607.104 144.476 607.283 144.67C637.7 177.983 654.545 221.476 654.5 266.587C654.5 366.39 573.304 447.587 473.5 447.587Z" fill="#E4E4E4"/>
<path d="M468.843 238.498L413.62 84.867L415.02 84.3635L404.864 56.1067L403.463 56.6106L386.507 9.44117C385.874 7.67944 384.9 6.05968 383.641 4.67439C382.382 3.28909 380.862 2.16539 379.168 1.36743C377.475 0.569467 375.641 0.112876 373.771 0.0237377C371.901 -0.0654003 370.032 0.214656 368.27 0.847911L268.437 36.7332C266.676 37.3664 265.056 38.3404 263.671 39.5996C262.285 40.8588 261.161 42.3785 260.363 44.072C259.565 45.7655 259.109 47.5996 259.02 49.4695C258.93 51.3395 259.21 53.2087 259.844 54.9705L271.666 87.8598L269.453 88.7119L277 108.309L278.771 107.627L280.338 111.986L278.453 112.712L286 132.309L287.444 131.753L342.18 284.027C342.81 285.791 343.782 287.413 345.041 288.8C346.299 290.188 347.82 291.313 349.514 292.111C351.208 292.91 353.044 293.366 354.915 293.453C356.786 293.54 358.656 293.258 360.417 292.621L460.249 256.736C463.805 255.453 466.706 252.813 468.317 249.394C469.928 245.975 470.117 242.056 468.843 238.498Z" fill="#3F3D56"/>
<path d="M355.167 287.557C353.761 287.554 352.391 287.118 351.241 286.309C350.092 285.499 349.219 284.355 348.743 283.033L265.538 51.5588C264.926 49.8539 265.015 47.9755 265.787 46.3367C266.56 44.6979 267.951 43.4329 269.656 42.82L290.897 35.1847L290.865 35.9279C290.811 37.218 291.074 38.5017 291.633 39.6659C292.191 40.8301 293.028 41.8391 294.068 42.604C295.108 43.3688 296.321 43.8662 297.598 44.0521C298.876 44.238 300.18 44.1068 301.395 43.6701L348.536 26.7253C349.674 26.204 350.673 25.4221 351.452 24.4429C352.232 23.4638 352.77 22.3148 353.024 21.0891C353.274 19.8838 353.236 18.6363 352.913 17.4484C352.589 16.2606 351.99 15.166 351.163 14.2541L350.665 13.7009L372.606 5.81367C374.311 5.20338 376.189 5.29418 377.827 6.06617C379.465 6.83816 380.731 8.22832 381.345 9.93181L460.73 230.778C462.35 235.302 462.109 240.284 460.061 244.631C458.013 248.978 454.324 252.335 449.803 253.966L357.482 287.151C356.74 287.419 355.956 287.556 355.167 287.557V287.557Z" fill="white"/>
<path d="M413.939 135.641L320.437 169.251C320.145 169.357 319.835 169.404 319.524 169.39C319.214 169.376 318.91 169.3 318.629 169.168C318.347 169.036 318.095 168.85 317.886 168.62C317.677 168.391 317.515 168.122 317.41 167.83C317.305 167.537 317.259 167.227 317.274 166.917C317.289 166.607 317.365 166.302 317.497 166.022C317.63 165.741 317.817 165.489 318.047 165.28C318.277 165.072 318.546 164.911 318.839 164.806L412.341 131.197C412.93 130.987 413.578 131.019 414.144 131.286C414.709 131.553 415.145 132.034 415.357 132.622C415.568 133.211 415.538 133.859 415.272 134.425C415.006 134.991 414.527 135.428 413.939 135.641V135.641Z" fill="#E6E6E6"/>
<path d="M386.172 156.952L355.417 168.007C355.125 168.113 354.815 168.16 354.504 168.145C354.194 168.131 353.89 168.055 353.609 167.923C353.328 167.791 353.075 167.605 352.866 167.375C352.657 167.146 352.496 166.877 352.391 166.585C352.286 166.293 352.239 165.982 352.254 165.672C352.269 165.362 352.345 165.058 352.478 164.777C352.61 164.496 352.797 164.244 353.027 164.036C353.257 163.827 353.526 163.666 353.819 163.562L384.574 152.506C385.164 152.295 385.813 152.325 386.38 152.592C386.947 152.859 387.384 153.341 387.596 153.93C387.808 154.52 387.777 155.169 387.51 155.736C387.243 156.302 386.762 156.74 386.172 156.952V156.952Z" fill="#E6E6E6"/>
<path d="M393.487 177.303L362.732 188.358C362.44 188.463 362.13 188.509 361.82 188.494C361.51 188.48 361.207 188.404 360.926 188.272C360.645 188.14 360.394 187.953 360.185 187.724C359.976 187.494 359.815 187.226 359.71 186.934C359.605 186.642 359.559 186.333 359.573 186.023C359.588 185.713 359.664 185.409 359.796 185.128C359.928 184.848 360.114 184.596 360.344 184.387C360.573 184.179 360.842 184.017 361.134 183.913L391.889 172.857C392.479 172.645 393.128 172.676 393.695 172.943C394.261 173.21 394.699 173.691 394.911 174.281C395.123 174.87 395.092 175.52 394.825 176.087C394.558 176.653 394.077 177.091 393.487 177.302V177.303Z" fill="#E6E6E6"/>
<path d="M397.234 187.726L366.478 198.781C366.186 198.887 365.876 198.934 365.566 198.92C365.256 198.906 364.951 198.831 364.67 198.699C364.389 198.567 364.136 198.38 363.927 198.151C363.718 197.921 363.556 197.652 363.451 197.36C363.346 197.068 363.3 196.757 363.315 196.447C363.33 196.137 363.406 195.832 363.539 195.552C363.671 195.271 363.858 195.019 364.089 194.81C364.319 194.602 364.588 194.441 364.881 194.336L395.636 183.281C395.928 183.175 396.238 183.128 396.548 183.143C396.859 183.157 397.163 183.232 397.444 183.364C397.725 183.496 397.978 183.683 398.187 183.912C398.396 184.142 398.557 184.411 398.663 184.703C398.768 184.995 398.814 185.305 398.799 185.616C398.784 185.926 398.708 186.23 398.575 186.511C398.443 186.792 398.256 187.044 398.026 187.252C397.795 187.461 397.526 187.622 397.234 187.726L397.234 187.726Z" fill="#E6E6E6"/>
<path d="M407.027 160.784L341.774 184.24C341.482 184.346 341.172 184.393 340.862 184.378C340.551 184.364 340.247 184.289 339.966 184.157C339.685 184.025 339.432 183.838 339.223 183.609C339.014 183.379 338.853 183.11 338.748 182.818C338.643 182.526 338.596 182.216 338.611 181.905C338.626 181.595 338.702 181.291 338.835 181.01C338.968 180.729 339.154 180.477 339.385 180.269C339.615 180.06 339.884 179.899 340.176 179.795L405.429 156.339C405.721 156.234 406.031 156.186 406.342 156.201C406.652 156.215 406.956 156.29 407.237 156.422C407.518 156.554 407.771 156.741 407.98 156.97C408.189 157.2 408.351 157.469 408.456 157.761C408.561 158.053 408.607 158.364 408.592 158.674C408.577 158.984 408.501 159.288 408.368 159.569C408.236 159.85 408.049 160.102 407.819 160.31C407.589 160.519 407.32 160.68 407.027 160.784V160.784Z" fill="#E6E6E6"/>
<path d="M393.883 213.029L382.716 217.043C381.714 217.403 380.61 217.35 379.647 216.896C378.684 216.441 377.941 215.624 377.581 214.622C377.221 213.62 377.273 212.516 377.727 211.553C378.18 210.589 378.998 209.846 379.999 209.485L391.166 205.471C392.168 205.111 393.272 205.164 394.235 205.619C395.198 206.073 395.941 206.891 396.302 207.892C396.662 208.894 396.609 209.998 396.156 210.961C395.702 211.925 394.885 212.669 393.883 213.029V213.029Z" fill="#6661E7"/>
<path d="M305.883 35.9334C306.74 35.9334 307.436 35.2381 307.436 34.3804C307.436 33.5227 306.74 32.8274 305.883 32.8274C305.025 32.8274 304.33 33.5227 304.33 34.3804C304.33 35.2381 305.025 35.9334 305.883 35.9334Z" fill="white"/>
<path d="M127.283 121.724C144.689 101.235 172.93 88.3234 198.967 95.0176C175.517 112.476 158.997 137.666 152.332 166.131C149.801 177.118 148.131 189.602 139.21 196.497C133.66 200.788 126.196 201.961 119.224 201.182C112.252 200.403 105.616 197.859 99.0692 195.338L97.3286 195.531C101.707 169.006 109.878 142.212 127.283 121.724Z" fill="#F0F0F0"/>
<path d="M198.901 95.578C177.406 101.334 158.272 113.716 144.215 130.967C141.123 134.626 138.627 138.751 136.82 143.188C135.199 147.567 134.78 152.3 135.606 156.896C136.291 161.197 137.49 165.516 137.117 169.909C136.893 172.154 136.197 174.327 135.074 176.284C133.951 178.242 132.428 179.94 130.603 181.267C126.141 184.693 120.715 186.311 115.354 187.709C109.402 189.261 103.194 190.779 98.4101 194.875C97.8305 195.372 97.0943 194.443 97.6731 193.948C105.997 186.821 117.818 187.426 127.09 182.171C131.417 179.72 135.031 175.949 135.809 170.876C136.49 166.44 135.258 161.985 134.527 157.636C133.655 153.165 133.891 148.547 135.214 144.188C136.79 139.673 139.123 135.46 142.112 131.728C148.709 123.218 156.603 115.799 165.504 109.742C175.625 102.772 186.863 97.5849 198.733 94.4049C199.467 94.2084 199.631 95.3827 198.901 95.578H198.901Z" fill="white"/>
<path d="M148.415 125.145C145.841 122.394 144.328 118.818 144.148 115.054C143.968 111.291 145.131 107.586 147.43 104.601C147.897 103.999 148.855 104.697 148.387 105.3C146.241 108.075 145.158 111.527 145.333 115.031C145.508 118.535 146.93 121.861 149.342 124.408C149.866 124.963 148.935 125.697 148.415 125.145H148.415Z" fill="white"/>
<path d="M134.972 154.761C142.667 155.086 150.202 152.499 156.074 147.515C156.655 147.021 157.392 147.95 156.811 148.443C150.69 153.618 142.844 156.294 134.837 155.938C134.074 155.904 134.213 154.727 134.972 154.761V154.761Z" fill="white"/>
<path d="M175.929 104.313C176.703 105.585 177.781 106.645 179.066 107.398C180.351 108.15 181.802 108.572 183.29 108.625C184.054 108.649 183.914 109.826 183.156 109.802C181.512 109.736 179.909 109.268 178.487 108.44C177.066 107.612 175.869 106.448 175.001 105.05C174.908 104.925 174.866 104.77 174.884 104.615C174.902 104.461 174.977 104.319 175.096 104.218C175.219 104.121 175.376 104.077 175.532 104.094C175.688 104.112 175.83 104.191 175.929 104.313V104.313Z" fill="white"/>
<path d="M237.683 177.396C237.206 177.394 236.729 177.392 236.246 177.398C229.833 177.406 223.431 177.934 217.103 178.979C216.613 179.052 216.117 179.133 215.63 179.22C200.412 181.899 185.825 187.379 172.608 195.383C167.352 198.573 162.346 202.158 157.633 206.107C151.126 211.561 144.504 217.993 136.801 220.894C136.001 221.205 135.182 221.467 134.349 221.678L97.6992 197.639C97.6433 197.543 97.5816 197.455 97.5253 197.358L96.0181 196.465C96.2469 196.244 96.4889 196.02 96.7177 195.8C96.8499 195.671 96.9903 195.548 97.1225 195.419C97.2132 195.335 97.3044 195.252 97.3814 195.171C97.4115 195.143 97.442 195.115 97.4666 195.095C97.5437 195.014 97.6239 194.947 97.6955 194.874C99.045 193.619 100.406 192.371 101.778 191.13C101.783 191.122 101.783 191.122 101.797 191.119C112.274 181.69 123.631 173.054 135.937 166.416C136.308 166.216 136.683 166.008 137.07 165.82C142.634 162.858 148.43 160.357 154.402 158.34C157.675 157.246 161.001 156.318 164.368 155.561C173.072 153.62 182.027 153.06 190.905 153.902C208.602 155.584 225.564 162.906 236.832 176.36C237.12 176.704 237.4 177.043 237.683 177.396Z" fill="#F0F0F0"/>
<path d="M237.295 177.807C216.667 169.462 193.934 167.828 172.325 173.138C167.653 174.199 163.177 175.989 159.062 178.444C155.131 180.964 151.947 184.491 149.84 188.658C147.798 192.504 146.154 196.675 143.212 199.958C141.681 201.616 139.817 202.931 137.742 203.818C135.667 204.705 133.428 205.144 131.172 205.105C125.548 205.154 120.241 203.179 115.119 201.068C109.431 198.723 103.561 196.198 97.275 196.588C96.5133 196.635 96.4845 195.451 97.245 195.404C108.181 194.725 117.256 202.324 127.823 203.712C132.754 204.359 137.909 203.525 141.585 199.943C144.8 196.811 146.499 192.512 148.533 188.599C150.529 184.504 153.497 180.96 157.178 178.276C161.155 175.62 165.554 173.66 170.188 172.48C180.578 169.657 191.348 168.486 202.102 169.009C214.379 169.537 226.475 172.162 237.867 176.769C238.572 177.055 237.995 178.091 237.295 177.807L237.295 177.807Z" fill="white"/>
<path d="M179.183 171.019C178.784 167.272 179.73 163.506 181.851 160.393C183.973 157.279 187.133 155.022 190.765 154.022C191.501 153.823 191.846 154.957 191.109 155.157C187.725 156.081 184.782 158.184 182.812 161.087C180.842 163.991 179.975 167.502 180.367 170.989C180.451 171.747 179.266 171.772 179.183 171.019V171.019Z" fill="white"/>
<path d="M150.619 186.572C156.567 191.464 164.141 193.935 171.83 193.491C172.592 193.447 172.621 194.631 171.86 194.676C163.858 195.122 155.982 192.535 149.803 187.43C149.214 186.943 150.034 186.087 150.619 186.572H150.619Z" fill="white"/>
<path d="M213.693 170.95C213.546 172.432 213.768 173.927 214.341 175.302C214.914 176.676 215.819 177.887 216.976 178.825C217.57 179.304 216.75 180.16 216.159 179.684C214.886 178.641 213.888 177.303 213.252 175.786C212.616 174.269 212.36 172.619 212.509 170.98C212.51 170.825 212.57 170.675 212.677 170.563C212.785 170.45 212.931 170.382 213.086 170.373C213.243 170.37 213.395 170.429 213.508 170.537C213.622 170.645 213.689 170.794 213.693 170.95V170.95Z" fill="white"/>
<path d="M649.649 515.514C668.628 520.167 690.761 515.743 703.245 500.71C681.997 500.416 661.538 492.616 645.488 478.69C639.317 473.296 633.015 466.655 624.824 466.394C619.728 466.231 614.832 468.719 611.058 472.147C607.283 475.576 604.458 479.901 601.676 484.175L600.569 484.802C614.446 498.56 630.671 510.861 649.649 515.514Z" fill="#F0F0F0"/>
<path d="M702.968 500.407C687.856 506.173 671.312 507.03 655.685 502.858C652.305 502.019 649.078 500.653 646.124 498.81C643.304 496.921 641.041 494.312 639.57 491.253C638.142 488.428 637.007 485.373 634.917 482.945C633.829 481.718 632.493 480.735 630.998 480.06C629.503 479.385 627.882 479.034 626.242 479.03C622.155 478.913 618.27 480.271 614.517 481.731C610.35 483.352 606.047 485.102 601.485 484.727C600.932 484.682 600.894 485.542 601.446 485.588C609.384 486.24 616.089 480.849 623.788 479.994C627.381 479.595 631.115 480.276 633.735 482.932C636.025 485.255 637.197 488.404 638.619 491.277C640.01 494.282 642.116 496.901 644.752 498.904C647.603 500.892 650.772 502.38 654.122 503.305C661.632 505.507 669.442 506.515 677.264 506.291C686.194 506.085 695.023 504.353 703.368 501.17C703.885 500.973 703.481 500.211 702.967 500.407H702.968Z" fill="white"/>
<path d="M660.638 504.497C660.294 507.214 660.927 509.965 662.423 512.258C663.92 514.552 666.183 516.238 668.809 517.017C669.341 517.173 669.608 516.354 669.075 516.198C666.629 515.477 664.521 513.906 663.132 511.767C661.742 509.629 661.163 507.064 661.498 504.536C661.571 503.987 660.71 503.951 660.638 504.497V504.497Z" fill="white"/>
<path d="M640.106 492.78C644.5 489.311 650.039 487.626 655.621 488.06C656.174 488.103 656.212 487.243 655.66 487.199C649.851 486.758 644.089 488.524 639.525 492.144C639.09 492.49 639.673 493.124 640.106 492.78H640.106Z" fill="white"/>
<path d="M685.716 505.048C685.63 503.969 685.814 502.885 686.25 501.895C686.686 500.904 687.362 500.038 688.216 499.373C688.655 499.033 688.071 498.399 687.635 498.737C686.695 499.476 685.95 500.434 685.466 501.527C684.981 502.62 684.772 503.816 684.856 505.009C684.855 505.122 684.896 505.231 684.972 505.315C685.049 505.398 685.154 505.45 685.267 505.458C685.381 505.463 685.492 505.422 685.576 505.345C685.66 505.269 685.711 505.162 685.716 505.048V505.048Z" fill="white"/>
<path d="M690.959 435.7C690.679 435.904 690.399 436.108 690.112 436.31C686.331 439.037 682.336 441.453 678.164 443.533C677.844 443.699 677.517 443.862 677.193 444.019C667.09 448.923 656.164 451.909 644.97 452.824C640.516 453.184 636.04 453.205 631.583 452.886C625.426 452.446 618.786 451.478 613.014 453.051C612.41 453.208 611.816 453.403 611.236 453.633L599.889 483.403C599.898 483.483 599.899 483.562 599.907 483.642L599.399 484.81C599.628 484.843 599.866 484.872 600.095 484.904C600.227 484.924 600.363 484.936 600.495 484.956C600.584 484.967 600.674 484.977 600.754 484.992C600.783 484.996 600.813 484.999 600.836 485C600.916 485.015 600.992 485.02 601.065 485.033C602.395 485.197 603.728 485.353 605.064 485.499C605.071 485.502 605.071 485.502 605.08 485.498C615.254 486.711 625.536 486.714 635.71 485.505C636.013 485.465 636.323 485.427 636.632 485.374C641.17 484.748 645.649 483.752 650.026 482.397C652.419 481.647 654.774 480.776 657.08 479.788C663.032 477.224 668.545 473.739 673.415 469.462C683.122 460.934 689.994 449.396 690.899 436.672C690.922 436.347 690.943 436.028 690.959 435.7Z" fill="#F0F0F0"/>
<path d="M690.555 435.623C681.961 449.325 669.267 459.97 654.278 466.047C651.075 467.412 647.676 468.264 644.207 468.571C640.818 468.761 637.44 468.04 634.424 466.483C631.583 465.088 628.838 463.332 625.707 462.651C624.1 462.327 622.441 462.346 620.841 462.707C619.241 463.069 617.736 463.764 616.424 464.748C613.09 467.115 610.806 470.539 608.688 473.964C606.337 477.767 603.955 481.755 600.087 484.203C599.618 484.499 600.106 485.209 600.574 484.913C607.304 480.655 609.412 472.313 615.044 466.995C617.673 464.514 621.065 462.809 624.755 463.353C627.983 463.828 630.815 465.637 633.679 467.075C636.599 468.637 639.857 469.46 643.169 469.473C646.642 469.343 650.068 468.624 653.3 467.345C660.622 464.581 667.464 460.684 673.575 455.795C680.581 450.255 686.587 443.557 691.334 435.991C691.628 435.522 690.847 435.158 690.555 435.623H690.555Z" fill="white"/>
<path d="M659.22 464.374C660.581 466.75 662.742 468.565 665.318 469.495C667.894 470.425 670.717 470.409 673.282 469.45C673.8 469.255 673.52 468.44 673.001 468.636C670.614 469.533 667.985 469.548 665.588 468.677C663.191 467.806 661.185 466.107 659.93 463.887C659.657 463.405 658.949 463.894 659.22 464.374Z" fill="white"/>
<path d="M635.772 467.38C637.192 461.965 640.6 457.284 645.318 454.27C645.785 453.971 645.298 453.261 644.831 453.559C639.927 456.705 636.39 461.584 634.926 467.222C634.786 467.759 635.634 467.915 635.772 467.38Z" fill="white"/>
<path d="M679.575 449.714C678.857 448.904 678.351 447.929 678.103 446.875C677.855 445.822 677.873 444.723 678.154 443.678C678.3 443.142 677.453 442.988 677.308 443.52C677.002 444.676 676.984 445.889 677.256 447.054C677.527 448.218 678.08 449.299 678.865 450.201C678.932 450.292 679.031 450.354 679.142 450.375C679.253 450.396 679.368 450.373 679.464 450.313C679.557 450.248 679.622 450.148 679.643 450.036C679.663 449.924 679.639 449.808 679.575 449.714V449.714Z" fill="white"/>
<path d="M725.697 333.101L696.757 381.801L697.857 382.381L688.057 400.961L686.017 399.881L679.577 410.711L681.177 411.631L670.677 429.811L668.857 428.761L574.427 587.681C571.95 591.84 567.925 594.847 563.234 596.041C558.543 597.235 553.57 596.52 549.407 594.051L373.857 489.741C369.697 487.265 366.69 483.24 365.496 478.549C364.302 473.858 365.018 468.885 367.487 464.721L518.757 210.141C521.233 205.983 525.258 202.976 529.949 201.782C534.64 200.588 539.613 201.303 543.777 203.771L719.327 308.081C723.484 310.559 726.49 314.584 727.684 319.275C728.878 323.965 728.163 328.937 725.697 333.101V333.101Z" fill="#3F3D56"/>
<path d="M555.663 584.224L379.495 479.548C378.213 478.784 377.286 477.543 376.918 476.098C376.55 474.652 376.771 473.119 377.531 471.835L529.805 215.562C530.569 214.28 531.81 213.353 533.255 212.985C534.701 212.617 536.234 212.838 537.518 213.598L713.686 318.275C714.968 319.039 715.894 320.279 716.262 321.725C716.63 323.171 716.41 324.704 715.649 325.987L563.376 582.261C562.612 583.543 561.371 584.469 559.925 584.837C558.479 585.206 556.947 584.985 555.663 584.224Z" fill="white"/>
<path d="M628.028 261.886C628.886 261.886 629.581 261.191 629.581 260.333C629.581 259.476 628.886 258.78 628.028 258.78C627.17 258.78 626.475 259.476 626.475 260.333C626.475 261.191 627.17 261.886 628.028 261.886Z" fill="white"/>
<path d="M618.417 445.465L471.361 358.086C470.899 357.814 470.496 357.454 470.174 357.027C469.853 356.599 469.619 356.112 469.486 355.593C469.352 355.075 469.323 354.535 469.399 354.005C469.475 353.475 469.655 352.966 469.928 352.506C470.202 352.045 470.563 351.644 470.992 351.324C471.422 351.004 471.91 350.771 472.429 350.64C472.948 350.509 473.487 350.482 474.017 350.56C474.546 350.638 475.055 350.82 475.514 351.095L622.571 438.474C623.032 438.746 623.435 439.106 623.757 439.533C624.079 439.961 624.313 440.448 624.446 440.967C624.579 441.485 624.608 442.025 624.532 442.555C624.456 443.085 624.277 443.594 624.003 444.054C623.73 444.515 623.368 444.916 622.939 445.236C622.51 445.556 622.022 445.789 621.503 445.92C620.984 446.051 620.444 446.078 619.915 446C619.385 445.922 618.876 445.74 618.417 445.465H618.417Z" fill="#E6E6E6"/>
<path d="M559.698 431.925L511.327 403.184C510.868 402.911 510.467 402.551 510.147 402.123C509.827 401.695 509.595 401.209 509.463 400.691C509.331 400.174 509.303 399.635 509.379 399.107C509.455 398.578 509.635 398.07 509.908 397.611C510.181 397.152 510.541 396.751 510.969 396.431C511.397 396.111 511.883 395.879 512.401 395.747C512.918 395.615 513.457 395.587 513.985 395.663C514.514 395.74 515.022 395.92 515.481 396.192L563.852 424.934C564.311 425.207 564.712 425.567 565.032 425.995C565.352 426.422 565.584 426.909 565.716 427.426C565.848 427.944 565.876 428.482 565.8 429.011C565.723 429.539 565.544 430.047 565.271 430.507C564.998 430.966 564.638 431.366 564.21 431.686C563.782 432.006 563.296 432.238 562.778 432.37C562.261 432.502 561.723 432.53 561.194 432.454C560.666 432.378 560.157 432.198 559.698 431.925V431.925Z" fill="#E6E6E6"/>
<path d="M540.68 463.932L492.309 435.191C491.382 434.64 490.712 433.743 490.446 432.698C490.18 431.653 490.341 430.545 490.891 429.619C491.442 428.692 492.339 428.021 493.384 427.755C494.428 427.489 495.536 427.649 496.463 428.2L544.834 456.941C545.293 457.214 545.694 457.574 546.014 458.002C546.334 458.429 546.566 458.916 546.698 459.433C546.83 459.951 546.858 460.489 546.782 461.018C546.705 461.546 546.526 462.054 546.253 462.514C545.98 462.973 545.62 463.373 545.192 463.693C544.764 464.013 544.278 464.245 543.76 464.377C543.243 464.509 542.705 464.537 542.176 464.461C541.648 464.385 541.139 464.205 540.68 463.932V463.932Z" fill="#E6E6E6"/>
<path d="M530.94 480.326L482.569 451.584C482.108 451.312 481.706 450.952 481.385 450.524C481.064 450.097 480.831 449.61 480.698 449.092C480.566 448.574 480.537 448.035 480.613 447.505C480.689 446.976 480.869 446.467 481.142 446.007C481.415 445.547 481.776 445.146 482.205 444.826C482.633 444.506 483.12 444.274 483.639 444.143C484.157 444.011 484.697 443.983 485.226 444.061C485.755 444.138 486.263 444.319 486.723 444.594L535.094 473.335C535.555 473.606 535.958 473.966 536.28 474.394C536.602 474.822 536.836 475.309 536.969 475.828C537.102 476.346 537.131 476.886 537.056 477.416C536.98 477.946 536.8 478.455 536.526 478.916C536.253 479.376 535.891 479.778 535.462 480.098C535.033 480.418 534.545 480.65 534.026 480.781C533.507 480.912 532.967 480.939 532.437 480.861C531.908 480.783 531.399 480.601 530.94 480.326V480.326Z" fill="#E6E6E6"/>
<path d="M577.451 463.824L474.824 402.844C473.901 402.291 473.236 401.395 472.972 400.352C472.709 399.309 472.87 398.205 473.419 397.28C473.969 396.355 474.862 395.686 475.904 395.419C476.945 395.151 478.051 395.308 478.978 395.853L581.604 456.833C582.066 457.104 582.469 457.464 582.791 457.892C583.113 458.32 583.347 458.807 583.48 459.325C583.613 459.844 583.642 460.384 583.566 460.914C583.49 461.443 583.311 461.953 583.037 462.413C582.764 462.874 582.402 463.275 581.973 463.595C581.544 463.915 581.056 464.148 580.537 464.279C580.018 464.41 579.478 464.437 578.948 464.359C578.419 464.281 577.91 464.099 577.451 463.824V463.824Z" fill="#E6E6E6"/>
<path d="M557.89 541.755L540.327 531.319C538.753 530.381 537.615 528.857 537.164 527.081C536.713 525.305 536.985 523.422 537.921 521.847C538.857 520.272 540.38 519.133 542.156 518.68C543.931 518.226 545.814 518.497 547.39 519.431L564.954 529.867C566.53 530.804 567.67 532.328 568.122 534.105C568.575 535.882 568.303 537.766 567.366 539.343C566.429 540.919 564.905 542.059 563.128 542.511C561.35 542.964 559.467 542.692 557.89 541.755Z" fill="#6661E7"/>
<path d="M0.423828 482.606H487.605V200.557C487.602 198.444 486.762 196.418 485.267 194.924C483.773 193.43 481.747 192.589 479.634 192.587H8.39482C6.28155 192.589 4.25551 193.43 2.76118 194.924C1.26685 196.418 0.426268 198.444 0.423828 200.557V482.606Z" fill="#CACACA"/>
<path d="M472.553 203.611H15.4761V463.101H472.553V203.611Z" fill="white"/>
<path d="M6.55376e-10 474.974V509.779C-1.57581e-05 511.222 0.284166 512.65 0.836319 513.983C1.38847 515.316 2.19779 516.528 3.21805 517.548C4.23831 518.568 5.44955 519.378 6.78259 519.93C8.11564 520.482 9.54438 520.766 10.9873 520.766H190.802V589.455H188.413C188.226 589.455 188.04 589.492 187.867 589.563C187.694 589.635 187.536 589.74 187.404 589.873C187.271 590.005 187.166 590.163 187.094 590.336C187.023 590.509 186.986 590.695 186.986 590.882V595.66C186.986 595.847 187.023 596.033 187.094 596.206C187.166 596.379 187.271 596.536 187.404 596.669C187.536 596.801 187.694 596.906 187.867 596.978C188.04 597.05 188.226 597.087 188.413 597.087H300.04C300.227 597.087 300.413 597.05 300.586 596.978C300.759 596.906 300.916 596.801 301.049 596.669C301.182 596.536 301.287 596.379 301.358 596.206C301.43 596.033 301.467 595.847 301.467 595.66V590.882C301.467 590.695 301.43 590.509 301.358 590.336C301.287 590.163 301.182 590.005 301.049 589.873C300.916 589.74 300.759 589.635 300.586 589.563C300.413 589.492 300.227 589.455 300.04 589.455H297.651V520.766H477.466C478.908 520.766 480.337 520.482 481.67 519.93C483.003 519.378 484.215 518.568 485.235 517.548C486.255 516.528 487.064 515.316 487.617 513.983C488.169 512.65 488.453 511.222 488.453 509.779V474.974L6.55376e-10 474.974Z" fill="#3F3D56"/>
<path d="M333.785 360.731H262.587C261.223 360.731 259.914 360.189 258.949 359.224C257.984 358.259 257.442 356.95 257.442 355.586C257.442 354.221 257.984 352.912 258.949 351.947C259.914 350.983 261.223 350.44 262.587 350.44H333.785C335.15 350.44 336.458 350.983 337.423 351.947C338.388 352.912 338.93 354.221 338.93 355.586C338.93 356.95 338.388 358.259 337.423 359.224C336.458 360.189 335.15 360.731 333.785 360.731Z" fill="#E6E6E6"/>
<path d="M333.785 384.861H262.587C261.912 384.861 261.243 384.728 260.618 384.47C259.994 384.211 259.427 383.832 258.949 383.354C258.472 382.877 258.093 382.309 257.834 381.685C257.575 381.061 257.442 380.392 257.442 379.716C257.442 379.041 257.575 378.372 257.834 377.747C258.093 377.123 258.472 376.556 258.949 376.078C259.427 375.6 259.994 375.222 260.618 374.963C261.243 374.704 261.912 374.571 262.587 374.571H333.785C334.461 374.571 335.13 374.704 335.754 374.963C336.378 375.222 336.945 375.6 337.423 376.078C337.901 376.556 338.28 377.123 338.538 377.747C338.797 378.372 338.93 379.041 338.93 379.716C338.93 380.392 338.797 381.061 338.538 381.685C338.28 382.309 337.901 382.877 337.423 383.354C336.945 383.832 336.378 384.211 335.754 384.47C335.13 384.728 334.461 384.861 333.785 384.861V384.861Z" fill="#E6E6E6"/>
<path d="M402.81 434.266H376.958C374.638 434.266 372.412 433.344 370.772 431.704C369.131 430.063 368.209 427.837 368.209 425.517C368.209 423.197 369.131 420.971 370.772 419.331C372.412 417.69 374.638 416.768 376.958 416.768H402.81C405.13 416.768 407.355 417.69 408.996 419.331C410.637 420.971 411.559 423.197 411.559 425.517C411.559 427.837 410.637 430.063 408.996 431.704C407.355 433.344 405.13 434.266 402.81 434.266V434.266Z" fill="#6661E7"/>
<path d="M648.485 598.943H1.19066C0.875467 598.942 0.573504 598.816 0.350952 598.593C0.1284 598.37 0.00341797 598.067 0.00341797 597.752C0.00341797 597.437 0.1284 597.135 0.350952 596.911C0.573504 596.688 0.875467 596.562 1.19066 596.562H648.485C648.8 596.562 649.102 596.688 649.324 596.911C649.547 597.135 649.672 597.437 649.672 597.752C649.672 598.067 649.547 598.37 649.324 598.593C649.102 598.816 648.8 598.942 648.485 598.943V598.943Z" fill="#CACACA"/>
<path d="M243.802 198.099C244.739 198.099 245.498 197.339 245.498 196.403C245.498 195.466 244.739 194.707 243.802 194.707C242.866 194.707 242.106 195.466 242.106 196.403C242.106 197.339 242.866 198.099 243.802 198.099Z" fill="white"/>
<path d="M208.272 318V296.656H212.688L222.128 309.36V296.656H226.896V318H222.992L213.04 304.976V318H208.272ZM238.564 318.48C233.082 318.48 230.351 315.6 230.372 309.84C230.372 306.789 231.066 304.603 232.452 303.28C233.839 301.936 235.876 301.264 238.564 301.264C241.274 301.264 243.332 301.957 244.74 303.344C246.148 304.709 246.852 306.875 246.852 309.84C246.852 312.677 246.138 314.832 244.708 316.304C243.279 317.755 241.231 318.48 238.564 318.48ZM238.564 314.672C239.738 314.672 240.623 314.267 241.22 313.456C241.818 312.624 242.116 311.419 242.116 309.84C242.116 308.048 241.807 306.8 241.188 306.096C240.591 305.392 239.716 305.04 238.564 305.04C237.348 305.04 236.463 305.403 235.908 306.128C235.354 306.853 235.076 308.091 235.076 309.84C235.076 311.461 235.354 312.677 235.908 313.488C236.484 314.277 237.37 314.672 238.564 314.672ZM266.731 318.48C265.046 318.48 263.552 318.224 262.251 317.712C260.95 317.2 259.926 316.315 259.179 315.056C258.454 313.797 258.091 312.037 258.091 309.776C258.091 307.152 258.731 305.083 260.011 303.568C261.291 302.053 263.232 301.296 265.835 301.296C266.219 301.296 266.763 301.339 267.467 301.424C268.171 301.509 268.854 301.733 269.515 302.096V295.152H274.251V313.776C274.251 314.821 273.888 315.696 273.163 316.4C272.438 317.083 271.499 317.605 270.347 317.968C269.195 318.309 267.99 318.48 266.731 318.48ZM266.923 314.48C267.691 314.48 268.31 314.384 268.779 314.192C269.27 313.979 269.515 313.669 269.515 313.264V305.808C268.704 305.36 267.872 305.136 267.019 305.136C265.654 305.136 264.619 305.488 263.915 306.192C263.232 306.896 262.891 308.133 262.891 309.904C262.891 311.333 263.179 312.453 263.755 313.264C264.352 314.075 265.408 314.48 266.923 314.48ZM284.727 318.48C283.404 318.48 282.21 318.32 281.143 318C280.076 317.659 279.223 317.093 278.583 316.304C277.943 315.493 277.623 314.373 277.623 312.944C277.623 311.451 278.092 310.256 279.031 309.36C279.97 308.443 281.431 307.984 283.415 307.984C284.247 307.984 285.047 308.091 285.815 308.304C286.604 308.517 287.276 308.773 287.831 309.072V308.048C287.831 307.067 287.511 306.363 286.871 305.936C286.252 305.488 285.378 305.264 284.247 305.264C283.287 305.264 282.327 305.435 281.367 305.776C280.407 306.096 279.65 306.491 279.095 306.96V302.736C279.607 302.395 280.45 302.075 281.623 301.776C282.818 301.477 284.13 301.328 285.559 301.328C286.178 301.328 286.882 301.403 287.671 301.552C288.482 301.68 289.26 301.947 290.007 302.352C290.754 302.736 291.362 303.301 291.831 304.048C292.322 304.795 292.567 305.776 292.567 306.992L292.535 314.64C292.514 316.027 291.82 317.019 290.455 317.616C289.09 318.192 287.18 318.48 284.727 318.48ZM282.359 313.04C282.359 313.68 282.615 314.192 283.127 314.576C283.66 314.939 284.247 315.12 284.887 315.12C285.975 315.12 286.732 315.045 287.159 314.896C287.607 314.747 287.831 314.448 287.831 314V311.504C287.063 311.248 286.242 311.12 285.367 311.12C283.362 311.12 282.359 311.76 282.359 313.04ZM303.424 318.64C301.546 318.64 300.149 318.203 299.232 317.328C298.314 316.432 297.856 315.173 297.856 313.552V305.456H295.488V301.808H297.856V297.36H302.848V301.808H306.4V305.456H302.848V312.944C302.848 313.499 302.965 313.915 303.2 314.192C303.434 314.448 303.829 314.576 304.384 314.576C305.13 314.576 305.802 314.352 306.4 313.904V317.968C305.93 318.224 305.44 318.395 304.928 318.48C304.416 318.587 303.914 318.64 303.424 318.64ZM316.258 318.48C314.936 318.48 313.741 318.32 312.674 318C311.608 317.659 310.754 317.093 310.114 316.304C309.474 315.493 309.154 314.373 309.154 312.944C309.154 311.451 309.624 310.256 310.562 309.36C311.501 308.443 312.962 307.984 314.946 307.984C315.778 307.984 316.578 308.091 317.346 308.304C318.136 308.517 318.808 308.773 319.362 309.072V308.048C319.362 307.067 319.042 306.363 318.402 305.936C317.784 305.488 316.909 305.264 315.778 305.264C314.818 305.264 313.858 305.435 312.898 305.776C311.938 306.096 311.181 306.491 310.626 306.96V302.736C311.138 302.395 311.981 302.075 313.154 301.776C314.349 301.477 315.661 301.328 317.09 301.328C317.709 301.328 318.413 301.403 319.202 301.552C320.013 301.68 320.792 301.947 321.538 302.352C322.285 302.736 322.893 303.301 323.362 304.048C323.853 304.795 324.098 305.776 324.098 306.992L324.066 314.64C324.045 316.027 323.352 317.019 321.986 317.616C320.621 318.192 318.712 318.48 316.258 318.48ZM313.89 313.04C313.89 313.68 314.146 314.192 314.658 314.576C315.192 314.939 315.778 315.12 316.418 315.12C317.506 315.12 318.264 315.045 318.69 314.896C319.138 314.747 319.362 314.448 319.362 314V311.504C318.594 311.248 317.773 311.12 316.898 311.12C314.893 311.12 313.89 311.76 313.89 313.04ZM338.391 318V305.456H336.023V301.808H338.423V301.424C338.423 299.675 338.7 298.331 339.255 297.392C339.831 296.453 340.588 295.813 341.527 295.472C342.465 295.109 343.489 294.928 344.599 294.928C344.94 294.928 345.313 294.96 345.719 295.024C346.124 295.088 346.455 295.163 346.711 295.248V299.44C346.497 299.248 346.273 299.088 346.039 298.96C345.825 298.811 345.516 298.736 345.111 298.736C344.556 298.736 344.097 298.885 343.735 299.184C343.372 299.461 343.191 300.016 343.191 300.848V301.808H346.711V305.456H343.159V318H338.391ZM356.533 318.48C351.05 318.48 348.32 315.6 348.341 309.84C348.341 306.789 349.034 304.603 350.421 303.28C351.808 301.936 353.845 301.264 356.533 301.264C359.242 301.264 361.301 301.957 362.709 303.344C364.117 304.709 364.821 306.875 364.821 309.84C364.821 312.677 364.106 314.832 362.677 316.304C361.248 317.755 359.2 318.48 356.533 318.48ZM356.533 314.672C357.706 314.672 358.592 314.267 359.189 313.456C359.786 312.624 360.085 311.419 360.085 309.84C360.085 308.048 359.776 306.8 359.157 306.096C358.56 305.392 357.685 305.04 356.533 305.04C355.317 305.04 354.432 305.403 353.877 306.128C353.322 306.853 353.045 308.091 353.045 309.84C353.045 311.461 353.322 312.677 353.877 313.488C354.453 314.277 355.338 314.672 356.533 314.672ZM375.728 318.48C373.467 318.48 371.632 317.947 370.224 316.88C368.816 315.813 368.112 314.128 368.112 311.824V301.808H372.88V311.44C372.88 312.464 373.104 313.232 373.552 313.744C374.021 314.235 374.757 314.48 375.76 314.48C376.763 314.48 377.488 314.235 377.936 313.744C378.405 313.232 378.64 312.464 378.64 311.44V301.808H383.12V311.824C383.12 314.128 382.459 315.813 381.136 316.88C379.813 317.947 378.011 318.48 375.728 318.48ZM387.331 303.184C387.864 302.885 388.611 302.597 389.571 302.32C390.552 302.043 391.587 301.819 392.675 301.648C393.784 301.456 394.797 301.36 395.715 301.36C397.891 301.36 399.576 301.787 400.771 302.64C401.987 303.493 402.595 304.987 402.595 307.12V318H397.827V308.08C397.827 307.248 397.592 306.576 397.123 306.064C396.653 305.552 395.843 305.296 394.691 305.296C394.2 305.296 393.709 305.36 393.219 305.488C392.728 305.595 392.355 305.712 392.099 305.84V318H387.331V303.184ZM414.575 318.48C412.889 318.48 411.396 318.224 410.095 317.712C408.793 317.2 407.769 316.315 407.023 315.056C406.297 313.797 405.935 312.037 405.935 309.776C405.935 307.152 406.575 305.083 407.855 303.568C409.135 302.053 411.076 301.296 413.679 301.296C414.063 301.296 414.607 301.339 415.311 301.424C416.015 301.509 416.697 301.733 417.359 302.096V295.152H422.095V313.776C422.095 314.821 421.732 315.696 421.007 316.4C420.281 317.083 419.343 317.605 418.191 317.968C417.039 318.309 415.833 318.48 414.575 318.48ZM414.767 314.48C415.535 314.48 416.153 314.384 416.623 314.192C417.113 313.979 417.359 313.669 417.359 313.264V305.808C416.548 305.36 415.716 305.136 414.863 305.136C413.497 305.136 412.463 305.488 411.759 306.192C411.076 306.896 410.735 308.133 410.735 309.904C410.735 311.333 411.023 312.453 411.599 313.264C412.196 314.075 413.252 314.48 414.767 314.48Z" fill="#6661E7"/>
<path d="M121.895 370.766C146.747 370.766 166.895 350.619 166.895 325.766C166.895 300.913 146.747 280.766 121.895 280.766C97.0417 280.766 76.8945 300.913 76.8945 325.766C76.8945 350.619 97.0417 370.766 121.895 370.766Z" fill="#6661E7"/>
<g clip-path="url(#clip1)">
<path d="M115.756 344.75C115.756 343.929 115.918 343.117 116.232 342.358C116.546 341.6 117.007 340.911 117.587 340.331C118.167 339.75 118.856 339.29 119.615 338.976C120.373 338.662 121.186 338.5 122.006 338.5C122.827 338.5 123.64 338.662 124.398 338.976C125.156 339.29 125.845 339.75 126.426 340.331C127.006 340.911 127.467 341.6 127.781 342.358C128.095 343.117 128.256 343.929 128.256 344.75C128.256 346.408 127.598 347.997 126.426 349.17C125.254 350.342 123.664 351 122.006 351C120.349 351 118.759 350.342 117.587 349.17C116.415 347.997 115.756 346.408 115.756 344.75V344.75ZM116.366 307.219C116.287 306.433 116.374 305.638 116.621 304.888C116.868 304.137 117.27 303.446 117.8 302.86C118.33 302.274 118.977 301.806 119.7 301.485C120.422 301.165 121.204 300.999 121.994 300.999C122.784 300.999 123.566 301.165 124.288 301.485C125.01 301.806 125.658 302.274 126.188 302.86C126.718 303.446 127.12 304.137 127.367 304.888C127.614 305.638 127.701 306.433 127.622 307.219L125.431 329.141C125.35 329.996 124.952 330.79 124.317 331.368C123.681 331.946 122.853 332.266 121.994 332.266C121.135 332.266 120.307 331.946 119.671 331.368C119.035 330.79 118.638 329.996 118.556 329.141L116.369 307.219H116.366Z" fill="white"/>
</g>
<path d="M552.811 146.622C572.589 146.622 588.622 130.589 588.622 110.811C588.622 91.0331 572.589 75 552.811 75C533.033 75 517 91.0331 517 110.811C517 130.589 533.033 146.622 552.811 146.622Z" fill="#6661E7"/>
<g clip-path="url(#clip2)">
<path d="M548.129 123.625C548.129 123.051 548.243 122.482 548.462 121.951C548.682 121.42 549.005 120.938 549.411 120.532C549.817 120.125 550.299 119.803 550.83 119.583C551.361 119.363 551.93 119.25 552.504 119.25C553.079 119.25 553.648 119.363 554.179 119.583C554.709 119.803 555.192 120.125 555.598 120.532C556.004 120.938 556.327 121.42 556.546 121.951C556.766 122.482 556.879 123.051 556.879 123.625C556.879 124.785 556.418 125.898 555.598 126.719C554.778 127.539 553.665 128 552.504 128C551.344 128 550.231 127.539 549.411 126.719C548.59 125.898 548.129 124.785 548.129 123.625V123.625ZM548.556 97.3532C548.501 96.8028 548.562 96.2469 548.735 95.7214C548.908 95.1959 549.189 94.7125 549.56 94.3023C549.931 93.8921 550.384 93.5642 550.89 93.3398C551.395 93.1154 551.942 92.9995 552.496 92.9995C553.049 92.9995 553.596 93.1154 554.102 93.3398C554.607 93.5642 555.06 93.8921 555.431 94.3023C555.803 94.7125 556.084 95.1959 556.257 95.7214C556.43 96.2469 556.49 96.8028 556.435 97.3532L554.902 112.699C554.845 113.297 554.567 113.853 554.122 114.257C553.677 114.662 553.097 114.886 552.496 114.886C551.894 114.886 551.315 114.662 550.87 114.257C550.425 113.853 550.147 113.297 550.089 112.699L548.558 97.3532H548.556Z" fill="white"/>
</g>
<path d="M590.659 372.314C610.541 372.314 626.659 356.197 626.659 336.314C626.659 316.432 610.541 300.314 590.659 300.314C570.776 300.314 554.659 316.432 554.659 336.314C554.659 356.197 570.776 372.314 590.659 372.314Z" fill="#6661E7"/>
<g clip-path="url(#clip3)">
<path d="M579.927 345.421C580.227 344.93 580.62 344.504 581.084 344.166C581.548 343.827 582.075 343.584 582.633 343.449C583.192 343.314 583.771 343.291 584.339 343.38C584.907 343.469 585.451 343.669 585.941 343.969C586.432 344.268 586.858 344.661 587.196 345.126C587.535 345.59 587.778 346.117 587.913 346.675C588.048 347.233 588.071 347.813 587.982 348.381C587.893 348.948 587.693 349.493 587.393 349.983C586.788 350.973 585.815 351.682 584.687 351.955C583.559 352.227 582.369 352.04 581.379 351.435C580.389 350.83 579.68 349.856 579.407 348.728C579.135 347.601 579.322 346.411 579.927 345.421V345.421ZM593.989 323.225C594.229 322.727 594.571 322.284 594.993 321.926C595.414 321.568 595.906 321.302 596.437 321.145C596.967 320.989 597.525 320.945 598.073 321.017C598.622 321.089 599.149 321.276 599.621 321.564C600.093 321.853 600.5 322.237 600.814 322.692C601.129 323.147 601.344 323.663 601.447 324.207C601.55 324.75 601.538 325.309 601.411 325.848C601.285 326.386 601.047 326.892 600.713 327.333L591.403 339.628C591.042 340.109 590.515 340.438 589.925 340.552C589.334 340.665 588.722 340.554 588.209 340.24C587.696 339.927 587.318 339.433 587.15 338.856C586.981 338.279 587.033 337.659 587.297 337.119L593.991 323.226L593.989 323.225Z" fill="white"/>
</g>
<path d="M347.033 123.377C361.945 123.377 374.033 111.289 374.033 96.3772C374.033 81.4655 361.945 69.3772 347.033 69.3772C332.122 69.3772 320.033 81.4655 320.033 96.3772C320.033 111.289 332.122 123.377 347.033 123.377Z" fill="#6661E7"/>
<g clip-path="url(#clip4)">
<path d="M347.287 107.854C347.121 107.39 347.047 106.899 347.07 106.407C347.093 105.915 347.213 105.432 347.422 104.987C347.632 104.541 347.927 104.141 348.291 103.81C348.655 103.478 349.081 103.222 349.545 103.055C350.008 102.888 350.5 102.814 350.992 102.837C351.484 102.86 351.966 102.98 352.412 103.19C352.857 103.399 353.257 103.695 353.589 104.059C353.92 104.423 354.177 104.849 354.344 105.312C354.681 106.248 354.632 107.279 354.209 108.179C353.786 109.079 353.022 109.774 352.086 110.111C351.151 110.448 350.119 110.4 349.219 109.976C348.319 109.553 347.624 108.789 347.287 107.854V107.854ZM340 86.5435C339.796 86.1156 339.684 85.6497 339.67 85.1757C339.657 84.7017 339.743 84.2302 339.924 83.7916C340.104 83.353 340.374 82.957 340.716 82.6291C341.059 82.3013 341.467 82.0489 341.913 81.8882C342.359 81.7275 342.834 81.6621 343.307 81.6962C343.78 81.7303 344.24 81.8631 344.659 82.086C345.077 82.309 345.444 82.6172 345.736 82.9908C346.028 83.3643 346.239 83.7949 346.354 84.2548L349.575 97.0751C349.703 97.5744 349.64 98.1034 349.399 98.5589C349.157 99.0143 348.755 99.3634 348.27 99.5381C347.785 99.7127 347.253 99.7004 346.776 99.5034C346.3 99.3065 345.914 98.9391 345.694 98.473L340.002 86.5429L340 86.5435Z" fill="white"/>
</g>
</g>
<defs>
<clipPath id="clip0">
<rect width="728.252" height="598.943" fill="white"/>
</clipPath>
<clipPath id="clip1">
<rect width="50" height="50" fill="white" transform="translate(97 301)"/>
</clipPath>
<clipPath id="clip2">
<rect width="35" height="35" fill="white" transform="translate(535 93)"/>
</clipPath>
<clipPath id="clip3">
<rect width="35" height="35" fill="white" transform="translate(584.692 312.442) rotate(31.4271)"/>
</clipPath>
<clipPath id="clip4">
<rect width="30" height="30" fill="white" transform="translate(327.804 86.9707) rotate(-19.8087)"/>
</clipPath>
</defs>
</svg>
