<?xml version="1.0"?>
<svg xmlns="http://www.w3.org/2000/svg" xmlns:xlink="http://www.w3.org/1999/xlink" xmlns:svgjs="http://svgjs.com/svgjs" version="1.1" width="512" height="512" x="0" y="0" viewBox="0 0 512 512" style="enable-background:new 0 0 512 512" xml:space="preserve" class=""><g><path xmlns="http://www.w3.org/2000/svg" d="m256 512c-68.382812 0-132.667969-26.628906-181.019531-74.980469-48.351563-48.351562-74.980469-112.640625-74.980469-181.019531s26.628906-132.667969 74.980469-181.019531c48.351562-48.351563 112.636719-74.980469 181.019531-74.980469 68.378906 0 132.667969 26.628906 181.019531 74.980469 48.351563 48.351562 74.980469 112.640625 74.980469 181.019531s-26.628906 132.667969-74.980469 181.019531c-48.351562 48.351563-112.640625 74.980469-181.019531 74.980469zm0-482c-124.617188 0-226 101.382812-226 226s101.382812 226 226 226 226-101.382812 226-226-101.382812-226-226-226zm0 0" fill="#09426d" data-original="#09426d" style="" class=""/><path xmlns="http://www.w3.org/2000/svg" d="m224.632812 342.53125c-3.835937 0-7.675781-1.464844-10.605468-4.394531l-80.332032-80.332031c-5.859374-5.855469-5.859374-15.355469 0-21.210938 5.855469-5.859375 15.355469-5.859375 21.210938 0l69.730469 69.726562 132.457031-132.460937c5.855469-5.855469 15.355469-5.855469 21.210938 0 5.859374 5.859375 5.859374 15.355469 0 21.214844l-143.066407 143.066406c-2.925781 2.925781-6.765625 4.390625-10.605469 4.390625zm0 0" fill="#91e1ff" data-original="#91e1ff" style=""/></g></svg>
