<svg width="123" height="123" viewBox="0 0 123 123" fill="none" xmlns="http://www.w3.org/2000/svg">
<g clip-path="url(#clip0_1415_2)">
<path fill-rule="evenodd" clip-rule="evenodd" d="M104.885 17.9948C128.878 41.9888 128.878 80.8908 104.885 104.885C80.8912 128.878 41.9892 128.878 17.9952 104.885C-5.99776 80.8908 -5.99776 41.9888 17.9952 17.9948C41.9892 -5.99825 80.8912 -5.99825 104.885 17.9948ZM93.6072 57.9487C95.5352 57.9487 97.0972 59.5117 97.0972 61.4387C97.0972 63.3667 95.5342 64.9287 93.6072 64.9287H64.9302V93.6068C64.9302 95.5348 63.3672 97.0967 61.4402 97.0967C59.5132 97.0967 57.9512 95.5338 57.9512 93.6068V64.9297H29.2722C27.3442 64.9297 25.7812 63.3667 25.7812 61.4397C25.7812 59.5127 27.3442 57.9497 29.2722 57.9497H57.9502V29.2707C57.9502 27.3437 59.5132 25.7808 61.4392 25.7808C63.3672 25.7808 64.9292 27.3437 64.9292 29.2707V57.9487H93.6072Z" fill="#6661E7"/>
</g>
<defs>
<clipPath id="clip0_1415_2">
<rect width="122.879" height="122.879" fill="white"/>
</clipPath>
</defs>
</svg>
