<svg width="106" height="106" viewBox="0 0 106 106" fill="none" xmlns="http://www.w3.org/2000/svg">
<path fill-rule="evenodd" clip-rule="evenodd" d="M69.5625 23.1875C69.5625 18.7949 67.8175 14.5821 64.7115 11.476C61.6054 8.36997 57.3926 6.625 53 6.625C48.6074 6.625 44.3946 8.36997 41.2885 11.476C38.1825 14.5821 36.4375 18.7949 36.4375 23.1875V26.5H69.5625V23.1875ZM76.1875 23.1875V26.5H99.375V92.75C99.375 96.2641 97.979 99.6343 95.4942 102.119C93.0093 104.604 89.6391 106 86.125 106H19.875C16.3609 106 12.9907 104.604 10.5058 102.119C8.02098 99.6343 6.625 96.2641 6.625 92.75V26.5H29.8125V23.1875C29.8125 17.0378 32.2555 11.14 36.604 6.79146C40.9525 2.44296 46.8503 0 53 0C59.1497 0 65.0475 2.44296 69.396 6.79146C73.7445 11.14 76.1875 17.0378 76.1875 23.1875V23.1875ZM56.3125 53C56.3125 52.1215 55.9635 51.2789 55.3423 50.6577C54.7211 50.0365 53.8785 49.6875 53 49.6875C52.1215 49.6875 51.2789 50.0365 50.6577 50.6577C50.0365 51.2789 49.6875 52.1215 49.6875 53V62.9375H39.75C38.8715 62.9375 38.0289 63.2865 37.4077 63.9077C36.7865 64.5289 36.4375 65.3715 36.4375 66.25C36.4375 67.1285 36.7865 67.9711 37.4077 68.5923C38.0289 69.2135 38.8715 69.5625 39.75 69.5625H49.6875V79.5C49.6875 80.3785 50.0365 81.2211 50.6577 81.8423C51.2789 82.4635 52.1215 82.8125 53 82.8125C53.8785 82.8125 54.7211 82.4635 55.3423 81.8423C55.9635 81.2211 56.3125 80.3785 56.3125 79.5V69.5625H66.25C67.1285 69.5625 67.9711 69.2135 68.5923 68.5923C69.2135 67.9711 69.5625 67.1285 69.5625 66.25C69.5625 65.3715 69.2135 64.5289 68.5923 63.9077C67.9711 63.2865 67.1285 62.9375 66.25 62.9375H56.3125V53Z" fill="white"/>
</svg>
