<svg width="105" height="107" viewBox="0 0 105 107" fill="none" xmlns="http://www.w3.org/2000/svg">
<g clip-path="url(#clip0_641:6)">
<path d="M46.2535 0C59.014 0 70.5838 5.19392 78.97 13.537C87.3562 21.9232 92.507 33.4585 92.507 46.2535C92.507 55.5887 89.7202 64.3114 84.9749 71.5674L105 93.387L91.1869 106.009L71.878 84.7765C64.5444 89.6598 55.7268 92.5156 46.2535 92.5156C33.493 92.5156 21.9232 87.3217 13.537 78.9786C5.15941 70.5838 0 59.0485 0 46.2535C0 33.493 5.19392 21.9232 13.537 13.537C21.9232 5.15941 33.4585 0 46.2535 0ZM25.3829 36.4006H29.5588L39.7654 24.9688C40.6713 23.9507 42.2416 23.8644 43.2597 24.7703C44.2777 25.6763 44.364 27.2465 43.4581 28.2646L36.1935 36.4006H58.4532L51.1886 28.2646C50.2827 27.2465 50.3689 25.6763 51.387 24.7703C52.4051 23.8644 53.9754 23.9507 54.8813 24.9688L65.0879 36.4092H69.074H69.1257H72.8702C73.7071 36.4092 74.3973 37.0994 74.3973 37.9363V42.2416C74.3973 43.0785 73.7071 43.7687 72.8702 43.7687H69.6261L67.961 64.7946C67.9178 65.3726 67.4778 65.8558 66.8998 65.8558H27.5485C26.9704 65.8558 26.539 65.3813 26.4873 64.7946L24.8221 43.7687H21.5781C20.7412 43.7687 20.0509 43.0785 20.0509 42.2416V37.9363C20.0509 37.0994 20.7412 36.4092 21.5781 36.4092H25.3225L25.3829 36.4006ZM44.9507 44.5797V58.5222H49.8254V44.5797H44.9507ZM40.3952 58.5308V44.5797H35.6327V58.5222H40.3952V58.5308ZM54.3722 44.5797V58.5222H59.2297V44.5797H54.3722ZM75.3032 17.2038C67.8747 9.77527 57.5904 5.15941 46.2535 5.15941C34.9166 5.15941 24.6323 9.77527 17.2038 17.2038C9.77527 24.6409 5.15941 34.9166 5.15941 46.2535C5.15941 57.5904 9.77527 67.8747 17.2038 75.3032C24.6323 82.7317 34.9166 87.3476 46.2535 87.3476C57.5904 87.3476 67.8747 82.7317 75.3032 75.3032C82.7317 67.8747 87.3476 57.5904 87.3476 46.2535C87.3476 34.9166 82.7403 24.6409 75.3032 17.2038Z" fill="white"/>
</g>
<defs>
<clipPath id="clip0_641:6">
<rect width="105" height="106.018" fill="white"/>
</clipPath>
</defs>
</svg>
