<svg width="107" height="123" viewBox="0 0 107 123" fill="none" xmlns="http://www.w3.org/2000/svg">
<g clip-path="url(#clip0_205:2)">
<path d="M4.93 30.3399H27.41V25.7599C27.5429 19.0145 30.3158 12.5903 35.1332 7.86682C39.9506 3.14339 46.4283 0.497559 53.175 0.497559C59.9217 0.497559 66.3994 3.14339 71.2168 7.86682C76.0342 12.5903 78.8071 19.0145 78.94 25.7599V30.3399H101.6C102.245 30.3418 102.884 30.4707 103.479 30.7195C104.075 30.9684 104.615 31.3321 105.07 31.7899V31.7899C105.528 32.2464 105.891 32.7888 106.138 33.3861C106.385 33.9833 106.511 34.6236 106.51 35.2699V105.17C106.497 109.86 104.628 114.355 101.311 117.671C97.9947 120.988 93.5003 122.857 88.81 122.87H17.7C13.0115 122.857 8.51855 120.989 5.2023 117.675C1.88605 114.36 0.0158301 109.868 0 105.18L0 35.2799C0.000494055 34.633 0.12885 33.9924 0.377691 33.3952C0.626532 32.798 0.99095 32.2559 1.45 31.7999V31.7999C1.90473 31.3421 2.44526 30.9784 3.04067 30.7295C3.63608 30.4807 4.2747 30.3518 4.92 30.3499L4.93 30.3399ZM33.69 30.3399H72.69V25.7599C72.69 20.5882 70.6355 15.6283 66.9786 11.9714C63.3216 8.3144 58.3617 6.25994 53.19 6.25994C48.0183 6.25994 43.0584 8.3144 39.4014 11.9714C35.7445 15.6283 33.69 20.5882 33.69 25.7599V30.3399V30.3399ZM27.41 43.3399V36.6199H6.28V98.6199H100.28V36.6199H78.94V43.3799C80.1828 44.0999 81.1511 45.2123 81.6929 46.5425C82.2348 47.8726 82.3193 49.3451 81.9333 50.7285C81.5473 52.1119 80.7127 53.3279 79.5605 54.1853C78.4083 55.0428 77.0039 55.4933 75.5679 55.4658C74.1319 55.4384 72.7457 54.9346 71.6272 54.0338C70.5086 53.1329 69.721 51.8859 69.3881 50.4888C69.0553 49.0916 69.196 47.6235 69.7883 46.315C70.3805 45.0065 71.3906 43.9319 72.66 43.2599V36.6199H33.66V43.3299C34.9164 44.0259 35.906 45.1196 36.4732 46.4392C37.0405 47.7587 37.1532 49.2293 36.7938 50.6199C36.4344 52.0105 35.6231 53.2423 34.4875 54.1217C33.3519 55.0012 31.9563 55.4783 30.52 55.4783C29.0837 55.4783 27.6881 55.0012 26.5525 54.1217C25.4169 53.2423 24.6056 52.0105 24.2462 50.6199C23.8867 49.2293 23.9995 47.7587 24.5668 46.4392C25.134 45.1196 26.1236 44.0259 27.38 43.3299L27.41 43.3399Z" fill="white"/>
</g>
<defs>
<clipPath id="clip0_205:2">
<rect width="106.53" height="122.88" fill="white"/>
</clipPath>
</defs>
</svg>
