<svg width="107" height="123" viewBox="0 0 107 123" fill="none" xmlns="http://www.w3.org/2000/svg">
<g clip-path="url(#clip0_639:2)">
<path d="M4.93 30.3385H27.41V25.7585C27.5429 19.0131 30.3158 12.5888 35.1332 7.86536C39.9506 3.14193 46.4283 0.496094 53.175 0.496094C59.9217 0.496094 66.3994 3.14193 71.2168 7.86536C76.0342 12.5888 78.8071 19.0131 78.94 25.7585V30.3385H101.6C102.245 30.3403 102.884 30.4693 103.479 30.7181C104.075 30.9669 104.615 31.3306 105.07 31.7885C105.528 32.2449 105.891 32.7873 106.138 33.3846C106.385 33.9819 106.511 34.6221 106.51 35.2685V105.168C106.497 109.859 104.628 114.353 101.311 117.67C97.9947 120.986 93.5003 122.855 88.81 122.868H17.7C13.0115 122.855 8.51855 120.988 5.2023 117.673C1.88605 114.359 0.0158301 109.867 0 105.178L0 35.2785C0.000494055 34.6315 0.12885 33.991 0.377691 33.3938C0.626532 32.7965 0.99095 32.2544 1.45 31.7985C1.90473 31.3406 2.44526 30.9769 3.04067 30.7281C3.63608 30.4793 4.2747 30.3503 4.92 30.3485L4.93 30.3385ZM33.69 30.3385H72.69V25.7585C72.69 20.5868 70.6355 15.6269 66.9786 11.9699C63.3216 8.31293 58.3617 6.25848 53.19 6.25848C48.0183 6.25848 43.0584 8.31293 39.4014 11.9699C35.7445 15.6269 33.69 20.5868 33.69 25.7585V30.3385ZM27.41 43.3385V36.6185H6.28V98.6185H100.28V36.6185H78.94V43.3785C80.1828 44.0984 81.1511 45.2109 81.6929 46.541C82.2347 47.8711 82.3193 49.3436 81.9333 50.727C81.5473 52.1104 80.7127 53.3264 79.5605 54.1839C78.4083 55.0414 77.0039 55.4918 75.5679 55.4643C74.1319 55.4369 72.7457 54.9332 71.6272 54.0323C70.5086 53.1314 69.721 51.8844 69.3881 50.4873C69.0553 49.0901 69.196 47.622 69.7883 46.3135C70.3805 45.0051 71.3906 43.9304 72.66 43.2585V36.6185H33.66V43.3285C34.9164 44.0245 35.906 45.1182 36.4732 46.4377C37.0405 47.7573 37.1532 49.2279 36.7938 50.6185C36.4344 52.0091 35.6231 53.2409 34.4875 54.1203C33.3519 54.9997 31.9563 55.4769 30.52 55.4769C29.0837 55.4769 27.6881 54.9997 26.5525 54.1203C25.4169 53.2409 24.6056 52.0091 24.2462 50.6185C23.8867 49.2279 23.9995 47.7573 24.5668 46.4377C25.134 45.1182 26.1236 44.0245 27.38 43.3285L27.41 43.3385Z" fill="#333333"/>
</g>
<defs>
<clipPath id="clip0_639:2">
<rect width="106.53" height="122.88" fill="white"/>
</clipPath>
</defs>
</svg>
