<svg width="241" height="143" viewBox="0 0 241 143" fill="none" xmlns="http://www.w3.org/2000/svg">
<path d="M212.104 7.90544L8.67429 67.5154C8.38506 67.6034 8.14211 67.8017 7.998 68.0675C7.85389 68.3333 7.82023 68.6451 7.90429 68.9354L27.0343 134.205C27.0767 134.349 27.1471 134.484 27.2415 134.6C27.3359 134.717 27.4524 134.814 27.5844 134.885C27.7163 134.957 27.8611 135.002 28.0103 135.017C28.1596 135.033 28.3105 135.018 28.4543 134.975L231.924 75.3654C232.068 75.323 232.202 75.2526 232.319 75.1582C232.436 75.0638 232.533 74.9473 232.604 74.8154C232.676 74.6834 232.721 74.5387 232.736 74.3894C232.751 74.2401 232.737 74.0892 232.694 73.9454L213.514 8.67544C213.473 8.53186 213.404 8.39791 213.31 8.28132C213.217 8.16473 213.101 8.06783 212.97 7.99622C212.839 7.92461 212.695 7.87972 212.546 7.86414C212.398 7.84855 212.247 7.86259 212.104 7.90544ZM229.614 73.2054L29.1843 131.945L10.9243 69.6754L211.364 10.9354L229.614 73.2054ZM209.924 0.355443L6.46429 59.9754C4.17423 60.6479 2.24507 62.2025 1.10112 64.2972C-0.04283 66.392 -0.307872 68.8553 0.364289 71.1454L19.4943 136.465C19.8262 137.6 20.3785 138.659 21.1196 139.58C21.8606 140.501 22.776 141.267 23.8133 141.835C24.8506 142.402 25.9896 142.76 27.1651 142.887C28.3406 143.014 29.5297 142.908 30.6643 142.575L234.084 82.9554C235.219 82.6235 236.277 82.0713 237.199 81.3302C238.12 80.5891 238.886 79.6738 239.454 78.6364C240.021 77.5991 240.379 76.4601 240.506 75.2846C240.633 74.1091 240.527 72.9201 240.194 71.7854L221.064 6.46544C220.394 4.18035 218.845 2.25423 216.757 1.10899C214.669 -0.0362376 212.212 -0.307207 209.924 0.355443V0.355443ZM234.114 73.5254C234.212 73.8583 234.244 74.2073 234.207 74.5524C234.17 74.8975 234.066 75.232 233.899 75.5366C233.733 75.8413 233.508 76.1101 233.238 76.3279C232.968 76.5456 232.657 76.7079 232.324 76.8054L28.9243 136.465C28.5914 136.564 28.2424 136.595 27.8973 136.558C27.5522 136.521 27.2178 136.417 26.9131 136.251C26.6085 136.084 26.3396 135.86 26.1219 135.589C25.9042 135.319 25.7419 135.009 25.6443 134.675L6.46429 69.3554C6.26885 68.6831 6.34741 67.9608 6.6828 67.3463C7.01819 66.7317 7.58315 66.2748 8.25429 66.0754L211.684 6.46544C212.351 6.27934 213.065 6.36267 213.671 6.69749C214.277 7.03231 214.727 7.59181 214.924 8.25544L234.114 73.5254Z" fill="#FF4545"/>
<path d="M66.5041 64.7266L70.1341 77.1366L62.7541 79.3066C62.081 78.1205 61.072 77.1602 59.8541 76.5466C59.2987 76.2239 58.6845 76.0152 58.0475 75.9328C57.4105 75.8504 56.7634 75.8958 56.1441 76.0666C55.5364 76.1999 55.001 76.5569 54.6441 77.0666C54.4971 77.348 54.4105 77.657 54.3898 77.9739C54.3692 78.2907 54.4149 78.6084 54.5241 78.9066C54.6012 79.149 54.7307 79.3715 54.9036 79.5582C55.0764 79.7449 55.2883 79.8911 55.5241 79.9866C56.117 80.2412 56.7499 80.3901 57.3941 80.4266C58.1441 80.4866 58.9841 80.5166 59.9341 80.5066C60.8841 80.4966 61.9341 80.5066 62.9341 80.5766C63.9341 80.6466 65.0841 80.7166 66.1841 80.8566C68.4739 81.1805 70.6446 82.0783 72.4941 83.4666C73.5419 84.272 74.442 85.2533 75.1541 86.3666C76.0269 87.7055 76.7006 89.164 77.1541 90.6966C77.6615 92.312 77.8715 94.0061 77.7741 95.6966C77.6908 97.3518 77.3185 98.9796 76.6741 100.507C76.0316 102.029 75.066 103.394 73.8441 104.507C72.59 105.661 71.0832 106.507 69.4441 106.977C67.9897 107.449 66.4619 107.656 64.9341 107.587C63.458 107.423 62.0188 107.017 60.6741 106.387L60.4641 108.857L52.6941 111.127L49.0441 98.6766L56.8041 96.4666C57.6075 97.532 58.6862 98.3583 59.9241 98.8566C61.094 99.4237 62.4297 99.548 63.6841 99.2066C64.3445 99.0337 64.9328 98.6555 65.3641 98.1266C65.567 97.889 65.705 97.603 65.7645 97.2963C65.8241 96.9897 65.8033 96.6728 65.7041 96.3766C65.5611 95.853 65.2253 95.4028 64.7641 95.1166C64.3433 94.8459 63.8693 94.6685 63.3741 94.5966C62.8299 94.534 62.2818 94.5106 61.7341 94.5266C60.7341 94.5266 59.8041 94.5266 59.0141 94.5266C58.2241 94.5266 57.3741 94.4566 56.4641 94.3766C55.6452 94.3028 54.8308 94.186 54.0241 94.0266C53.2687 93.8704 52.5239 93.6667 51.7941 93.4166C51.0739 93.1788 50.3802 92.8671 49.7241 92.4866C49.0844 92.0884 48.482 91.6332 47.9241 91.1266C47.3131 90.602 46.7689 90.0042 46.3041 89.3466C45.7938 88.6188 45.3456 87.8494 44.9641 87.0466C44.5218 86.1149 44.1572 85.1483 43.8741 84.1566C42.7541 80.3432 42.7975 77.0332 44.0041 74.2266C45.2108 71.4199 47.5975 69.4999 51.1641 68.4666C53.804 67.5735 56.6643 67.5735 59.3041 68.4666C59.3749 67.9021 59.4886 67.3438 59.6441 66.7966L66.5041 64.7266Z" fill="#FF4545"/>
<path d="M118.254 70.8473C119.342 74.4162 119.487 78.2059 118.674 81.8473C117.891 85.3526 116.161 88.576 113.674 91.1674C111.115 93.7849 107.926 95.6998 104.413 96.7278C100.899 97.7559 97.1807 97.8625 93.6144 97.0374C90.1258 96.194 86.9342 94.4131 84.3844 91.8874C81.7297 89.2543 79.8036 85.9776 78.7944 82.3774C77.6017 78.6195 77.3951 74.6181 78.1943 70.7574C78.9402 67.2993 80.6777 64.1336 83.1943 61.6474C85.8398 59.083 89.0905 57.229 92.6444 56.2574C96.131 55.1697 99.8364 54.9839 103.414 55.7174C106.866 56.4658 110.024 58.2032 112.504 60.7174C115.261 63.5425 117.242 67.0319 118.254 70.8473V70.8473ZM101.974 88.3874C102.554 88.2219 103.098 87.9469 103.574 87.5774C103.993 87.2451 104.335 86.8253 104.574 86.3473C104.824 85.8515 105.002 85.3229 105.104 84.7773C105.216 84.1843 105.256 83.58 105.224 82.9774C105.224 82.3574 105.144 81.7173 105.054 81.0573C104.966 80.4045 104.842 79.7569 104.684 79.1174C104.524 78.4774 104.354 77.8473 104.194 77.2373C104.034 76.6273 103.864 76.0474 103.684 75.5074C103.591 75.1874 103.521 74.9474 103.474 74.7874L103.234 73.9474C103.048 73.3674 102.868 72.7574 102.694 72.1174C102.521 71.435 102.297 70.7665 102.024 70.1174C101.754 69.4574 101.474 68.8173 101.184 68.2073C100.9 67.605 100.537 67.0434 100.104 66.5374C99.7136 66.0645 99.2632 65.6443 98.7643 65.2874C98.2694 64.9493 97.6997 64.7365 97.1044 64.6673C96.4324 64.5869 95.7511 64.6482 95.1044 64.8473C94.5245 65.0115 93.979 65.2791 93.4944 65.6374C93.0819 65.9521 92.741 66.3509 92.4944 66.8073C92.2546 67.2744 92.0701 67.7677 91.9443 68.2773C91.8146 68.824 91.7608 69.386 91.7844 69.9474C91.7844 70.5174 91.8443 71.1173 91.9143 71.7373C91.9813 72.3452 92.095 72.947 92.2544 73.5374C92.4044 74.1274 92.5543 74.7073 92.6943 75.2773C92.8249 75.8158 92.9851 76.3466 93.1744 76.8674L93.4143 77.7073C93.4677 77.8673 93.5377 78.1074 93.6243 78.4274C93.7843 78.9074 93.9344 79.4274 94.0744 79.9374C94.2186 80.4928 94.3922 81.0402 94.5943 81.5774C94.7943 82.1374 95.0044 82.6873 95.2244 83.2373C95.4329 83.7794 95.6767 84.3072 95.9543 84.8174C96.2443 85.3274 96.5244 85.8173 96.8344 86.2373C97.1222 86.658 97.4578 87.0439 97.8344 87.3874C98.1946 87.7046 98.5946 87.9736 99.0243 88.1874C99.4635 88.3948 99.9392 88.5137 100.424 88.5374C100.946 88.576 101.47 88.5253 101.974 88.3874V88.3874Z" fill="#FF4545"/>
<path d="M142.925 75.3367L147.525 73.9967L147.145 64.9967L154.025 62.9967L159.025 79.9967L128.405 88.9967L125.855 80.3767L129.295 79.3767L122.865 57.4667L119.325 58.4667L116.845 49.9967L137.725 43.8867L140.205 52.3467L136.495 53.4667L142.925 75.3367Z" fill="#FF4545"/>
<path d="M161.004 70.0356L164.924 68.8856L158.504 46.9556L154.434 48.1557L151.924 39.6857L171.924 33.8357C178.524 31.9023 183.954 32.099 188.214 34.4256C192.474 36.7523 195.527 41.0856 197.374 47.4256C198.131 49.9588 198.423 52.6084 198.234 55.2456C198.039 57.8035 197.36 60.3011 196.234 62.6056C195.01 65.0332 193.257 67.1553 191.104 68.8156C188.642 70.7458 185.82 72.1667 182.804 72.9956L163.514 78.6557L161.004 70.0356ZM178.924 64.7856C180.001 64.4963 180.993 63.9509 181.814 63.1957C182.526 62.5362 183.077 61.7219 183.424 60.8156C183.758 59.8666 183.944 58.8715 183.974 57.8657C184.017 56.8123 183.956 55.7573 183.794 54.7156C183.621 53.6678 183.381 52.6323 183.074 51.6157C182.792 50.5991 182.459 49.5978 182.074 48.6157C181.677 47.6642 181.195 46.7505 180.634 45.8856C180.115 45.0461 179.459 44.2991 178.694 43.6756C177.936 43.0996 177.051 42.7123 176.114 42.5457C175.011 42.3576 173.88 42.4364 172.814 42.7756L171.684 43.1056L178.114 65.0356L178.924 64.7856Z" fill="#FF4545"/>
</svg>
