<svg width="106" height="79" viewBox="0 0 106 79" fill="none" xmlns="http://www.w3.org/2000/svg">
<path d="M54.227 31.327C50.6504 29.8059 49.6159 28.8998 49.6159 27.2877C49.6159 25.8781 50.582 24.3702 53.2909 24.3702C55.7301 24.3702 57.2931 25.2644 58.0434 25.6935L58.608 26.0159L60.0032 22.3314L59.5908 22.0965C58.1141 21.2598 56.502 20.7864 54.6837 20.6557V16.7578H51.0615V20.8439C47.4081 21.6218 45.0756 24.2815 45.0756 27.7276C45.0756 31.9047 48.5815 33.8429 52.0048 35.1841C54.963 36.3828 56.1688 37.6101 56.1688 39.4201C56.1688 41.3954 54.444 42.7762 51.9748 42.7762C50.1397 42.7762 48.1201 42.1685 46.5715 41.1509L45.9829 40.7649L44.6465 44.4962L44.9869 44.7395C46.3953 45.744 48.6355 46.4427 50.8218 46.577V50.5888H54.444V46.3481C58.2352 45.5714 60.7499 42.7103 60.7499 39.1012C60.7511 35.5162 58.7973 33.1896 54.227 31.327Z" fill="white"/>
<path d="M75.6969 9.77406C62.9952 -2.92528 42.4029 -2.92409 29.7036 9.77406C17.003 22.4746 17.0019 43.0668 29.7036 55.7686L52.699 78.764L75.6969 55.7674C88.395 43.068 88.395 22.4758 75.6969 9.77406ZM52.699 58.1107C38.8994 58.1107 27.7139 46.924 27.7139 33.1255C27.7139 19.3258 38.9006 8.13914 52.699 8.13914C66.4999 8.13914 77.6866 19.3258 77.6866 33.1255C77.6866 46.924 66.4999 58.1107 52.699 58.1107Z" fill="white"/>
<path d="M21.321 59.8819C21.321 59.8819 7.57648 55.9936 3.70375 40.728C2.46079 35.0226 3.7469 28.5476 5.11213 26.118C5.04021 26.0845 0.200195 23.8874 0.200195 23.8874L13.5144 19.1289L18.7392 32.5678L14.0442 30.4355C14.0442 30.4355 5.58438 49.2501 21.321 59.8819Z" fill="white"/>
<path d="M84.0801 19.1289C84.0801 19.1289 97.8246 23.0172 101.696 38.284C102.939 43.9882 101.654 50.4631 100.289 52.8927C100.362 52.9251 105.201 55.1234 105.201 55.1234L91.8843 59.8819L86.6619 46.443L91.3557 48.5753C91.3557 48.5753 99.8167 29.7606 84.0801 19.1289Z" fill="white"/>
</svg>
