<svg width="25" height="25" viewBox="0 0 25 25" fill="none" xmlns="http://www.w3.org/2000/svg">
<path d="M21.5023 20.8809L15.4156 14.7941C16.3602 13.573 16.8711 12.0801 16.8711 10.5098C16.8711 8.63008 16.1375 6.86758 14.8109 5.53867C13.4844 4.20977 11.7172 3.47852 9.83984 3.47852C7.9625 3.47852 6.19531 4.21211 4.86875 5.53867C3.53984 6.86523 2.80859 8.63008 2.80859 10.5098C2.80859 12.3871 3.54219 14.1543 4.86875 15.4809C6.19531 16.8098 7.96016 17.541 9.83984 17.541C11.4102 17.541 12.9008 17.0301 14.1219 16.0879L20.2086 22.1723C20.2264 22.1901 20.2476 22.2043 20.271 22.214C20.2943 22.2236 20.3193 22.2286 20.3445 22.2286C20.3698 22.2286 20.3948 22.2236 20.4181 22.214C20.4414 22.2043 20.4626 22.1901 20.4805 22.1723L21.5023 21.1527C21.5202 21.1349 21.5344 21.1137 21.544 21.0904C21.5537 21.067 21.5587 21.042 21.5587 21.0168C21.5587 20.9915 21.5537 20.9665 21.544 20.9432C21.5344 20.9199 21.5202 20.8987 21.5023 20.8809ZM13.5523 14.2223C12.5586 15.2137 11.2414 15.7598 9.83984 15.7598C8.43828 15.7598 7.12109 15.2137 6.12734 14.2223C5.13594 13.2285 4.58984 11.9113 4.58984 10.5098C4.58984 9.1082 5.13594 7.78867 6.12734 6.79727C7.12109 5.80586 8.43828 5.25977 9.83984 5.25977C11.2414 5.25977 12.5609 5.80352 13.5523 6.79727C14.5438 7.79102 15.0898 9.1082 15.0898 10.5098C15.0898 11.9113 14.5438 13.2309 13.5523 14.2223Z" fill="#6561E3"/>
</svg>
