<svg width="123" height="123" viewBox="0 0 123 123" fill="none" xmlns="http://www.w3.org/2000/svg">
<g clip-path="url(#clip0_1379_7)">
<path d="M0 61.44C0 44.48 6.88 29.12 18 18C29.11 6.88 44.47 0 61.44 0C78.4 0 93.77 6.88 104.88 18C116 29.12 122.88 44.48 122.88 61.44C122.88 78.4 116 93.77 104.88 104.88C93.76 116 78.4 122.88 61.44 122.88C44.48 122.88 29.11 116 18 104.88C6.88 93.77 0 78.41 0 61.44ZM92.3 61.44C92.3 65.43 89.06 68.66 85.08 68.66C81.1 68.66 77.86 65.42 77.86 61.44C77.86 57.45 81.09 54.21 85.08 54.21C89.07 54.21 92.3 57.45 92.3 61.44ZM43.99 61.44C43.99 65.43 40.76 68.66 36.76 68.66C32.77 68.66 29.54 65.42 29.54 61.44C29.54 57.45 32.77 54.21 36.76 54.21C40.75 54.21 43.99 57.45 43.99 61.44ZM68.15 61.44C68.15 65.43 64.91 68.66 60.93 68.66C56.94 68.66 53.71 65.42 53.71 61.44C53.71 57.45 56.95 54.21 60.93 54.21C64.91 54.22 68.15 57.45 68.15 61.44ZM25.2 25.2C15.93 34.48 10.2 47.29 10.2 61.44C10.2 75.59 15.94 88.4 25.21 97.68C34.48 106.95 47.29 112.69 61.45 112.69C75.61 112.69 88.41 106.95 97.68 97.68C106.95 88.41 112.69 75.6 112.69 61.44C112.69 47.29 106.95 34.48 97.68 25.21C88.4 15.93 75.59 10.2 61.44 10.2C47.29 10.2 34.48 15.93 25.2 25.2Z" fill="#6661E7"/>
</g>
<defs>
<clipPath id="clip0_1379_7">
<rect width="122.88" height="122.88" fill="white"/>
</clipPath>
</defs>
</svg>
