<svg width="397" height="512" viewBox="0 0 397 512" fill="none" xmlns="http://www.w3.org/2000/svg">
<g clip-path="url(#clip0_1413_18)">
<path d="M370.42 212.778C375.36 206.268 384.65 204.998 391.15 209.928C397.66 214.868 398.93 224.158 393.99 230.658L216.08 464.628C196.02 490.928 167.05 506.658 136.55 510.808C106.52 514.898 74.9101 507.768 48.7701 488.428C47.8526 487.871 46.9947 487.221 46.2101 486.488C20.5601 466.448 5.20011 437.848 1.11011 407.778C-2.97989 377.728 4.17011 346.118 23.5001 319.988C24.0301 319.108 24.6601 318.278 25.3601 317.518L239.33 36.1482C255.72 16.9182 273.9 4.84823 294.12 1.17823C314.53 -2.53177 336.06 2.42823 358.87 17.3582L359.84 18.0482L360.1 18.2482L360.13 18.2682C371.01 26.6682 379.14 36.0282 384.71 46.1082C390.69 56.9582 393.67 68.6082 393.88 80.7882C394.15 97.1782 390.26 110.818 384.01 123.348C378.26 134.898 370.44 145.358 362.09 156.338L163.89 417.008C155.51 428.028 143.41 434.618 130.69 436.348C118.53 438.008 105.71 435.208 94.9801 427.598C94.0201 427.028 93.1201 426.348 92.2901 425.548C82.0601 417.228 75.9301 405.598 74.2601 393.398C72.5501 380.708 75.6601 367.308 84.0201 356.308L255.26 131.098C260.19 124.598 269.48 123.328 275.99 128.258C282.49 133.198 283.76 142.488 278.83 148.988L107.59 374.198C104.19 378.678 102.93 384.198 103.64 389.458C104.35 394.678 107.04 399.628 111.5 403.018L111.55 403.068C116.01 406.428 121.51 407.678 126.75 406.968C131.98 406.258 136.93 403.578 140.32 399.118L338.52 138.448C345.78 128.898 352.59 119.788 357.42 110.108C361.75 101.428 364.44 92.1282 364.27 81.2482C364.15 73.9982 362.33 66.9982 358.7 60.3982C355.14 53.9482 349.76 47.7882 342.4 42.0582C326.39 31.6282 312.1 28.0182 299.34 30.3282C286.32 32.6982 273.84 41.3582 261.84 55.3982L48.0401 336.588C32.9401 356.438 27.3501 380.718 30.4901 403.828C33.5701 426.478 45.0701 447.988 64.2601 463.048C65.0101 463.508 65.7301 464.048 66.4001 464.668C86.0701 479.168 109.91 484.518 132.61 481.428C155.28 478.348 176.8 466.818 191.85 447.608C192.33 446.848 192.88 446.128 193.5 445.438L370.42 212.778V212.778Z" fill="#9896A1"/>
</g>
<defs>
<clipPath id="clip0_1413_18">
<rect width="397" height="511.92" fill="white"/>
</clipPath>
</defs>
</svg>
