<svg width="65" height="39" viewBox="0 0 65 39" fill="none" xmlns="http://www.w3.org/2000/svg">
<path d="M16.1538 33.778C16.136 33.778 16.1265 33.7566 16.1396 33.7435L30.3825 19.5006L16.1396 5.25765C16.1265 5.24456 16.136 5.22314 16.1538 5.22314L22.054 5.22314L36.0792 19.2484C36.2184 19.3876 36.2184 19.6136 36.0792 19.7528L22.054 33.778L16.1538 33.778Z" fill="white"/>
<path d="M3.06594 33.778C3.04809 33.778 3.03857 33.7566 3.05166 33.7435L17.2946 19.5006L3.05166 5.25765C3.03858 5.24456 3.0481 5.22314 3.06594 5.22314L8.96609 5.22314L22.9913 19.2484C23.1305 19.3876 23.1305 19.6136 22.9913 19.7528L8.96609 33.778L3.06594 33.778Z" fill="white"/>
<path d="M42.1714 33.778C42.1536 33.778 42.144 33.7566 42.1571 33.7435L56.4001 19.5006L42.1571 5.25765C42.144 5.24456 42.1536 5.22314 42.1714 5.22314L48.0716 5.22314L62.0968 19.2484C62.236 19.3876 62.236 19.6136 62.0968 19.7528L48.0716 33.778L42.1714 33.778Z" fill="white"/>
<path d="M29.0835 33.778C29.0657 33.778 29.0562 33.7566 29.0692 33.7435L43.3122 19.5006L29.0692 5.25765C29.0562 5.24456 29.0657 5.22314 29.0835 5.22314L34.9837 5.22314L49.0089 19.2484C49.1481 19.3876 49.1481 19.6136 49.0089 19.7528L34.9837 33.778L29.0835 33.778Z" fill="white"/>
</svg>
