<svg width="100" height="100" viewBox="0 0 100 100" fill="none" xmlns="http://www.w3.org/2000/svg">
<g clip-path="url(#clip0_1371_15)">
<path d="M50 37.5013C43.3125 37.5013 36.875 38.543 30.8333 40.5013V53.4388C30.8333 55.0846 29.875 56.5013 28.5 57.1888C24.4375 59.2305 20.7083 61.8346 17.3958 64.8971C16.6458 65.6263 15.625 66.0846 14.4792 66.0846C13.3333 66.0846 12.2917 65.6263 11.5417 64.8555L1.22917 54.543C0.458333 53.7721 0 52.7305 0 51.5846C0 50.4388 0.458333 49.3971 1.22917 48.6263C13.9167 36.5638 31.1042 29.168 50 29.168C68.8958 29.168 86.0833 36.5638 98.7708 48.6263C99.5417 49.3763 100 50.4388 100 51.5846C100 52.7305 99.5417 53.7721 98.7708 54.5221L88.4583 64.8346C87.7083 65.5846 86.6667 66.0638 85.5208 66.0638C84.3958 66.0638 83.3542 65.6055 82.6042 64.8763C79.2917 61.8138 75.5625 59.2096 71.5 57.168C70.125 56.4805 69.1667 55.0638 69.1667 53.418V40.4805C63.125 38.543 56.6875 37.5013 50 37.5013V37.5013Z" fill="white"/>
</g>
<defs>
<clipPath id="clip0_1371_15">
<rect width="100" height="100" fill="white"/>
</clipPath>
</defs>
</svg>
