<svg width="123" height="123" viewBox="0 0 123 123" fill="none" xmlns="http://www.w3.org/2000/svg">
<g clip-path="url(#clip0_1413_20)">
<path d="M45.5399 2.0992C59.2778 -1.59303 73.8709 -0.407031 86.8323 5.45506C99.7937 11.3172 110.321 21.4926 116.621 34.2471C122.92 47.0017 124.601 61.5461 121.378 75.4015C118.155 89.257 110.227 101.566 98.9456 110.231C87.6637 118.896 73.7261 123.38 59.5082 122.92C45.2902 122.46 31.6718 117.083 20.9739 107.707C10.276 98.3307 3.16066 85.5346 0.840472 71.4998C-1.47972 57.4649 1.13886 43.0597 8.24994 30.7392C12.2731 23.7448 17.6384 17.614 24.0378 12.6991C30.4371 7.7842 37.7444 4.18193 45.5399 2.0992V2.0992ZM30.6099 70.2992C32.9658 73.3755 35.7783 76.0733 38.9499 78.2992C45.8792 83.0627 54.1225 85.5448 62.5299 85.3992C70.7548 85.3545 78.7438 82.6459 85.2999 77.6792C88.0262 75.5832 90.414 73.0807 92.3799 70.2592C92.4124 70.2122 92.4618 70.1797 92.5178 70.1685C92.5738 70.1573 92.6319 70.1683 92.6799 70.1992L94.9999 72.4892C95.0317 72.527 95.0491 72.5748 95.0491 72.6242C95.0491 72.6736 95.0317 72.7214 94.9999 72.7592C91.711 78.4802 87.1627 83.3773 81.6999 87.0792C76.0644 90.8419 69.4743 92.9229 62.6999 93.0792C55.8275 93.1864 49.0623 91.3678 43.1699 87.8292C37.0018 84.0797 31.7693 78.9738 27.8699 72.8992C27.8415 72.8599 27.8261 72.8127 27.8261 72.7642C27.8261 72.7157 27.8415 72.6685 27.8699 72.6292L30.2499 70.2692C30.2907 70.2312 30.3443 70.2101 30.3999 70.2101C30.4556 70.2101 30.5092 70.2312 30.5499 70.2692V70.2692L30.6099 70.2992ZM76.2299 33.8892C80.2899 33.8892 83.5799 38.6592 83.5799 44.5392C83.5799 50.4192 80.2899 55.1792 76.2299 55.1792C72.1699 55.1792 68.8799 50.4092 68.8799 44.5392C68.8799 38.6692 72.1699 33.8892 76.2299 33.8892ZM46.6499 33.8892C50.7099 33.8892 53.9999 38.6592 53.9999 44.5392C53.9999 50.4192 50.7099 55.1792 46.6499 55.1792C42.5899 55.1792 39.2999 50.4092 39.2999 44.5392C39.2999 38.6692 42.5899 33.8892 46.6499 33.8892V33.8892ZM88.7499 14.1392C77.8047 7.81144 65.0039 5.47501 52.529 7.5281C40.0541 9.5812 28.6772 15.8968 20.3372 25.3984C11.9972 34.9001 7.21023 46.9999 6.79211 59.6357C6.37398 72.2715 10.3506 84.6613 18.0442 94.6936C25.7378 104.726 36.6723 111.78 48.9842 114.653C61.296 117.526 74.2233 116.041 85.5629 110.451C96.9025 104.861 105.953 95.5109 111.171 83.9953C116.389 72.4798 117.453 59.511 114.18 47.2992C112.333 40.3699 109.136 33.8735 104.772 28.183C100.408 22.4925 94.9632 17.7199 88.7499 14.1392V14.1392Z" fill="#9896A1"/>
</g>
<defs>
<clipPath id="clip0_1413_20">
<rect width="122.88" height="122.88" fill="white"/>
</clipPath>
</defs>
</svg>
