<svg width="4459" height="922" viewBox="0 0 4459 922" fill="none" xmlns="http://www.w3.org/2000/svg">
<path d="M4375.75 773H4388.35V782H4024.75V773H4036.45C4049.05 773 4059.25 766.7 4067.05 754.1C4070.65 748.1 4072.45 742.1 4072.45 736.1C4072.45 730.1 4070.65 723.8 4067.05 717.2L3950.05 538.1L3774.55 782C3707.35 875 3632.35 921.5 3549.55 921.5C3533.95 921.5 3518.35 920 3502.75 917V908C3548.95 902.6 3585.55 888.8 3612.55 866.6C3626.95 854.6 3639.25 842.6 3649.45 830.6C3659.05 819.2 3671.65 803 3687.25 782L3910.45 476.9L3738.55 213.2C3728.35 198.8 3715.15 186.5 3698.95 176.3C3682.75 166.1 3665.65 161 3647.65 161H3635.05V152H3996.85V161H3986.05C3972.85 161 3962.65 167.3 3955.45 179.9C3951.25 185.9 3949.15 192.2 3949.15 198.8C3949.15 204.8 3951.25 210.8 3955.45 216.8L4057.15 372.5L4202.95 152C4231.15 110 4265.95 74 4307.35 44C4346.95 15.2 4389.85 0.799973 4436.05 0.799973C4443.85 0.799973 4451.35 1.39996 4458.55 2.59995V11.5999C4423.75 12.2 4391.35 28.7 4361.35 61.0999C4338.55 85.7 4314.85 116 4290.25 152L4099.45 437.3L4284.85 720.8C4298.65 741.2 4316.95 756.2 4339.75 765.8C4351.75 770.6 4363.75 773 4375.75 773Z" fill="#5129A5"/>
<path d="M491 171C495.667 178.333 499.667 188.333 503 201C507 213 509 225.667 509 239C509 265 503.333 283.667 492 295C481.333 305.667 466.667 311 448 311H238V424H457C462.333 431.333 466.667 441 470 453C474 465 476 477.667 476 491C476 516.333 470.333 534.667 459 546C448.333 556.667 433.667 562 415 562H240V773C232.667 775 221 777 205 779C189.667 781 174.333 782 159 782C143.667 782 130 780.667 118 778C106.667 776 97 772 89 766C81 760 75 751.667 71 741C67 730.333 65 716.333 65 699V264C65 235.333 73.3333 212.667 90 196C106.667 179.333 129.333 171 158 171H491ZM768.789 669C780.122 669 792.456 668 805.789 666C819.789 663.333 830.122 660 836.789 656V576L764.789 582C746.122 583.333 730.789 587.333 718.789 594C706.789 600.667 700.789 610.667 700.789 624C700.789 637.333 705.789 648.333 715.789 657C726.456 665 744.122 669 768.789 669ZM760.789 276C796.789 276 829.456 279.667 858.789 287C888.789 294.333 914.122 305.667 934.789 321C956.122 335.667 972.456 354.667 983.789 378C995.122 400.667 1000.79 427.667 1000.79 459V683C1000.79 700.333 995.789 714.667 985.789 726C976.456 736.667 965.122 746 951.789 754C908.456 780 847.456 793 768.789 793C733.456 793 701.456 789.667 672.789 783C644.789 776.333 620.456 766.333 599.789 753C579.789 739.667 564.122 722.667 552.789 702C542.122 681.333 536.789 657.333 536.789 630C536.789 584 550.456 548.667 577.789 524C605.122 499.333 647.456 484 704.789 478L835.789 464V457C835.789 437.667 827.122 424 809.789 416C793.122 407.333 768.789 403 736.789 403C711.456 403 686.789 405.667 662.789 411C638.789 416.333 617.122 423 597.789 431C589.122 425 581.789 416 575.789 404C569.789 391.333 566.789 378.333 566.789 365C566.789 347.667 570.789 334 578.789 324C587.456 313.333 600.456 304.333 617.789 297C637.122 289.667 659.789 284.333 685.789 281C712.456 277.667 737.456 276 760.789 276ZM1412.73 469C1412.73 448.333 1406.73 433.333 1394.73 424C1383.4 414 1367.73 409 1347.73 409C1334.4 409 1321.07 410.667 1307.73 414C1295.07 417.333 1284.07 422.333 1274.73 429V776C1268.07 778 1257.4 780 1242.73 782C1228.73 784 1214.07 785 1198.73 785C1184.07 785 1170.73 784 1158.73 782C1147.4 780 1137.73 776 1129.73 770C1121.73 764 1115.4 756 1110.73 746C1106.73 735.333 1104.73 721.667 1104.73 705V405C1104.73 387 1108.4 372.333 1115.73 361C1123.73 349.667 1134.4 339.333 1147.73 330C1170.4 314 1198.73 301 1232.73 291C1267.4 281 1305.73 276 1347.73 276C1423.07 276 1481.07 292.667 1521.73 326C1562.4 358.667 1582.73 404.333 1582.73 463V776C1576.07 778 1565.4 780 1550.73 782C1536.73 784 1522.07 785 1506.73 785C1492.07 785 1478.73 784 1466.73 782C1455.4 780 1445.73 776 1437.73 770C1429.73 764 1423.4 756 1418.73 746C1414.73 735.333 1412.73 721.667 1412.73 705V469ZM2097.74 632C2097.74 682.667 2078.74 722.333 2040.74 751C2002.74 779.667 1946.74 794 1872.74 794C1844.74 794 1818.74 792 1794.74 788C1770.74 784 1750.08 778 1732.74 770C1716.08 761.333 1702.74 750.667 1692.74 738C1683.41 725.333 1678.74 710.333 1678.74 693C1678.74 677 1682.08 663.667 1688.74 653C1695.41 641.667 1703.41 632.333 1712.74 625C1732.08 635.667 1754.08 645.333 1778.74 654C1804.08 662 1833.08 666 1865.74 666C1886.41 666 1902.08 663 1912.74 657C1924.08 651 1929.74 643 1929.74 633C1929.74 623.667 1925.74 616.333 1917.74 611C1909.74 605.667 1896.41 601.333 1877.74 598L1847.74 592C1789.74 580.667 1746.41 563 1717.74 539C1689.74 514.333 1675.74 479.333 1675.74 434C1675.74 409.333 1681.08 387 1691.74 367C1702.41 347 1717.41 330.333 1736.74 317C1756.08 303.667 1779.08 293.333 1805.74 286C1833.08 278.667 1863.08 275 1895.74 275C1920.41 275 1943.41 277 1964.74 281C1986.74 284.333 2005.74 289.667 2021.74 297C2037.74 304.333 2050.41 314 2059.74 326C2069.08 337.333 2073.74 351 2073.74 367C2073.74 382.333 2070.74 395.667 2064.74 407C2059.41 417.667 2052.41 426.667 2043.74 434C2038.41 430.667 2030.41 427.333 2019.74 424C2009.08 420 1997.41 416.667 1984.74 414C1972.08 410.667 1959.08 408 1945.74 406C1933.08 404 1921.41 403 1910.74 403C1888.74 403 1871.74 405.667 1859.74 411C1847.74 415.667 1841.74 423.333 1841.74 434C1841.74 441.333 1845.08 447.333 1851.74 452C1858.41 456.667 1871.08 461 1889.74 465L1920.74 472C1984.74 486.667 2030.08 507 2056.74 533C2084.08 558.333 2097.74 591.333 2097.74 632ZM2618.93 171C2623.6 178.333 2627.6 188.333 2630.93 201C2634.93 213 2636.93 225.667 2636.93 239C2636.93 265 2631.26 283.667 2619.93 295C2609.26 305.667 2594.6 311 2575.93 311H2365.93V424H2584.93C2590.26 431.333 2594.6 441 2597.93 453C2601.93 465 2603.93 477.667 2603.93 491C2603.93 516.333 2598.26 534.667 2586.93 546C2576.26 556.667 2561.6 562 2542.93 562H2367.93V773C2360.6 775 2348.93 777 2332.93 779C2317.6 781 2302.26 782 2286.93 782C2271.6 782 2257.93 780.667 2245.93 778C2234.6 776 2224.93 772 2216.93 766C2208.93 760 2202.93 751.667 2198.93 741C2194.93 730.333 2192.93 716.333 2192.93 699V264C2192.93 235.333 2201.26 212.667 2217.93 196C2234.6 179.333 2257.26 171 2285.93 171H2618.93ZM3191.72 534C3191.72 575.333 3185.39 612.333 3172.72 645C3160.05 677 3142.05 704 3118.72 726C3096.05 748 3068.72 764.667 3036.72 776C3004.72 787.333 2969.05 793 2929.72 793C2890.39 793 2854.72 787 2822.72 775C2790.72 763 2763.05 746 2739.72 724C2717.05 701.333 2699.39 674 2686.72 642C2674.05 610 2667.72 574 2667.72 534C2667.72 494.667 2674.05 459 2686.72 427C2699.39 395 2717.05 368 2739.72 346C2763.05 323.333 2790.72 306 2822.72 294C2854.72 282 2890.39 276 2929.72 276C2969.05 276 3004.72 282.333 3036.72 295C3068.72 307 3096.05 324.333 3118.72 347C3142.05 369 3160.05 396 3172.72 428C3185.39 460 3191.72 495.333 3191.72 534ZM2841.72 534C2841.72 574.667 2849.39 606 2864.72 628C2880.72 649.333 2902.72 660 2930.72 660C2958.72 660 2980.05 649 2994.72 627C3010.05 605 3017.72 574 3017.72 534C3017.72 494 3010.05 463.333 2994.72 442C2979.39 420 2957.72 409 2929.72 409C2901.72 409 2880.05 420 2864.72 442C2849.39 463.333 2841.72 494 2841.72 534ZM3444.66 776C3437.99 778 3427.32 780 3412.66 782C3398.66 784 3383.99 785 3368.66 785C3353.99 785 3340.66 784 3328.66 782C3317.32 780 3307.66 776 3299.66 770C3291.66 764 3285.32 756 3280.66 746C3276.66 735.333 3274.66 721.667 3274.66 705V405C3274.66 389.667 3277.32 376.667 3282.66 366C3288.66 354.667 3296.99 344.667 3307.66 336C3318.32 327.333 3331.32 319.667 3346.66 313C3362.66 305.667 3379.66 299.333 3397.66 294C3415.66 288.667 3434.32 284.667 3453.66 282C3472.99 278.667 3492.32 277 3511.66 277C3543.66 277 3568.99 283.333 3587.66 296C3606.32 308 3615.66 328 3615.66 356C3615.66 365.333 3614.32 374.667 3611.66 384C3608.99 392.667 3605.66 400.667 3601.66 408C3587.66 408 3573.32 408.667 3558.66 410C3543.99 411.333 3529.66 413.333 3515.66 416C3501.66 418.667 3488.32 421.667 3475.66 425C3463.66 427.667 3453.32 431 3444.66 435V776Z" fill="#5129A5"/>
</svg>
