<svg xmlns="http://www.w3.org/2000/svg" xmlns:xlink="http://www.w3.org/1999/xlink" viewBox="0 0 500 500"><defs><clipPath id="freepik--clip-path--inject-7"><polygon points="330.12 187.38 259.24 187.38 269.4 71.16 340.28 71.16 330.12 187.38" style="fill:none"></polygon></clipPath><clipPath id="freepik--clip-path-2--inject-7"><rect x="49.05" y="171.83" width="131.43" height="139.68" rx="12" transform="translate(356.43 126.91) rotate(90)" style="fill:none"></rect></clipPath></defs><g id="freepik--background-complete--inject-7"><rect x="416.78" y="398.49" width="33.12" height="0.25" style="fill:#ebebeb"></rect><rect x="322.53" y="401.21" width="8.69" height="0.25" style="fill:#ebebeb"></rect><rect x="396.59" y="389.21" width="19.19" height="0.25" style="fill:#ebebeb"></rect><rect x="52.46" y="390.89" width="43.19" height="0.25" style="fill:#ebebeb"></rect><rect x="131.47" y="395.11" width="93.68" height="0.25" style="fill:#ebebeb"></rect><rect x="104.56" y="390.89" width="6.33" height="0.25" style="fill:#ebebeb"></rect><path d="M237,337.8H43.91a5.71,5.71,0,0,1-5.7-5.71V60.66A5.71,5.71,0,0,1,43.91,55H237a5.71,5.71,0,0,1,5.71,5.71V332.09A5.71,5.71,0,0,1,237,337.8ZM43.91,55.2a5.46,5.46,0,0,0-5.45,5.46V332.09a5.46,5.46,0,0,0,5.45,5.46H237a5.47,5.47,0,0,0,5.46-5.46V60.66A5.47,5.47,0,0,0,237,55.2Z" style="fill:#ebebeb"></path><path d="M453.31,337.8H260.21a5.72,5.72,0,0,1-5.71-5.71V60.66A5.72,5.72,0,0,1,260.21,55h193.1A5.71,5.71,0,0,1,459,60.66V332.09A5.71,5.71,0,0,1,453.31,337.8ZM260.21,55.2a5.47,5.47,0,0,0-5.46,5.46V332.09a5.47,5.47,0,0,0,5.46,5.46h193.1a5.47,5.47,0,0,0,5.46-5.46V60.66a5.47,5.47,0,0,0-5.46-5.46Z" style="fill:#ebebeb"></path><rect y="382.4" width="500" height="0.25" style="fill:#ebebeb"></rect><rect x="335.66" y="329.41" width="15.16" height="53.73" style="fill:#ebebeb"></rect><rect x="313.44" y="295.28" width="22.11" height="87.85" style="fill:#ebebeb"></rect><rect x="362.15" y="314.59" width="17.25" height="68.55" style="fill:#f5f5f5"></rect><rect x="160.56" y="271.97" width="14.16" height="111.17" style="fill:#f5f5f5"></rect><rect x="216.84" y="281.34" width="25.62" height="101.8" style="fill:#e6e6e6"></rect><polygon points="265.09 374.42 246.28 374.42 246.28 308.51 255.69 291.37 265.09 308.51 265.09 374.42" style="fill:#f5f5f5"></polygon><polygon points="149.38 383.14 123.76 383.14 123.76 293.37 136.57 270.02 149.38 293.37 149.38 383.14" style="fill:#ebebeb"></polygon><polygon points="313.55 374.42 292.12 374.42 292.12 299.33 313.34 279.8 313.55 374.42" style="fill:#ebebeb"></polygon><rect x="185.86" y="260.01" width="30.98" height="123.12" style="fill:#ebebeb"></rect><rect x="295.35" y="311.64" width="17.99" height="71.49" style="fill:#e6e6e6"></rect><rect x="350.82" y="361.32" width="26.44" height="21.82" style="fill:#e6e6e6"></rect><path d="M289.09,382.2H268.94V328.43a16.87,16.87,0,0,1,5.28-12.25l14.87-14.05Z" style="fill:#f5f5f5"></path><polygon points="87.21 383.14 107.36 383.14 107.36 318.71 87.21 303.06 87.21 383.14" style="fill:#f0f0f0"></polygon><rect x="242.46" y="361.32" width="26.44" height="21.82" style="fill:#e6e6e6"></rect><polygon points="295.35 383.14 268.91 383.14 268.91 349 282.13 343.78 295.35 349 295.35 383.14" style="fill:#e0e0e0"></polygon><polygon points="185.86 383.14 149.13 383.14 149.13 337.5 168 330.52 185.86 337.5 185.86 383.14" style="fill:#e6e6e6"></polygon><rect x="377.16" y="342.91" width="21.24" height="40.23" style="fill:#e6e6e6"></rect><rect x="76.18" y="361.32" width="26.44" height="21.82" style="fill:#ebebeb"></rect><rect x="102.52" y="342.91" width="21.24" height="40.23" style="fill:#e6e6e6"></rect><path d="M307,231c8.91-9,20.82-10.16,26.59-2.69s3.23,20.78-5.69,29.74-20.82,10.16-26.59,2.69S298.09,240,307,231Z" style="fill:#e6e6e6"></path><ellipse cx="290.85" cy="215.89" rx="57.84" ry="42.53" transform="translate(-64.01 288.52) rotate(-48.15)" style="fill:#ebebeb"></ellipse><ellipse cx="385.55" cy="208.62" rx="41.08" ry="30.21" transform="translate(-27.07 356.66) rotate(-48.15)" style="fill:#e6e6e6"></ellipse><ellipse cx="403.5" cy="239.02" rx="41.08" ry="30.21" transform="translate(-43.74 380.15) rotate(-48.15)" style="fill:#ebebeb"></ellipse><ellipse cx="356.76" cy="200.27" rx="56.66" ry="41.66" transform="matrix(0.67, -0.74, 0.74, 0.67, -30.44, 332.41)" style="fill:#f0f0f0"></ellipse><ellipse cx="300.98" cy="222.3" rx="31.97" ry="23.22" transform="translate(-56.25 333.63) rotate(-53.76)" style="fill:#f0f0f0"></ellipse><ellipse cx="398.78" cy="258.36" rx="23.11" ry="16.78" transform="translate(-45.35 427.25) rotate(-53.76)" style="fill:#f0f0f0"></ellipse><path d="M387.4,278.43,371.75,291.5C373,309.94,374,352.41,374,352.41l5.57,29.69-49.08.41s2.23-25.08,2.23-26.44,9.49-49.4,9.49-49.4l3.35-26.9-25.31-6.94-4.62-12-18.6-9.46L288,238.84l3.51-.77,10,11.59,11.71,2.28-5-10.67h5.58L327.73,266l18,3.31-2.34-34.72c17.29,4.88,19-4,19-4s5.93,46.72,8,52l9.26-4.19,10.05-14.25h4.46Z" style="fill:#e0e0e0"></path><path d="M80.27,152.3c-9.69-1.42-21-1.5-29.68-6.06,9.66,2.43,20.51-5.65,21-15.6.14-2.93-.49-5.88-.12-8.79,1.19-9.29,14.56-14.15,21.44-7.8,1-15,12.66-28.69,27.31-32.14,5.2-1.22,10.94-1.19,15.58,1.45s7.75,8.37,6.22,13.49c2.5-9.18,10.67-16.67,20.1-17.94s19.49,4,23.42,12.69,1.07,20-6.72,25.44c5.38-5.83,16.74-6.16,19.42-1.46a11.61,11.61,0,0,1,1.65,6c-.25,11.55-9.18,21.53-19.71,26.29S102.35,155.55,80.27,152.3Z" style="fill:#f0f0f0"></path><path d="M408.59,101.69v.38c-.47.08.72,1.39,1,1s-.12-.91-.48-1.22a11.22,11.22,0,0,0-18.43,7c-2.76-3.16-7.87-3.12-11.63-1.25A16.2,16.2,0,0,0,370.29,123a7.75,7.75,0,0,0-9.28,2.45c-.9,1.26-1.39,2.77-2.27,4a8,8,0,0,1-6.05,3.41c9.17,1.68,45.85,0,54.89,0,3.95,0,7.95.26,11.81-.58s7.66-3,9.32-6.62.37-8.59-3.3-10a10.7,10.7,0,0,0-2.47-12.81C419.34,99.84,412.3,98.8,408.59,101.69Z" style="fill:#f5f5f5"></path></g><g id="freepik--Shadow--inject-7"><ellipse id="freepik--path--inject-7" cx="250" cy="415.69" rx="193.89" ry="11.32" style="fill:#f5f5f5"></ellipse></g><g id="freepik--mobile-working--inject-7"><path d="M427.18,337.74H334.73a12,12,0,0,1-11.83-10V257.56h4.68v63.31H427Z" style="fill:#35378A"></path><path d="M427.18,337.74H334.73a12,12,0,0,1-11.83-10V257.56h4.68v63.31H427Z" style="opacity:0.2"></path><polygon points="327.59 257.59 327.59 320.89 403.53 320.89 403.53 320.89 403.53 257.59 327.59 257.59" style="fill:#35378A"></polygon><g style="opacity:0.5"><polygon points="327.59 257.59 327.59 320.89 403.53 320.89 403.53 320.89 403.53 257.59 327.59 257.59" style="fill:#fff"></polygon></g><g id="freepik--Character--inject-2--inject-7"><polygon points="423.83 386.97 430.68 387.46 434.19 371.79 427.33 371.3 423.83 386.97" style="fill:#ff8b7b"></polygon><path d="M431.87,384.75l-7.57-1.45a.49.49,0,0,0-.61.33v0l-1.52,5.92a1.22,1.22,0,0,0,.95,1.43c2.64.46,3.77.53,7.14.93,2.08.24,7,.81,9.92.79s2.78-2.87,1.55-3.12c-2.9-.58-7.18-2.35-8.8-4.21A1.88,1.88,0,0,0,431.87,384.75Z" style="fill:#263238"></path><polygon points="427.33 371.31 434.19 371.79 432.49 379.34 425.69 378.63 427.33 371.31" style="opacity:0.2;isolation:isolate"></polygon><path d="M391.55,295.63s51.68,6.74,51.61,26.43a368.13,368.13,0,0,1-8.79,54.12l-9-2.41s-2.19-31.88,1.52-48c-13.83-4.1-53.5-4.22-57.58-15.81-3.34-9.46-1.46-14.63-1.46-14.63Z" style="fill:#35378A"></path><path d="M391.55,295.63s51.68,6.74,51.61,26.43a368.13,368.13,0,0,1-8.79,54.12l-9-2.41s-2.19-31.88,1.52-48c-13.83-4.1-53.5-4.22-57.58-15.81-3.34-9.46-1.46-14.63-1.46-14.63Z" style="opacity:0.1"></path><polygon points="421.45 376.13 435.98 378.06 437.95 372.84 421.89 370.5 421.45 376.13" style="fill:#263238"></polygon><path d="M435.37,386.28a.88.88,0,0,0,.36-.82.59.59,0,0,0-.28-.51c-.77-.5-2.92.45-3.16.56a.18.18,0,0,0-.09.08.16.16,0,0,0,.08.21,8.39,8.39,0,0,0,1.75.59A1.88,1.88,0,0,0,435.37,386.28Zm-.08-1.07a.27.27,0,0,1,.12.26.56.56,0,0,1-.22.54c-.37.25-1.27.12-2.43-.35C433.64,385.31,434.87,385,435.29,385.21Z" style="fill:#35378A"></path><path d="M432.43,385.79c.75-.27,2-1.48,2-2.25A.61.61,0,0,0,434,383a.84.84,0,0,0-.74.1c-.8.53-1,2.5-1,2.58a.14.14,0,0,0,.06.14l.07,0Zm1.39-2.54c.23.08.26.2.26.29,0,.5-.86,1.44-1.54,1.82.1-.64.37-1.74.85-2.05a.44.44,0,0,1,.37-.07S433.81,383.27,433.82,383.25Z" style="fill:#35378A"></path><polygon points="401.99 392.32 408.55 393.33 410.92 377.39 404.36 376.38 401.99 392.32" style="fill:#ff8b7b"></polygon><path d="M409,391.4l-7.65-.89a.5.5,0,0,0-.57.41l-1.07,6a1.22,1.22,0,0,0,1.06,1.36c2.67.22,4,.25,7.33.61a62.22,62.22,0,0,0,9,.76c2.88-.14,2.68-3,1.46-3.18a18.88,18.88,0,0,1-8.44-4.57A1.93,1.93,0,0,0,409,391.4Z" style="fill:#263238"></path><path d="M412.62,392.65a.89.89,0,0,0,.29-.84.57.57,0,0,0-.32-.49c-.79-.44-2.87.68-3.11.8a.16.16,0,0,0-.07.09.16.16,0,0,0,.09.2,8.54,8.54,0,0,0,1.79.45A1.87,1.87,0,0,0,412.62,392.65Zm-.17-1a.27.27,0,0,1,.15.24.6.6,0,0,1-.18.55c-.33.28-1.26.21-2.45-.17C410.82,391.81,412,391.38,412.45,391.61Z" style="fill:#35378A"></path><path d="M409.66,392.43c.72-.33,1.91-1.67,1.83-2.39a.61.61,0,0,0-.52-.55.77.77,0,0,0-.73.14c-.77.58-.83,2.56-.84,2.65a.15.15,0,0,0,.07.13h.07A.17.17,0,0,0,409.66,392.43Zm1.21-2.67c.22.06.28.18.27.27.05.5-.75,1.5-1.41,1.93.07-.63.24-1.75.71-2.1a.43.43,0,0,1,.35-.1Z" style="fill:#35378A"></path><polygon points="403.8 376.12 411.32 376.22 409.59 386.13 403.06 385.72 403.8 376.12" style="opacity:0.2;isolation:isolate"></polygon><path d="M374.79,295.41s49.89,12.93,47.91,27.74c-.62,24.69-9.16,55.78-9.16,55.78l-12.57.33s-.86-30.7,2.18-52.62c-12.76-.16-38.92-.94-46.53-8.71-6.63-8.55-1.78-22.75-1.78-22.75Z" style="fill:#35378A"></path><polygon points="399.07 383.03 414.1 384.47 415.59 378.05 399.06 376.79 399.07 383.03" style="fill:#263238"></polygon><path d="M386.3,252.08c.08,1.21.16,2.26.28,3.36s.25,2.15.41,3.27c.31,2.16.71,4.31,1.18,6.52a51.69,51.69,0,0,0,4.55,13.12,24.91,24.91,0,0,0,2.17,3.32,15.08,15.08,0,0,0,3.22,3.06,16.12,16.12,0,0,0,7.89,2.79,23.26,23.26,0,0,0,7.39-.62,30.79,30.79,0,0,0,3.35-1,14.25,14.25,0,0,0,1.61-.7c.52-.27,1-.49,1.62-.81l-1.82-4.82-1.37.16-1.44.12c-1,.07-1.9.11-2.86.09a19.48,19.48,0,0,1-5.16-.66,8.45,8.45,0,0,1-3.63-1.95,8.28,8.28,0,0,1-1.17-1.4,17.54,17.54,0,0,1-1.1-2,32.37,32.37,0,0,1-1.79-5.12c-.52-1.82-.93-3.73-1.3-5.67s-.67-3.9-1-5.87l-.38-3c-.12-1-.24-2-.33-2.88Z" style="fill:#ff8b7b"></path><path d="M386.33,246.24c5.09-4.8,11.28-1.84,13.64,7.35a84.71,84.71,0,0,1,2.67,15l-16,3.09C383.85,262.89,381.11,251.16,386.33,246.24Z" style="fill:#263238"></path><path d="M391.34,256.27c-1.12-1-4.42,3.53-6.48,9.18.53,2.16,1.15,4.24,1.77,6.19l9.63-1.86C395.57,264.09,393.87,258.61,391.34,256.27Z" style="opacity:0.30000000000000004;isolation:isolate"></path><path d="M419.26,277.41l3.6-1.32.06,7.6s-6.05,2.52-7.24-.48l.45-1.89A6.17,6.17,0,0,1,419.26,277.41Z" style="fill:#ff8b7b"></path><polygon points="427.09 276.34 429.12 282.75 422.89 283.69 422.83 276.09 427.09 276.34" style="fill:#ff8b7b"></polygon><path d="M387,241.37l-7.62-2.25-9.83-.59a6.82,6.82,0,0,0-6.87,4.61,176,176,0,0,0-5.13,21.07c-1.53,8-2.41,20-2.7,31l36.71.48A277.92,277.92,0,0,1,397.14,252a6.81,6.81,0,0,0-3.69-7.36Z" style="fill:#263238"></path><path d="M357.54,264.18c1.07-5.61,2.43-11.93,3.91-17.15,6.56-1,9.54,13.37,7.5,20.46s-12.33,2.64-12.33,2.64C356.89,268,357.21,266,357.54,264.18Z" style="opacity:0.30000000000000004;isolation:isolate"></path><path d="M382.56,226.7l2.91,4.58,4,6.24a6,6,0,0,0-1.27,1.81c-.74,1.48-1.39,2.58,1.72,4.76a2.09,2.09,0,0,1,.91,2.06c-.2,1-1.17,1.89-4.54,1.25a15.48,15.48,0,0,1-8.41-4.81c-1.11-1.14-.84-2,.26-3.14C381.23,236.2,382.22,230.94,382.56,226.7Z" style="fill:#ff8b7b"></path><path d="M388.48,236l-2.42-4.44-.17.36a10.92,10.92,0,0,0-.56,1.67c-.47,2,1,4.77,2.66,6.12l.2-.38a7.81,7.81,0,0,1,1.17-1.74l.1-.07Z" style="opacity:0.2;isolation:isolate"></path><path d="M394.49,227.62c3.91-5.1,3.87-8.41,7.2-10.9,1.62-.39,3.73,2.84,1.14,7.21S394.49,227.62,394.49,227.62Z" style="fill:#263238"></path><path d="M384,219.27c-1.51,6.47-2.68,10.19-.42,14.33,3.42,6.26,12.17,5.53,15.57-.41,3.07-5.33,5-15-.53-19.29A9.24,9.24,0,0,0,384,219.27Z" style="fill:#ff8b7b"></path><path d="M382.17,224.93l3.16,2.75,1.49-5.64,3.2-1.13,4.49-4.66s-7.26-3.63-9.49-4.35c-.78-.25-4,1.42-4.56,2.26a7.64,7.64,0,0,0-.18,8A17.11,17.11,0,0,0,382.17,224.93Z" style="fill:#263238"></path><path d="M404.31,215.67a5.14,5.14,0,0,0-1-4.61c-1.14-1.53-4.68-4.48-5.51-7.42-.49.9-.88,3.17,1.29,6.4-1.33-2.13-1.8-1.39-3-2.22a5.73,5.73,0,0,1-2.68-4.45c-1,1.91-.7,3.46.25,5.41a10.12,10.12,0,0,1-3.74-5.92,8,8,0,0,0-.4,4.42,9.62,9.62,0,0,1-3.1-6.07,20.68,20.68,0,0,0-2,5.2,6.89,6.89,0,0,0,1,5.36,9.12,9.12,0,0,0,2.25,2,47.21,47.21,0,0,0,10.54,5.44A4.62,4.62,0,0,0,404.31,215.67Z" style="fill:#263238"></path><path d="M379.94,223.39a6.12,6.12,0,0,0,1.31,4.11c1.21,1.48,3.13.34,3.6-1.49.42-1.64-.06-4.19-1.67-5S380.05,221.54,379.94,223.39Z" style="fill:#ff8b7b"></path><path d="M393.24,224.66c-.18.52-.06,1.05.29,1.18s.72-.19.93-.71a.88.88,0,0,0-.28-1.18C393.83,223.81,393.42,224.13,393.24,224.66Z" style="fill:#263238"></path><path d="M399.09,226.89c-.19.52-.06,1.06.28,1.18s.76-.19.94-.7.05-1.06-.29-1.18S399.27,226.36,399.09,226.89Z" style="fill:#263238"></path><path d="M397.08,226.56a18.27,18.27,0,0,0,.48,4.66,2.65,2.65,0,0,1-2.2-.56Z" style="fill:#ff5652"></path><path d="M393.84,233.56a4.73,4.73,0,0,1-2.77-2.51.17.17,0,0,1,.09-.21.16.16,0,0,1,.21.09,4.58,4.58,0,0,0,3.16,2.5.16.16,0,0,1,.14.18.16.16,0,0,1-.19.14h0A4.44,4.44,0,0,1,393.84,233.56Z" style="fill:#263238"></path><path d="M392.73,222.37a.25.25,0,0,1-.12-.11.34.34,0,0,1,.11-.45,3.12,3.12,0,0,1,2.92-.26.33.33,0,0,1,.16.43h0a.33.33,0,0,1-.44.14,2.51,2.51,0,0,0-2.29.23A.3.3,0,0,1,392.73,222.37Z" style="fill:#263238"></path><path d="M400.29,223.5a.29.29,0,0,1,0-.16.33.33,0,0,1,.43-.17,3.12,3.12,0,0,1,1.88,2.26.34.34,0,0,1-.27.37.33.33,0,0,1-.37-.27,2.47,2.47,0,0,0-1.5-1.76A.33.33,0,0,1,400.29,223.5Z" style="fill:#263238"></path></g><path d="M388.65,299.07,368.34,296s-.63-.5.78-.56,19.39.14,19.39.14Z" style="fill:#35378A"></path><path d="M388.65,299.07,368.83,296s-.62-.5.78-.57,18.9.14,18.9.14Z" style="fill:#35378A"></path><path d="M388.65,299.07,368.83,296s-.62-.5.78-.57,18.9.14,18.9.14Z" style="fill:#fff;opacity:0.2"></path><path d="M384.21,289.27l3.19,1-4.62,6.39s-6.69-2.5-5.28-5.4l1.7-.94C380.66,289.5,382.51,288.66,384.21,289.27Z" style="fill:#ff8b7b"></path><polygon points="390.17 294.75 386.92 297.9 382.78 296.65 387.4 290.27 390.17 294.75" style="fill:#ff8b7b"></polygon><path d="M367,261.34c-2.34,6-3.52,8.86-1.24,12.19s14.59,12.79,17,16.17l-4.55,3.09q-7.49-4.69-15.07-9.2c-3.68-2.2-7.61-4.6-9.39-8.51-2.55-5.6-.67-10.73,2.88-17.6C359.82,257.11,367,261.34,367,261.34Z" style="fill:#ff8b7b"></path><path d="M387.67,299.79l38.79.51a.73.73,0,0,0,.73-.72h0a.72.72,0,0,0-.71-.74l-38.79-.51a.73.73,0,0,0-.74.72h0A.74.74,0,0,0,387.67,299.79Z" style="fill:#263238"></path><path d="M368.94,296.86l18.44,2.89a.72.72,0,0,0,.83-.6h0a.74.74,0,0,0-.61-.84l-18.43-2.89a.74.74,0,0,0-.84.61h0A.73.73,0,0,0,368.94,296.86Z" style="fill:#35378A"></path><path d="M368.94,296.86l18.44,2.89a.72.72,0,0,0,.83-.6h0a.74.74,0,0,0-.61-.84l-18.43-2.89a.74.74,0,0,0-.84.61h0A.73.73,0,0,0,368.94,296.86Z" style="fill:#fff;opacity:0.5"></path><path d="M388.75,298.34l36.16.48a2.6,2.6,0,0,0,2.56-2.29l1.84-18.29a2.1,2.1,0,0,0-2.09-2.35l-36.16-.48a2.61,2.61,0,0,0-2.56,2.29L386.66,296A2.09,2.09,0,0,0,388.75,298.34Z" style="fill:#35378A"></path><path d="M388.75,298.34l36.16.48a2.6,2.6,0,0,0,2.56-2.29l1.84-18.29a2.1,2.1,0,0,0-2.09-2.35l-36.16-.48a2.61,2.61,0,0,0-2.56,2.29L386.66,296A2.09,2.09,0,0,0,388.75,298.34Z" style="opacity:0.4"></path><path d="M389.81,298.28l36.17.47a2.59,2.59,0,0,0,2.55-2.28l1.84-18.3a2.1,2.1,0,0,0-2.08-2.35l-36.17-.47a2.58,2.58,0,0,0-2.55,2.29l-1.85,18.29A2.11,2.11,0,0,0,389.81,298.28Z" style="fill:#35378A"></path><path d="M389.81,298.28l36.17.47a2.59,2.59,0,0,0,2.55-2.28l1.84-18.3a2.1,2.1,0,0,0-2.08-2.35l-36.17-.47a2.58,2.58,0,0,0-2.55,2.29l-1.85,18.29A2.11,2.11,0,0,0,389.81,298.28Z" style="fill:#fff;opacity:0.5"></path><path d="M413.94,288a4.05,4.05,0,0,1-4,3.65,3.28,3.28,0,0,1-3.33-3.65,4.05,4.05,0,0,1,4-3.65A3.28,3.28,0,0,1,413.94,288Z" style="fill:#fff"></path><path d="M367.35,238.57c6.94-1,10.26,5,6.88,13.86a83.53,83.53,0,0,1-6.5,13.76l-14.84-6.73C355.72,250.71,360.26,239.56,367.35,238.57Z" style="fill:#263238"></path><path d="M440.39,338.24H334.73a12.51,12.51,0,0,1-12.5-12.5V208.38a12.5,12.5,0,0,1,12.5-12.5H440.39a12.51,12.51,0,0,1,12.5,12.5V325.74A12.52,12.52,0,0,1,440.39,338.24ZM334.73,196.88a11.51,11.51,0,0,0-11.5,11.5V325.74a11.51,11.51,0,0,0,11.5,11.5H440.39a11.51,11.51,0,0,0,11.5-11.5V208.38a11.51,11.51,0,0,0-11.5-11.5Z" style="fill:#35378A"></path><rect x="435.38" y="191.72" width="5.51" height="0.75" style="fill:#35378A"></rect><rect x="409.46" y="191.72" width="20.37" height="0.75" style="fill:#35378A"></rect></g><g id="freepik--video-call--inject-7"><polygon points="330.12 187.38 259.24 187.38 269.4 71.16 340.28 71.16 330.12 187.38" style="fill:#35378A"></polygon><polygon points="330.12 187.38 259.24 187.38 269.4 71.16 340.28 71.16 330.12 187.38" style="fill:#fff;opacity:0.30000000000000004"></polygon><g style="clip-path:url(#freepik--clip-path--inject-7)"><path d="M298.47,88.85c-5.5,3.22-9.65,8.39-13.32,13.61a40.54,40.54,0,0,0-4.88,8.47,26.45,26.45,0,0,0-.16,17.43c1.75,5.5,3.46,11.13,6.8,15.74,0-1.16,2.58-2.78,3.68-3.27a14.75,14.75,0,0,1,13.31.43,13.33,13.33,0,0,1,6.47,11.08c.36.57,13.7-12.82,16.81-30.69.49-2.81,2.29-26.12-14.74-35.14C308.36,84.35,302.7,86.37,298.47,88.85Z" style="fill:#263238"></path><g id="freepik--character-1--inject-303--inject-7"><path d="M253.91,207.61H325c10.7-39.7,6.77-41.56,6.77-41.56a245.67,245.67,0,0,0-25-5.66,193.49,193.49,0,0,0-27.92-2,187.25,187.25,0,0,0-26.71,1.51C253.64,180.61,254.15,195.55,253.91,207.61Z" style="fill:#35378A"></path><path d="M253.91,207.61H325c10.7-39.7,6.77-41.56,6.77-41.56a245.67,245.67,0,0,0-25-5.66,193.49,193.49,0,0,0-27.92-2,187.25,187.25,0,0,0-26.71,1.51C253.64,180.61,254.15,195.55,253.91,207.61Z" style="fill:#35378A"></path><path d="M253.91,207.61H325c10.7-39.7,6.77-41.56,6.77-41.56a245.67,245.67,0,0,0-25-5.66,193.49,193.49,0,0,0-27.92-2,187.25,187.25,0,0,0-26.71,1.51C253.64,180.61,254.15,195.55,253.91,207.61Z" style="fill:#fff;opacity:0.7000000000000001"></path><path d="M286.65,126.88c.35,9.09-.54,25.85-7.79,31.44,0,0,1,9.34,17.76,10.56,18.36,1.3,10.23-8.55,10.23-8.55-9.63-3.12-8.19-10.59-5.34-17.48Z" style="fill:#ffb573"></path><path d="M278.87,158.39a193.21,193.21,0,0,1,27.9,2l1.82.24c1.54,4.42,1.08,11-5.78,20.19,0,0-22.91-11.67-27.65-22.51Z" style="fill:#ffb573"></path><path d="M292.68,133.4l8.77,9.42a32.85,32.85,0,0,0-1.66,4.93c-3.72-.82-8.92-5.28-8.69-9.34A9.08,9.08,0,0,1,292.68,133.4Z" style="opacity:0.2;isolation:isolate"></path><path d="M279.45,110.53c1.14,15,1.22,21.35,9,28.35,11.65,10.51,30.05,4.3,33.51-11.1,3.08-13.84.82-36-14.11-40.52-10.63-3.31-22.7,2.86-27,13.77A21.24,21.24,0,0,0,279.45,110.53Z" style="fill:#ffb573"></path><path d="M310.77,86.78c.26,7.2-21.57,29.44-32.21,34.91-6.53-10.81-3.29-23.18,1.87-29S296,81.24,310.77,86.78Z" style="fill:#263238"></path><path d="M311.89,87.16c6.8,3.07,12.48,12.82,8.52,11.92S300.69,87.93,311.89,87.16Z" style="fill:#263238"></path><path d="M299.37,113.54c0,1.24.68,2.17,1.49,2.07s1.45-1.13,1.43-2.35-.66-2.15-1.48-2.08S299.36,112.31,299.37,113.54Z" style="fill:#263238"></path><path d="M313.78,110.83c0,1.22.68,2.15,1.5,2.08s1.44-1.14,1.44-2.36-.68-2.17-1.5-2.08S313.78,109.61,313.78,110.83Z" style="fill:#263238"></path><path d="M314.88,108.59l3-1.16S316.35,109.8,314.88,108.59Z" style="fill:#263238"></path><path d="M311.8,114.16a29.6,29.6,0,0,0,4.48,7.39,5.61,5.61,0,0,1-4.39,1.25Z" style="fill:#ed893e"></path><path d="M295.86,108.1a.72.72,0,0,0,.85-.14,9.11,9.11,0,0,1,6.81-1.67.8.8,0,0,0,.88-.61.64.64,0,0,0-.5-.82h0a10.44,10.44,0,0,0-8.1,2.08.72.72,0,0,0-.13,1l0,0Z" style="fill:#263238"></path><path d="M321.82,104a.85.85,0,0,0,.67-.31.73.73,0,0,0-.11-1,6.92,6.92,0,0,0-6.5-.89.77.77,0,0,0-.46.93h0a.68.68,0,0,0,.92.39h0a5.57,5.57,0,0,1,5.12.7A.77.77,0,0,0,321.82,104Z" style="fill:#263238"></path><path d="M300.45,111.31l3-1.13S301.93,112.6,300.45,111.31Z" style="fill:#263238"></path><path d="M309.71,128.21a50.47,50.47,0,0,0-1.53,6l-.9,0c-4.09-.22-5.89-2-6.64-3.85a7.78,7.78,0,0,1-.46-3,8,8,0,0,1,.23-1.73c2.07,1.69,5.86,2.25,7.9,2.45C309.17,128.2,309.71,128.21,309.71,128.21Z" style="fill:#2e353a"></path><path d="M308.31,128.11l-.24.88a1.11,1.11,0,0,1-1.17.82c-3.06-.25-5.27-.92-6.41-2.07a1.08,1.08,0,0,1-.28-.86,6.74,6.74,0,0,1,.2-1.22C302.48,127.35,306.27,127.91,308.31,128.11Z" style="fill:#fff"></path><path d="M307.28,134.22c-4.09-.22-5.89-2-6.64-3.85a11.16,11.16,0,0,1,4.48,1.34A5.36,5.36,0,0,1,307.28,134.22Z" style="fill:#de5753"></path></g><path d="M298.57,81.49a10.93,10.93,0,0,0-5.09-1.41c-2.58.12-4.91,1.9-6.81,3.8-24.58,24.59-21.23,51.21-22.63,57.89a6,6,0,0,0-.16,2.68,4.67,4.67,0,0,0,1,1.82,19.41,19.41,0,0,0,6.07,4.91c6.65,3.44,14.92,3,22.66,1.49-5.29-5.51-7.86-13.1-10.3-20.46a50.22,50.22,0,0,1-2.22-8.23,30.4,30.4,0,0,1,3.62-18.84,38.65,38.65,0,0,1,13.82-14.29,15.36,15.36,0,0,1,3-1.46,7.8,7.8,0,0,1,8.41,2.25c-.26-.33.21-3-.13-3.82a3.85,3.85,0,0,0-2.13-2.08C304.83,84.09,301.57,82.89,298.57,81.49Z" style="fill:#263238"></path><path d="M335.9,207.61a42,42,0,0,0-1.09-5c-1.2-4.21-2.49-8.39-3.68-12.6-2.83-10-4.31-22.06-5.29-32.6-2.61.44-5.17,2.55-7.74,3.28a2.56,2.56,0,0,0-1.5.88,2.38,2.38,0,0,0-.25,1.26c0,8.56.22,28.93.41,44.78Z" style="fill:#ffb573"></path><path d="M317.85,164.33c-6.69-6.92-1.38-15.73-1.38-15.73L332,146.52l-8.3,14.95Z" style="fill:#ffb573"></path><polygon points="332.06 146.44 316.47 148.6 319.01 134.84 330.14 133.95 332.06 146.44" style="fill:#ffb573"></polygon></g><ellipse cx="274.74" cy="173.47" rx="8.22" ry="7.53" transform="matrix(0.72, -0.69, 0.69, 0.72, -43.68, 238.16)" style="fill:#fff"></ellipse><ellipse cx="296.27" cy="173.47" rx="8.22" ry="7.53" transform="matrix(0.72, -0.69, 0.69, 0.72, -37.7, 253.04)" style="fill:#35378A"></ellipse><ellipse cx="317.79" cy="173.47" rx="8.22" ry="7.53" transform="translate(-31.72 267.93) rotate(-43.75)" style="fill:#fff"></ellipse><path d="M302.56,174.83l-.08,1h-3.1l.09-1h.26l.21-1.31c-.7-1.27-2.25-1-3.48-1s-2.52-.16-3.36,1v1.31h.26l-.08,1h-3.1l.09-1h.38l.57-1.35a.3.3,0,0,1,.28-.2h0c1-1.76,2.83-2.23,5.05-2.3s4.3.41,5,2.25l0,.05h0a.25.25,0,0,1,.27.18l.33,1.37Z" style="fill:#fff"></path><rect x="240.5" y="67.15" width="7.24" height="0.75" style="fill:#35378A"></rect><rect x="216.3" y="67.15" width="18.67" height="0.75" style="fill:#35378A"></rect><path d="M341.08,208.12H184.31a12.51,12.51,0,0,1-12.5-12.5V83.16a12.52,12.52,0,0,1,12.5-12.5H341.08a12.51,12.51,0,0,1,12.5,12.5V195.62A12.5,12.5,0,0,1,341.08,208.12ZM184.31,71.66a11.51,11.51,0,0,0-11.5,11.5V195.62a11.51,11.51,0,0,0,11.5,11.5H341.08a11.51,11.51,0,0,0,11.5-11.5V83.16a11.51,11.51,0,0,0-11.5-11.5Z" style="fill:#35378A"></path></g><g id="freepik--mobile-payment--inject-7"><g style="clip-path:url(#freepik--clip-path-2--inject-7)"><g id="freepik--character--inject-7"><path d="M123,289l-2.81,1,2,7.17a23.5,23.5,0,0,0,3.87-3.24,2.92,2.92,0,0,0,.57-3.11l-.11-.28A2.78,2.78,0,0,0,123,289Z" style="fill:#ff8b7b"></path><polygon points="115.32 294 119.93 298.76 122.2 297.23 120.18 290.06 115.32 294" style="fill:#ff8b7b"></polygon><path d="M149.21,248.46c-1.5,4-3,8.2-4.61,12.23-.8,2-1.57,4-2.41,6s-1.65,3.92-2.55,5.73c-.45.91-.9,1.77-1.35,2.56a10.85,10.85,0,0,1-2.82,3.53c-.72.65-1.53,1.29-2.34,2-3.28,2.62-6.86,5.35-10.27,8.23l2.94,5.71a72.1,72.1,0,0,0,13-5.1,36.8,36.8,0,0,0,3.22-1.83,22,22,0,0,0,3.45-2.53,22.6,22.6,0,0,0,2.92-3.55c.76-1.09,1.44-2.16,2.07-3.23a116.88,116.88,0,0,0,6.18-12.68c1.8-4.26,3.41-8.46,4.85-12.91Z" style="fill:#35378A"></path><path d="M149.21,248.46c-1.5,4-3,8.2-4.61,12.23-.8,2-1.57,4-2.41,6s-1.65,3.92-2.55,5.73c-.45.91-.9,1.77-1.35,2.56a10.85,10.85,0,0,1-2.82,3.53c-.72.65-1.53,1.29-2.34,2-3.28,2.62-6.86,5.35-10.27,8.23l2.94,5.71a72.1,72.1,0,0,0,13-5.1,36.8,36.8,0,0,0,3.22-1.83,22,22,0,0,0,3.45-2.53,22.6,22.6,0,0,0,2.92-3.55c.76-1.09,1.44-2.16,2.07-3.23a116.88,116.88,0,0,0,6.18-12.68c1.8-4.26,3.41-8.46,4.85-12.91Z" style="opacity:0.2"></path><path d="M183.75,300.14l.16-.34.05-.1v0c.12-2.09.36-5.7.64-10.05V247.35c-1.26-1.34-3.3-2.47-6.59-2.64l-1.74-.18c-.92-.07-1.85-.12-2.77-.15a126.79,126.79,0,0,0-14.59.23c-.6.06-1.19.13-1.76.22-1.65.24-3.22.54-4.52.83a6.06,6.06,0,0,0-4.6,4.56c-.44,10.15,1.34,29.72,1.52,51.79l33.44-.53A5.24,5.24,0,0,1,183.75,300.14Z" style="fill:#35378A"></path><path d="M183.75,300.14l.16-.34.05-.1v0c.12-2.09.36-5.7.64-10.05V247.35c-1.26-1.34-3.3-2.47-6.59-2.64l-1.74-.18c-.92-.07-1.85-.12-2.77-.15a126.79,126.79,0,0,0-14.59.23c-.6.06-1.19.13-1.76.22-1.65.24-3.22.54-4.52.83a6.06,6.06,0,0,0-4.6,4.56c-.44,10.15,1.34,29.72,1.52,51.79l33.44-.53A5.24,5.24,0,0,1,183.75,300.14Z" style="opacity:0.1"></path><path d="M171,307.29c.69-3.56,1.12-5.7,1.12-5.7l-22.57.37s-.28,2-.73,5.33Z" style="fill:#263238"></path><path d="M181.2,303.82c.31-.26,1.87-2.74,1.67-2.14a2.21,2.21,0,0,1,.12-.27l-21.27.33s.26,2.08.7,5.55h11.86A14.63,14.63,0,0,0,181.2,303.82Z" style="fill:#263238"></path><path d="M162.66,241c-2.91.57-5.34,2.51-7.65,4.38a1.42,1.42,0,0,0-.71,1.66c.14,1.13-.55,3.81-.41,4.94,1-.22,2.61-2.67,2.73-3.68a14.7,14.7,0,0,0,2.61,3.42,3.36,3.36,0,0,0,1.07.77c.75.3,3.36-1.31,5.75-2,2.8-.84,3.6,3.55,4,3.46,1-.2,7.22-8.77,6.93-9.73a5.51,5.51,0,0,0-1.83-2.35A7,7,0,0,0,172.1,240a39.58,39.58,0,0,0-6.76-.07Z" style="fill:#35378A"></path><g style="opacity:0.5"><path d="M162.66,241c-2.91.57-5.34,2.51-7.65,4.38a1.42,1.42,0,0,0-.71,1.66c.14,1.13-.55,3.81-.41,4.94,1-.22,2.61-2.67,2.73-3.68a14.7,14.7,0,0,0,2.61,3.42,3.36,3.36,0,0,0,1.07.77c.75.3,3.36-1.31,5.75-2,2.8-.84,3.6,3.55,4,3.46,1-.2,7.22-8.77,6.93-9.73a5.51,5.51,0,0,0-1.83-2.35A7,7,0,0,0,172.1,240a39.58,39.58,0,0,0-6.76-.07Z" style="fill:#fff"></path></g><path d="M171.8,228c-.72,4-1.39,10.8.45,14.66a2.24,2.24,0,0,1-1.13,3,75.59,75.59,0,0,1-10.26,3.49,10.48,10.48,0,0,1-1-1,2.77,2.77,0,0,1,.93-4.22c3.23-1.72,3-5,2.14-8.13Z" style="fill:#ffb573"></path><path d="M168.19,231.17l-5.23,4.6a16.32,16.32,0,0,1,.5,2.58c2-.32,4.71-2.55,4.89-4.65A7,7,0,0,0,168.19,231.17Z" style="opacity:0.2;isolation:isolate"></path><path d="M172.24,220.9c-.29,6.37-.13,10.1-3.29,13.42-4.76,5-12.64,2.19-14.26-4.13-1.46-5.69-.73-15.14,5.44-17.76a8.67,8.67,0,0,1,12.11,8.47Z" style="fill:#ffb573"></path><path d="M178.68,224.93a2.71,2.71,0,0,1-2.31,1.88,2.28,2.28,0,0,1-.6,2.31,4,4,0,0,1-2.25,1,2,2,0,0,1-1.45,2.25,1.64,1.64,0,0,1-1.87-1.72,2.68,2.68,0,0,1,.79-1l-3.59-2.19.7-6.05-2.68-2.32-.59-4.21s8.44-.77,10.88-.61c1.37.08,1.74,2.12,1.79,3.89a.27.27,0,0,1,.13,0c1.49.12.76,3.23.17,3.86A2.71,2.71,0,0,1,178.68,224.93Z" style="fill:#263238"></path><path d="M160.69,230h0a4.66,4.66,0,0,0,3.83-2,.15.15,0,0,0-.09-.21.16.16,0,0,0-.18,0,4.46,4.46,0,0,1-3.58,1.82.15.15,0,0,0-.16.17h0a.15.15,0,0,0,.17.14Z" style="fill:#263238"></path><path d="M175,226.91a6,6,0,0,1-3.25,3.3c-2,.82-3.19-.87-2.86-2.88.3-1.78,1.68-4.36,3.75-4.33A2.72,2.72,0,0,1,175,226.91Z" style="fill:#ffb573"></path><path d="M162.63,222.85c.05.51-.25.93-.6.94s-.62-.41-.62-.92.26-1,.6-1S162.63,222.32,162.63,222.85Z" style="fill:#263238"></path><path d="M156.78,222.93c.05.52-.26.95-.59.95s-.62-.41-.63-.93.26-.93.6-.94S156.77,222.42,156.78,222.93Z" style="fill:#263238"></path><path d="M158.65,223.16a18.72,18.72,0,0,1-2.41,4.47,2.9,2.9,0,0,0,2.55.29Z" style="fill:#ed893e"></path><path d="M164.42,220.92a.28.28,0,0,1-.3-.11,2.41,2.41,0,0,0-2-1,.31.31,0,0,1-.06-.61h0a3,3,0,0,1,2.5,1.22.3.3,0,0,1,0,.42A.18.18,0,0,1,164.42,220.92Z" style="fill:#263238"></path><path d="M154.24,221a.28.28,0,0,1-.18,0,.31.31,0,0,1-.15-.41,3,3,0,0,1,2.2-1.75.32.32,0,0,1,.34.26.3.3,0,0,1-.26.34h0a2.4,2.4,0,0,0-1.69,1.4A.31.31,0,0,1,154.24,221Z" style="fill:#263238"></path><rect x="126.4" y="271.77" width="31.11" height="31.11" style="fill:#35378A"></rect><rect x="126.4" y="271.77" width="31.11" height="31.11" style="fill:#fff;opacity:0.2"></rect><rect x="112.26" y="271.77" width="31.11" height="31.11" style="fill:#35378A"></rect><rect x="112.26" y="271.77" width="31.11" height="31.11" style="fill:#fff;opacity:0.5"></rect><path d="M174.78,251.18c-2.73,7.37-2.41,12.23.26,14.74.36-.92.72-1.84,1.11-2.77,1.42-3.48,3-7.06,4.8-10.62Z" style="opacity:0.2;isolation:isolate"></path><path d="M154,292.68l-6.49.66,4.15,7.06s5.4-1.78,4.78-4.74Z" style="fill:#ffb573"></path><polygon points="143.68 297.04 147.39 302.73 151.73 300.43 147.58 293.36 143.68 297.04" style="fill:#ffb573"></polygon><path d="M184.61,246.33a5,5,0,0,0-6.41.47l-2,1.91a5.08,5.08,0,0,0-1.54,3.2l-.13,1.35-.35,3.32c-.25,2.22-.54,4.43-.86,6.6a73.11,73.11,0,0,1-2.82,12.39c-.24,2.13-3.79,5.36-7.06,8.24s-7,5.81-10.59,8.72l3.11,5.62c2.34-.86,4.52-1.82,6.72-2.86s4.35-2.19,6.5-3.44a52.74,52.74,0,0,0,6.35-4.34,24.82,24.82,0,0,0,3.2-3,13.79,13.79,0,0,0,1.65-2.3c.31-.56.41-.79.58-1.11s.31-.62.45-.93a52.85,52.85,0,0,0,2.76-7.38c.16-.52.3-1,.45-1.56Z" style="fill:#35378A"></path><path d="M184.61,246.33a5,5,0,0,0-6.41.47l-2,1.91a5.08,5.08,0,0,0-1.54,3.2l-.13,1.35-.35,3.32c-.25,2.22-.54,4.43-.86,6.6a73.11,73.11,0,0,1-2.82,12.39c-.24,2.13-3.79,5.36-7.06,8.24s-7,5.81-10.59,8.72l3.11,5.62c2.34-.86,4.52-1.82,6.72-2.86s4.35-2.19,6.5-3.44a52.74,52.74,0,0,0,6.35-4.34,24.82,24.82,0,0,0,3.2-3,13.79,13.79,0,0,0,1.65-2.3c.31-.56.41-.79.58-1.11s.31-.62.45-.93a52.85,52.85,0,0,0,2.76-7.38c.16-.52.3-1,.45-1.56Z" style="fill:#35378A"></path></g><path d="M177.78,217.44a2.81,2.81,0,0,1-1.08.17c-2.29.06-5,.1-7.85.11h0c-2.56.82-6,1.77-8.58,2.48a2.14,2.14,0,0,1-1,.1c-.66-.16-1-.86-1.4-1.4a4,4,0,0,0-2.41-1.43,2.32,2.32,0,0,0-.38-.06,5.09,5.09,0,0,0-1.51,0,8.52,8.52,0,0,0-4.15,2.25,3.51,3.51,0,0,1-1.65,1,2.91,2.91,0,0,1,.64-2.95c.69-.8,5.48-3.6,5.48-3.6s.15,0,.35-.06a10,10,0,0,1,1.17-4.35,9.75,9.75,0,0,1,6.55-4.36c4.7-.79,8.19-1.7,12.36,1.25,2.66,1.88,4.41,5.29,3.73,8.51C177.85,216,178.52,217.14,177.78,217.44Z" style="fill:#35378A"></path><path d="M177.78,217.44a2.81,2.81,0,0,1-1.08.17c-2.29.06-5,.1-7.85.11h0c-2.56.82-6,1.77-8.58,2.48a2.14,2.14,0,0,1-1,.1c-.66-.16-1-.86-1.4-1.4a4,4,0,0,0-2.41-1.43,2.32,2.32,0,0,0-.38-.06,5.09,5.09,0,0,0-1.51,0,8.52,8.52,0,0,0-4.15,2.25,3.51,3.51,0,0,1-1.65,1,2.91,2.91,0,0,1,.64-2.95c.69-.8,5.48-3.6,5.48-3.6s.15,0,.35-.06a10,10,0,0,1,1.17-4.35,9.75,9.75,0,0,1,6.55-4.36c4.7-.79,8.19-1.7,12.36,1.25,2.66,1.88,4.41,5.29,3.73,8.51C177.85,216,178.52,217.14,177.78,217.44Z" style="fill:#fff;opacity:0.5"></path><rect x="113.51" y="297.22" width="5.96" height="4.27" style="fill:#fff"></rect><path d="M125.15,285.42a9,9,0,0,0,2-.35.18.18,0,0,0,.12-.21.2.2,0,0,0-.08-.1c-.25-.16-2.42-1.52-3.31-1.11a.66.66,0,0,0-.38.52,1,1,0,0,0,.25.92A2,2,0,0,0,125.15,285.42Zm1.47-.58c-1.32.33-2.33.33-2.66,0a.64.64,0,0,1-.15-.61A.3.3,0,0,1,124,284C124.47,283.76,125.74,284.33,126.62,284.84Z" style="fill:#35378A"></path><path d="M127.08,285.08h.08a.18.18,0,0,0,.08-.15c0-.09.07-2.24-.71-2.93a.86.86,0,0,0-.78-.2.66.66,0,0,0-.61.55c-.14.78,1,2.32,1.81,2.73Zm-1.16-3a.48.48,0,0,1,.38.13,3.88,3.88,0,0,1,.6,2.33c-.68-.52-1.47-1.66-1.38-2.2,0-.1.07-.23.32-.27Z" style="fill:#35378A"></path><path d="M128.57,284l8.36-.24a.53.53,0,0,1,.58.49l.6,6.6a1.33,1.33,0,0,1-1.28,1.37c-2.9,0-4.3-.1-8,0a67.14,67.14,0,0,1-9.82,0c-3.1-.41-2.62-3.45-1.28-3.56,3.2-.25,7.49-2.45,9.55-4.16A2,2,0,0,1,128.57,284Z" style="fill:#263238"></path></g><path d="M57.79,236.27,44.92,243s-1.25,48.24,0,54.89,7.65,8.7,7.65,8.7l13-10.15Z" style="fill:#ff8b7b"></path><g id="freepik--group--inject-7"><path d="M98.4,307.34H55a6.72,6.72,0,0,1-6.81-7.45l8.27-94.51a8.3,8.3,0,0,1,8.11-7.45H108a6.72,6.72,0,0,1,6.8,7.45l-8.26,94.51A8.3,8.3,0,0,1,98.4,307.34Z" style="fill:#35378A"></path><path d="M98.4,307.34H55a6.72,6.72,0,0,1-6.81-7.45l8.27-94.51a8.3,8.3,0,0,1,8.11-7.45H108a6.72,6.72,0,0,1,6.8,7.45l-8.26,94.51A8.3,8.3,0,0,1,98.4,307.34Z" style="opacity:0.1"></path><g style="opacity:0.8"><path d="M76.86,304.17a3.43,3.43,0,0,1-3.48-3.82,4.2,4.2,0,0,1,4.1-3.77,3.47,3.47,0,0,1,2.6,1.11A3.53,3.53,0,0,1,81,300.4h0A4.21,4.21,0,0,1,76.86,304.17Zm.62-7.09a3.7,3.7,0,0,0-3.61,3.32,3,3,0,0,0,.76,2.32,3,3,0,0,0,2.23.95,3.69,3.69,0,0,0,3.61-3.32h0a2.95,2.95,0,0,0-3-3.27Z" style="fill:#fff"></path></g><g style="opacity:0.8"><path d="M92.58,206.63H78.52a1.45,1.45,0,0,1-1.46-1.6l0-.32a1.72,1.72,0,0,1,1.69-1.55H92.84a1.43,1.43,0,0,1,1.08.46,1.46,1.46,0,0,1,.37,1.13l0,.33A1.73,1.73,0,0,1,92.58,206.63Zm-13.8-3a1.21,1.21,0,0,0-1.19,1.09l0,.33a.95.95,0,0,0,1,1H92.58a1.23,1.23,0,0,0,1.19-1.1l0-.32a1,1,0,0,0-.24-.75,1,1,0,0,0-.71-.3Z" style="fill:#fff"></path></g><polygon points="89.78 198.27 65.56 307.34 80.11 307.34 104.09 198.27 89.78 198.27" style="fill:#fff;opacity:0.1;isolation:isolate"></polygon><polygon points="78.45 198.27 54.23 307.34 61.57 307.34 85.55 198.27 78.45 198.27" style="fill:#fff;opacity:0.1;isolation:isolate"></polygon><polygon points="102.93 292 52.91 292 59.96 211.39 109.98 211.39 102.93 292" style="fill:#35378A"></polygon><polygon points="102.93 292 52.91 292 59.96 211.39 109.98 211.39 102.93 292" style="fill:#fff;opacity:0.7000000000000001"></polygon><path d="M79.52,227.62a14.48,14.48,0,0,0,3-.54.28.28,0,0,0,.2-.32.2.2,0,0,0-.1-.15c-.35-.23-3.46-2.31-4.86-1.67a1.12,1.12,0,0,0-.65.77,1.36,1.36,0,0,0,.27,1.41A2.86,2.86,0,0,0,79.52,227.62Zm2.32-.88c-2,.48-3.57.5-4,0a.92.92,0,0,1-.16-.93.52.52,0,0,1,.31-.38C78.72,225.1,80.56,226,81.84,226.74Z" style="fill:#35378A"></path><path d="M82.5,227.09h.11a.27.27,0,0,0,.15-.21c0-.15.41-3.4-.69-4.44a1.22,1.22,0,0,0-1.16-.32,1.14,1.14,0,0,0-1,.84c-.31,1.18,1.28,3.51,2.38,4.13A.34.34,0,0,0,82.5,227.09Zm-1.36-4.5a.69.69,0,0,1,.55.21c.66.62.67,2.47.6,3.52-1-.79-2-2.52-1.79-3.33,0-.15.13-.34.51-.41Z" style="fill:#35378A"></path><path d="M84.9,225.5l12.7-.36a.72.72,0,0,1,.8.74l0,10A2.22,2.22,0,0,1,96.32,238c-4.4,0-6.51-.14-12.09,0-3.44.1-10.22.59-14.87,0s-3.51-5.23-1.46-5.41c4.88-.37,11.67-3.7,15-6.3A3.43,3.43,0,0,1,84.9,225.5Z" style="fill:#263238"></path><path d="M87.28,253.1H75.34l-2-7.7h17.2Zm-11.14-1H86.65l2.45-5.7H74.69Z" style="fill:#35378A"></path><polygon points="87.17 256.01 75.44 256.01 75.53 255.01 86.25 255.01 86.47 252.6 87.47 252.6 87.17 256.01" style="fill:#35378A"></polygon><polygon points="87.42 252.76 86.51 252.44 89.53 245.4 92.76 245.4 92.67 246.4 90.15 246.4 87.42 252.76" style="fill:#35378A"></polygon><path d="M76.33,260a1.59,1.59,0,0,1-1.62-1.77,2,2,0,0,1,1.93-1.77,1.6,1.6,0,0,1,1.61,1.77A2,2,0,0,1,76.33,260Zm.22-2.54a.86.86,0,0,0-.84.77.69.69,0,0,0,.7.77.85.85,0,0,0,.84-.77A.7.7,0,0,0,76.55,257.47Z" style="fill:#35378A"></path><path d="M85.08,260a1.59,1.59,0,0,1-1.61-1.77,2,2,0,0,1,1.92-1.77A1.61,1.61,0,0,1,87,258.24,2,2,0,0,1,85.08,260Zm.23-2.54a.86.86,0,0,0-.84.77.69.69,0,0,0,.7.77.85.85,0,0,0,.84-.77A.7.7,0,0,0,85.31,257.47Z" style="fill:#35378A"></path></g><path d="M117.54,205.38l-8.26,94.51a8.31,8.31,0,0,1-8.12,7.45H98.4a8.3,8.3,0,0,0,8.11-7.45l8.26-94.51a6.72,6.72,0,0,0-6.8-7.45h2.77A6.72,6.72,0,0,1,117.54,205.38Z" style="fill:#35378A"></path><path d="M117.54,205.38l-8.26,94.51a8.31,8.31,0,0,1-8.12,7.45H98.4a8.3,8.3,0,0,0,8.11-7.45l8.26-94.51a6.72,6.72,0,0,0-6.8-7.45h2.77A6.72,6.72,0,0,1,117.54,205.38Z" style="fill:#fff;opacity:0.5"></path><rect x="113.83" y="223.34" width="3.65" height="0.76" transform="matrix(0.07, -1, 1, 0.07, -115.82, 322.92)" style="fill:#35378A"></rect><rect x="111.11" y="213.01" width="10.58" height="0.76" transform="translate(-104.84 314.09) rotate(-85.86)" style="fill:#35378A"></rect><path d="M88.8,276.33H67.35A4.26,4.26,0,0,1,63,271.61h0a5.27,5.27,0,0,1,5.14-4.73H89.63a4.26,4.26,0,0,1,4.31,4.73h0A5.27,5.27,0,0,1,88.8,276.33Z" style="fill:#35378A"></path><path d="M44.92,268.15,64.35,265l2.69.29a4.52,4.52,0,0,1,3.84,5.85c-.8,2.55-1.67,5.06-2,5.06-.71,0-20,15.77-20,15.77s-4.16,3.83-3.93-1.1Z" style="fill:#ff8b7b"></path><text transform="matrix(0.99, 0, -0.17, 0.99, 73.59, 274.04)" style="font-size:6.1679301261901855px;fill:#fff;font-family:Gilroy-ExtraBold, Gilroy;font-weight:800;letter-spacing:-0.07000020765020465em">P<tspan x="3.21" y="0" style="letter-spacing:-0.08993138043694487em">A</tspan><tspan x="6.85" y="0" style="letter-spacing:-0.00008036763220459775em">Y</tspan></text><path d="M172.6,307.88H56.92a12.52,12.52,0,0,1-12.5-12.5V188a12.52,12.52,0,0,1,12.5-12.5H172.6A12.52,12.52,0,0,1,185.1,188V295.38A12.52,12.52,0,0,1,172.6,307.88ZM56.92,176.45A11.51,11.51,0,0,0,45.42,188V295.38a11.51,11.51,0,0,0,11.5,11.5H172.6a11.51,11.51,0,0,0,11.5-11.5V188a11.51,11.51,0,0,0-11.5-11.5Z" style="fill:#35378A"></path><rect x="160.14" y="171.6" width="4.72" height="0.75" style="fill:#35378A"></rect><rect x="133.42" y="171.6" width="21.37" height="0.75" style="fill:#35378A"></rect></g><g id="freepik--electric-board--inject-7"><polygon points="199.32 413.77 149.22 413.77 144.55 400.15 203.98 400.15 199.32 413.77" style="fill:#263238"></polygon><polygon points="183.67 411.66 183.67 407 173.31 408.79 185.24 404.61 185.24 409.26 195.59 407.48 183.67 411.66" style="fill:#35378A"></polygon><circle cx="161.74" cy="412.65" r="8.35" transform="translate(-277.04 475.26) rotate(-76.72)" style="fill:#35378A"></circle><path d="M166.89,412.58a5.08,5.08,0,1,1-5.08-5.08A5.07,5.07,0,0,1,166.89,412.58Z" style="fill:#263238"></path><circle cx="161.74" cy="412.65" r="1.53" style="fill:#fff"></circle><polygon points="272.01 413.9 249.09 413.9 244.42 400.27 276.68 400.27 272.01 413.9" style="fill:#263238"></polygon><circle cx="261.55" cy="412.65" r="8.35" transform="translate(-187.67 604.73) rotate(-80.78)" style="fill:#35378A"></circle><path d="M266.71,412.58a5.09,5.09,0,1,1-5.08-5.08A5.08,5.08,0,0,1,266.71,412.58Z" style="fill:#263238"></path><circle cx="261.55" cy="412.65" r="1.53" style="fill:#fff"></circle><ellipse cx="212.37" cy="394.39" rx="100.75" ry="9.48" style="fill:#263238"></ellipse><path d="M313.1,391.91l0,2.38s.18,1.67-4.54,2.82S308,395,308,395,311.64,394.39,313.1,391.91Z" style="fill:#263238"></path><ellipse cx="212.37" cy="392.05" rx="100.75" ry="9.48" style="fill:#35378A"></ellipse><ellipse cx="212.37" cy="392.05" rx="100.75" ry="9.48" style="fill:#fff;opacity:0.30000000000000004"></ellipse><path d="M111.61,391.54v2.85s-.18,1.67,4.54,2.83.64-2.16.64-2.16S112.51,394.39,111.61,391.54Z" style="fill:#263238"></path></g><g id="freepik--character--inject-7"><g id="freepik--line-effect--inject-7"><path d="M110,355.3h-7.42v-.75c12.4,0,25.1,0,37.72-.19v.75C130.2,355.23,120,355.3,110,355.3Z" style="fill:#35378A"></path><path d="M96.48,355.26c-5.33,0-10.78-.09-16.19-.16v-.75c5.41.07,10.86.13,16.19.16Z" style="fill:#35378A"></path><rect x="68.79" y="354.35" width="6.06" height="0.75" style="fill:#35378A"></rect><rect x="191.61" y="370.12" width="38.04" height="0.75" style="fill:#35378A"></rect><rect x="184.41" y="370.12" width="3.1" height="0.75" style="fill:#35378A"></rect><rect x="242.91" y="326.16" width="17.29" height="0.75" style="fill:#35378A"></rect><rect x="228.76" y="326.16" width="9.74" height="0.75" style="fill:#35378A"></rect></g><polygon points="273.25 384.91 281.44 384.92 282.44 365.33 272.63 365.71 273.25 384.91" style="fill:#ff8b7b"></polygon><path d="M281.38,380.39l-9,.45a.73.73,0,0,0-.68.61l-1.37,10a1.2,1.2,0,0,0,1,1.39,1.22,1.22,0,0,0,.27,0c3.24-.22,7.92-.65,12-.85,4.77-.25,5.57,0,11.16-.29,3.39-.17,4.15-3.64,2.72-3.87-6.52-1.08-8.33-3.74-14.08-6.89A3.78,3.78,0,0,0,281.38,380.39Z" style="fill:#263238"></path><polygon points="283.49 363.7 282.05 373.73 272.85 374.1 273.11 364.12 283.49 363.7" style="opacity:0.2;isolation:isolate"></polygon><path d="M284.27,382h0c1.34.2,3.71.41,4.58-.44a1.11,1.11,0,0,0,.32-1,.61.61,0,0,0-.36-.5c-1-.49-4.25,1.34-4.61,1.55a.2.2,0,0,0,0,.22A.16.16,0,0,0,284.27,382Zm4.38-1.57h.05a.23.23,0,0,1,.13.21.67.67,0,0,1-.2.63c-.49.48-1.85.66-3.68.41,1.29-.69,3.07-1.48,3.69-1.26Z" style="fill:#35378A"></path><path d="M284.27,382a.21.21,0,0,0,.15,0c1-.5,2.85-2.38,2.67-3.3,0-.21-.21-.48-.76-.51a1.46,1.46,0,0,0-1.09.39c-1,.91-1.11,3.14-1.12,3.24a.2.2,0,0,0,.09.17Zm2.25-3.4a.2.2,0,0,1,.18.17c.11.55-1.16,2-2.13,2.65a4.62,4.62,0,0,1,.95-2.6,1,1,0,0,1,.79-.29Z" style="fill:#35378A"></path><polygon points="133.68 375.13 137.74 382.24 155.24 373.4 150.05 365.07 133.68 375.13" style="fill:#ff8b7b"></polygon><path d="M148.42,394.39c-3-.08-4.6-.2-6.18-.32a16.41,16.41,0,0,1-11.44-5.83c-2.45-3-3.73-5.71-5.19-7.06a1.73,1.73,0,0,1-.17-.21,1.21,1.21,0,0,1,.32-1.68l9.48-6.69a.71.71,0,0,1,.9.07l5.23,7.05a3.83,3.83,0,0,1,1,1.84c.32,1.24.55,2.35.75,3.39a5,5,0,0,0,2.22,3.25,19.51,19.51,0,0,0,6.09,2.53C152.84,391.08,151.8,394.47,148.42,394.39Z" style="fill:#263238"></path><polygon points="157.17 373.5 147.75 377.23 142.87 369.42 151.66 364.7 157.17 373.5" style="opacity:0.2;isolation:isolate"></polygon><path d="M142.21,382.91h0c.78,1.11,2.26,3,3.47,3a1.07,1.07,0,0,0,.91-.43.57.57,0,0,0,.12-.6c-.34-1.07-3.89-2.16-4.3-2.28a.18.18,0,0,0-.18.12A.15.15,0,0,0,142.21,382.91Zm4.15,2.1,0,0a.26.26,0,0,1-.06.24.7.7,0,0,1-.6.29c-.68,0-1.75-.89-2.83-2.38,1.39.45,3.18,1.2,3.46,1.8Z" style="fill:#35378A"></path><path d="M142.21,382.91a.2.2,0,0,0,.08.13c1,.36,3.69.43,4.23-.33.12-.18.2-.48-.15-.9a1.47,1.47,0,0,0-1-.53c-1.35-.1-3.05,1.35-3.12,1.42a.18.18,0,0,0-.07.18Zm4-.7c.09.14,0,.22,0,.24-.32.47-2.25.55-3.38.28a4.63,4.63,0,0,1,2.54-1.1,1,1,0,0,1,.75.38Z" style="fill:#35378A"></path><path d="M193.13,264.29a2.93,2.93,0,0,0,1.44,3.24c6.61,4.61,13.87,11,21.51,13.57a19.33,19.33,0,0,0,6.66,1.3,17.42,17.42,0,0,0,3.58-.55c7.6-1.79,20.52-3.47,26.47-8.53-8.73-4.28-17.49-17.68-17.49-17.68-4.81-.29-14.09-3-18.34-5.32-3.57-1.9-7.86-7.84-11.6-8.56C197.29,240.21,193.32,258.84,193.13,264.29Z" style="fill:#35378A"></path><path d="M206.64,266.64c.3,4.79,2.85,9.15,5.82,12.92,13.07,16.55,34.23,24.28,50.31,37.92a14.93,14.93,0,0,1,3.85,4.35,16.31,16.31,0,0,1,1.34,6.51q1.17,17.75,2.33,35.5c.18,2.65.49,5.59,2.49,7.34,1.5,1.31,4.43-1.1,6.41-.86,1.7.21,3.3,1.43,4.77.57,2.09-1.23,2-2.31,2.28-4.71l1.8-15.69c1.41-12.24,2.81-24.64,1.18-36.86a29.13,29.13,0,0,0-2.62-9.5,35.44,35.44,0,0,0-5.61-7.38c-4.29-4.68-49.6-41.42-59-45.31C213.65,248,206.17,259.09,206.64,266.64Z" style="fill:#35378A"></path><path d="M212.38,280.39s6.71,8.49,27.15,21.14c5,3.1,16.67,10.85,16.67,10.85C260.26,314.63,212,265.54,212.38,280.39Z" style="opacity:0.2"></path><path d="M195.65,253.76c-3.79,2.94-8.23,55-10.43,76a15,15,0,0,1-1.42,5.63,16.33,16.33,0,0,1-4.63,4.78l-28,21.93c-2.08,1.64-4.34,3.56-4.65,6.19-.24,2,.69,3.89,1.61,5.67.78,1.52,1.67,3.14,3.22,3.87,2.19,1,4.74-.11,6.88-1.24l14-7.35c10.91-5.74,21.94-11.57,31.12-19.8a29,29,0,0,0,6.37-7.52,35,35,0,0,0,2.93-8.79c1.45-6.19,7.95-35.44,8.15-44,.23-10.2,2.12-17,0-27C218.92,253.31,201.63,249.11,195.65,253.76Z" style="fill:#35378A"></path><polygon points="151.77 380.97 143.41 366.51 148.62 361.06 158.55 378.64 151.77 380.97" style="fill:#263238"></polygon><polygon points="286.16 371.9 269.1 372.06 268.26 365.98 287.72 365.76 286.16 371.9" style="fill:#263238"></polygon><path d="M328.29,181l1.76-3.86,9.89,3.67a33.63,33.63,0,0,1-5,5.11,4.15,4.15,0,0,1-4.47.44l-.38-.18A4,4,0,0,1,328.29,181Z" style="fill:#ff8b7b"></path><polygon points="336.19 170.71 342.39 177.76 339.95 180.78 330.06 177.11 336.19 170.71" style="fill:#ff8b7b"></polygon><path d="M259.77,202.82c10.36.59,28.38.17,32-.07,4.76-.31,9.35-1.85,13.85-3.44,8.34-3,16.6-6.14,24.86-9.33a2.26,2.26,0,0,0,1.24-.83,2.32,2.32,0,0,0-.09-1.89c-.84-2.42-1.69-4.83-2.53-7.24a3.45,3.45,0,0,0-1.13-1.84c-.88-.59-2.06-.23-3.06.15-10.91,4.14-21.94,8.66-33.6,9.29-8.22.44-20.54-1.69-28.51-3.54C239,178.56,254.68,202.52,259.77,202.82Z" style="fill:#263238"></path><path d="M257.35,216.54c-7.85,24.23-16.11,37.09-18.55,40.27-.53.69-4.53,1.58-5.31,1.55-22.38-.89-39.4-17.78-47.24-15.16,5-18,25-23.26,27.2-35.58.46-2.54.8-5.09,1-7.63a23.68,23.68,0,0,0,0-4.61c-.3-2.59-1.21-5-3.37-6.25-1.94-1.16-4.36-1-6.53-1.68s-4.35-2.72-3.59-4.85a5.13,5.13,0,0,1,2.16-2.29c4-2.71,8.31-5.31,10.57-9.53.95-1.78,1.52-3.83,2.95-5.25,5.9-5.8,14.94,3.11,19.78,6.2,3.09,2,5.73,4.48,8.79,6.47,3.21,2.09,9.29,3.75,13.73,4.91C262.93,184.16,258.73,212.27,257.35,216.54Z" style="fill:#263238"></path><path d="M257.35,216.54c-7.85,24.23-16.11,37.09-18.55,40.27-.53.69-4.53,1.58-5.31,1.55-22.38-.89-39.4-17.78-47.24-15.16,5-18,25-23.26,27.2-35.58.46-2.54.8-5.09,1-7.63a23.68,23.68,0,0,0,0-4.61c-.3-2.59-1.21-5-3.37-6.25-1.94-1.16-4.36-1-6.53-1.68s-4.35-2.72-3.59-4.85a5.13,5.13,0,0,1,2.16-2.29c4-2.71,8.31-5.31,10.57-9.53.95-1.78,1.52-3.83,2.95-5.25,5.9-5.8,14.94,3.11,19.78,6.2,3.09,2,5.73,4.48,8.79,6.47,3.21,2.09,9.29,3.75,13.73,4.91C262.93,184.16,258.73,212.27,257.35,216.54Z" style="opacity:0.1"></path><path d="M229,185.22c-1,23.17-9.2,45.33-17.73,66.9,3.41,2.46,13.24,5.9,20.21,5.9,9.83-17.95,21.08-41.94,21.34-66.66a13.87,13.87,0,0,0-1.19-6.73c-1.11-2.08-1.66-2.32-3.76-3.39C239,176.69,229.51,172.69,229,185.22Z" style="fill:#fff"></path><path d="M237.28,159.54c.15,5.15-1.87,13-3.05,18.54-1.1,5.12,11.16,12.26,11.16,12.26s6.45-3.4,3-7.76c-2.89-3.65-2.66-7.11-1-11Z" style="fill:#ff8b7b"></path><path d="M241.41,164.49l6,7.12a20.63,20.63,0,0,0-1.16,3.31c-2.58-.81-5.72-4.31-5.54-7.11A9.44,9.44,0,0,1,241.41,164.49Z" style="opacity:0.2;isolation:isolate"></path><path d="M251.93,158.76c3.74-8.16,2.66-12.64,6.41-17.07,2.08-1,6,2.7,3.79,9.46S251.93,158.76,251.93,158.76Z" style="fill:#263238"></path><path d="M238.1,150.11c-.88,8.47-1.82,13.38,1.69,18.39,5.29,7.53,16.28,5.41,19.67-2.63,3.05-7.22,4-19.86-3.67-24.56a11.61,11.61,0,0,0-17.69,8.8Z" style="fill:#ff8b7b"></path><path d="M238,157.1l5.14,2.76.28-8.14,4-2.53,1.62-5.45s-11-2.69-14.26-3c-1.14-.1-1.92.89-2.45,2.21a10.66,10.66,0,0,0,2.24,11A23.31,23.31,0,0,0,238,157.1Z" style="fill:#263238"></path><path d="M251.56,164.44h0a6.24,6.24,0,0,1-4.67-3.35.21.21,0,0,1,.16-.26.21.21,0,0,1,.23.09,5.93,5.93,0,0,0,4.38,3.12.21.21,0,0,1,.17.25h0a.2.2,0,0,1-.25.15Z" style="fill:#263238"></path><path d="M233.25,157.5a8.1,8.1,0,0,0,3.63,5c2.43,1.47,4.41-.52,4.36-3.24,0-2.41-1.35-6.09-4.09-6.47S232.66,155,233.25,157.5Z" style="fill:#ff8b7b"></path><path d="M250.42,154.59c-.16.67.15,1.29.6,1.37s.9-.42,1-1.1-.16-1.3-.6-1.37S250.53,153.9,250.42,154.59Z" style="fill:#263238"></path><path d="M258.13,155.87c-.16.68.16,1.3.6,1.37s.91-.41,1-1.1-.16-1.29-.61-1.37S258.25,155.19,258.13,155.87Z" style="fill:#263238"></path><path d="M255.62,155.8a25,25,0,0,0,2.3,6.39c-1.4.92-3.43-.12-3.43-.12Z" style="fill:#ff5652"></path><path d="M248.44,151.69a.37.37,0,0,0,.41-.08,3.26,3.26,0,0,1,2.8-.91.41.41,0,0,0,.49-.3.4.4,0,0,0-.3-.49h0A4,4,0,0,0,248.3,151a.41.41,0,0,0,0,.57A.27.27,0,0,0,248.44,151.69Z" style="fill:#263238"></path><path d="M261.88,153.77a.48.48,0,0,0,.24.06.42.42,0,0,0,.28-.51,4,4,0,0,0-2.55-2.75.41.41,0,1,0-.23.78h0a3.26,3.26,0,0,1,2,2.19A.4.4,0,0,0,261.88,153.77Z" style="fill:#263238"></path><path d="M261.65,138.08a7.15,7.15,0,0,0-3.73-5.42c-2.28-1.38-8.42-3.31-11-6.68-.16,1.42.53,4.57,5.05,7.59-2.85-2-3.07-.84-5.05-1.29-2.4-.53-4.93-2-5.81-4.32-.33,3,.92,4.84,3.18,6.85a14.13,14.13,0,0,1-8-5.67,11,11,0,0,0,1.82,5.93,13.45,13.45,0,0,1-7.21-6.21,28.6,28.6,0,0,0,.11,7.79,9.59,9.59,0,0,0,4.08,6.41,12.77,12.77,0,0,0,4,1.38,65.7,65.7,0,0,0,16.49,1.47A6.46,6.46,0,0,0,261.65,138.08Z" style="fill:#263238"></path><path d="M224.12,186.4s.51,13-3.53,18.64c-1.61,2.26-2.92,3.29-3.9,3.71q.23-3.87.09-7.7a23.06,23.06,0,0,0-.58-4.57l.46-3.17Z" style="opacity:0.4"></path><path d="M215.41,259.07l8.11,5.95-11.06,6.15s-5.78-6.59-2.63-10.05Z" style="fill:#ff8b7b"></path><polygon points="225.77 272.98 216.38 277.64 212.41 271.18 223.47 265.03 225.77 272.98" style="fill:#ff8b7b"></polygon><path d="M198.82,222c-1,13.32,5.19,28.09,8,41.14,4.35,1.14,14.52-1.62,11.55-9.09,0,0-2.21-11.58-5.33-30.35a11.94,11.94,0,0,1,.39-5.54c1.61-5.12,7.29-15.11,8.93-22,1.4-5.86,3.17-13.18.56-15.85C210.78,167.87,200.55,198.6,198.82,222Z" style="fill:#263238"></path><path d="M218.87,173.21a7.1,7.1,0,0,1-.89,4.1c3.62-2.16,8.07-2.26,12.29-2.26,1,0,2.23-.11,2.7-1a1.75,1.75,0,0,0,.18-.93c-.14-3.39-6.53-5.28-9.12-6.09C219.62,165.65,218.84,169.45,218.87,173.21Z" style="opacity:0.4"></path><polygon points="346.76 184.08 336.35 184.08 338.3 161.81 348.71 161.81 346.76 184.08" style="fill:#35378A"></polygon><path d="M350.61,160.59l-2.18,24.92a1.19,1.19,0,0,1-1.18,1.07h-.61a1.18,1.18,0,0,0,1.17-1.07L350,160.59a1.17,1.17,0,0,0-1.17-1.28h.61A1.18,1.18,0,0,1,350.61,160.59Z" style="fill:#35378A"></path><path d="M350.61,160.59l-2.18,24.92a1.19,1.19,0,0,1-1.18,1.07h-.61a1.18,1.18,0,0,0,1.17-1.07L350,160.59a1.17,1.17,0,0,0-1.17-1.28h.61A1.18,1.18,0,0,1,350.61,160.59Z" style="opacity:0.30000000000000004"></path><path d="M348.82,159.31H338.43a1.17,1.17,0,0,0-1.17,1.07l-2.18,24.92a1.17,1.17,0,0,0,1.17,1.28h10.39a1.18,1.18,0,0,0,1.17-1.07L350,160.59A1.17,1.17,0,0,0,348.82,159.31Zm-2.06,24.77H336.35l1.95-22.27h10.41Z" style="fill:#35378A"></path><polygon points="348.71 161.81 346.76 184.08 336.35 184.08 338.3 161.81 348.71 161.81" style="fill:#35378A"></polygon><polygon points="348.71 161.81 346.76 184.08 336.35 184.08 338.3 161.81 348.71 161.81" style="fill:#fff;opacity:0.7000000000000001"></polygon><path d="M333.85,173.16l1.77-2.84a.43.43,0,0,1,.74,0l.5.85a2,2,0,0,1,.13,1.75L334.63,179l-4.57-1.88Z" style="fill:#ff8b7b"></path></g></svg>