<svg width="123" height="123" viewBox="0 0 123 123" fill="none" xmlns="http://www.w3.org/2000/svg">
<g clip-path="url(#clip0_1_2)">
<path fill-rule="evenodd" clip-rule="evenodd" d="M61.44 0C73.5917 0 85.4705 3.60339 95.5742 10.3545C105.678 17.1056 113.553 26.7012 118.203 37.9279C122.853 49.1546 124.07 61.5082 121.699 73.4263C119.329 85.3445 113.477 96.2921 104.885 104.885C96.2921 113.477 85.3445 119.329 73.4263 121.699C61.5082 124.07 49.1546 122.853 37.9279 118.203C26.7012 113.553 17.1056 105.678 10.3545 95.5742C3.60339 85.4705 0 73.5917 0 61.44C0 45.1451 6.47312 29.5176 17.9954 17.9954C29.5176 6.47312 45.1451 0 61.44 0V0ZM93.79 55.21V67.66C93.7874 68.8845 93.2998 70.0581 92.4339 70.9239C91.5681 71.7898 90.3945 72.2774 89.17 72.28H72.28V89.17C72.2774 90.3945 71.7898 91.5681 70.9239 92.4339C70.0581 93.2998 68.8845 93.7874 67.66 93.79H55.21C53.9872 93.7847 52.8162 93.296 51.9525 92.4304C51.0889 91.5648 50.6026 90.3928 50.6 89.17V72.28H33.7C32.4772 72.2747 31.3062 71.786 30.4425 70.9204C29.5789 70.0548 29.0926 68.8828 29.09 67.66V55.21C29.0953 53.989 29.5826 52.8195 30.4461 51.9561C31.3095 51.0926 32.479 50.6053 33.7 50.6H50.6V33.7C50.6053 32.479 51.0926 31.3095 51.9561 30.4461C52.8195 29.5826 53.989 29.0953 55.21 29.09H67.66C68.8828 29.0926 70.0548 29.5789 70.9204 30.4425C71.786 31.3062 72.2747 32.4772 72.28 33.7V50.6H89.17C90.3928 50.6026 91.5648 51.0889 92.4304 51.9525C93.296 52.8162 93.7847 53.9872 93.79 55.21Z" fill="#6661E7"/>
</g>
<defs>
<clipPath id="clip0_1_2">
<rect width="122.88" height="122.88" fill="white"/>
</clipPath>
</defs>
</svg>
