<svg width="30" height="123" viewBox="0 0 30 123" fill="none" xmlns="http://www.w3.org/2000/svg">
<g clip-path="url(#clip0_1417_2)">
<path fill-rule="evenodd" clip-rule="evenodd" d="M15 0C17.9667 0 20.8668 0.879735 23.3336 2.52796C25.8003 4.17618 27.7229 6.51886 28.8582 9.25975C29.9935 12.0006 30.2906 15.0166 29.7118 17.9264C29.133 20.8361 27.7044 23.5088 25.6066 25.6066C23.5088 27.7044 20.8361 29.133 17.9264 29.7118C15.0166 30.2906 12.0006 29.9935 9.25975 28.8582C6.51886 27.7229 4.17618 25.8003 2.52796 23.3336C0.879735 20.8668 0 17.9667 0 15C0 11.0218 1.58035 7.20644 4.3934 4.3934C7.20644 1.58035 11.0218 0 15 0V0ZM15 92.93C17.9667 92.93 20.8668 93.8097 23.3336 95.458C25.8003 97.1062 27.7229 99.4489 28.8582 102.19C29.9935 104.931 30.2906 107.947 29.7118 110.856C29.133 113.766 27.7044 116.439 25.6066 118.537C23.5088 120.634 20.8361 122.063 17.9264 122.642C15.0166 123.221 12.0006 122.924 9.25975 121.788C6.51886 120.653 4.17618 118.73 2.52796 116.264C0.879735 113.797 0 110.897 0 107.93C0 103.952 1.58035 100.136 4.3934 97.3234C7.20644 94.5103 11.0218 92.93 15 92.93V92.93ZM15 46.46C17.9667 46.46 20.8668 47.3397 23.3336 48.988C25.8003 50.6362 27.7229 52.9789 28.8582 55.7197C29.9935 58.4606 30.2906 61.4766 29.7118 64.3864C29.133 67.2961 27.7044 69.9688 25.6066 72.0666C23.5088 74.1644 20.8361 75.593 17.9264 76.1718C15.0166 76.7506 12.0006 76.4535 9.25975 75.3182C6.51886 74.1829 4.17618 72.2603 2.52796 69.7936C0.879735 67.3268 0 64.4267 0 61.46C0 57.4818 1.58035 53.6664 4.3934 50.8534C7.20644 48.0404 11.0218 46.46 15 46.46V46.46Z" fill="#6661E7"/>
</g>
<defs>
<clipPath id="clip0_1417_2">
<rect width="29.96" height="122.88" fill="white"/>
</clipPath>
</defs>
</svg>
