<svg width="213" height="213" viewBox="0 0 213 213" fill="none" xmlns="http://www.w3.org/2000/svg">
<g clip-path="url(#clip0_1422_4)">
<path d="M167.871 0H44.84C34.82 0 26.022 8.243 26.022 18V200C26.022 203.266 26.931 205.988 28.396 208.091C30.148 210.605 32.969 212.046 35.994 212.045C38.854 212.045 41.899 210.772 44.711 208.37L99.755 161.635C101.455 160.183 103.897 159.351 106.436 159.351C108.974 159.351 111.411 160.183 113.116 161.639L167.976 208.363C170.798 210.772 173.633 212.046 176.488 212.046C181.316 212.046 186.022 208.322 186.022 200.001V18C186.022 8.243 177.891 0 167.871 0Z" fill="#6661E7"/>
</g>
<defs>
<clipPath id="clip0_1422_4">
<rect width="212.045" height="212.045" fill="white"/>
</clipPath>
</defs>
</svg>
