<svg width="213" height="213" viewBox="0 0 213 213" fill="none" xmlns="http://www.w3.org/2000/svg">
<g clip-path="url(#clip0_1422_47)">
<path d="M172.282 0H39.7574C36.2426 0 32.8718 1.39624 30.3864 3.88157C27.9011 6.36689 26.5049 9.73772 26.5049 13.2525V198.787C26.5049 200.531 26.849 202.258 27.5175 203.868C28.1859 205.479 29.1657 206.941 30.4005 208.173C31.6353 209.404 33.101 210.379 34.7134 211.043C36.3259 211.706 38.0535 212.045 39.7971 212.04C42.3957 212.03 44.9328 211.248 47.086 209.794L101.673 162.747C102.876 161.71 104.412 161.14 106 161.14C107.588 161.14 109.124 161.71 110.327 162.747L164.914 209.794C167.067 211.248 169.604 212.03 172.203 212.04C173.95 212.05 175.682 211.715 177.299 211.054C178.916 210.393 180.386 209.418 181.625 208.187C182.864 206.955 183.848 205.491 184.519 203.877C185.19 202.264 185.535 200.535 185.535 198.787V13.2525C185.535 9.73772 184.139 6.36689 181.653 3.88157C179.168 1.39624 175.797 0 172.282 0V0ZM159.03 169.718L123.321 138.952L110.347 127.767C109.144 126.73 107.608 126.16 106.02 126.16C104.431 126.16 102.896 126.73 101.693 127.767L88.7187 138.952L53.0099 169.718V33.1312C53.0099 31.3739 53.708 29.6884 54.9507 28.4458C56.1933 27.2031 57.8787 26.505 59.6361 26.505H152.404C154.161 26.505 155.846 27.2031 157.089 28.4458C158.332 29.6884 159.03 31.3739 159.03 33.1312V169.718Z" fill="#6661E7"/>
</g>
<defs>
<clipPath id="clip0_1422_47">
<rect width="212.04" height="212.04" fill="white"/>
</clipPath>
</defs>
</svg>
