<svg width="122" height="123" viewBox="0 0 122 123" fill="none" xmlns="http://www.w3.org/2000/svg">
<g clip-path="url(#clip0_1424_50)">
<path fill-rule="evenodd" clip-rule="evenodd" d="M55.05 97.68L30.15 121.56C29.6171 122.154 28.9169 122.572 28.1415 122.761C27.366 122.949 26.5518 122.898 25.806 122.614C25.0602 122.331 24.4177 121.828 23.9633 121.172C23.5088 120.516 23.2636 119.738 23.26 118.94V97.68H10.1C7.42617 97.6643 4.86633 96.5951 2.97562 94.7044C1.0849 92.8137 0.0157442 90.2538 0 87.58L0 10.1C0.0209185 7.42778 1.09174 4.87094 2.98134 2.98134C4.87094 1.09174 7.42778 0.0209185 10.1 0L111.73 0C114.404 0.0157442 116.964 1.0849 118.854 2.97562C120.745 4.86633 121.814 7.42617 121.83 10.1V87.58C121.814 90.2538 120.745 92.8137 118.854 94.7044C116.964 96.5951 114.404 97.6643 111.73 97.68H55.05ZM27.53 36.61C26.5207 36.5591 25.5695 36.1223 24.8731 35.3899C24.1768 34.6576 23.7884 33.6856 23.7884 32.675C23.7884 31.6644 24.1768 30.6924 24.8731 29.9601C25.5695 29.2277 26.5207 28.7909 27.53 28.74H94.3C94.8334 28.7131 95.3668 28.7949 95.8676 28.9806C96.3684 29.1662 96.8263 29.4517 97.2134 29.8197C97.6004 30.1877 97.9086 30.6307 98.1192 31.1215C98.3298 31.6123 98.4384 32.1409 98.4384 32.675C98.4384 33.2091 98.3298 33.7377 98.1192 34.2285C97.9086 34.7194 97.6004 35.1623 97.2134 35.5303C96.8263 35.8983 96.3684 36.1838 95.8676 36.3694C95.3668 36.5551 94.8334 36.6369 94.3 36.61H27.53ZM27.53 62.16C26.5207 62.1091 25.5695 61.6723 24.8731 60.9399C24.1768 60.2076 23.7884 59.2356 23.7884 58.225C23.7884 57.2144 24.1768 56.2424 24.8731 55.5101C25.5695 54.7777 26.5207 54.3409 27.53 54.29H82C83.0093 54.3409 83.9605 54.7777 84.6569 55.5101C85.3532 56.2424 85.7416 57.2144 85.7416 58.225C85.7416 59.2356 85.3532 60.2076 84.6569 60.9399C83.9605 61.6723 83.0093 62.1091 82 62.16H27.53Z" fill="#6661E7"/>
</g>
<defs>
<clipPath id="clip0_1424_50">
<rect width="121.83" height="122.88" fill="white"/>
</clipPath>
</defs>
</svg>
