<svg width="26" height="27" viewBox="0 0 26 27" fill="none" xmlns="http://www.w3.org/2000/svg">
<path d="M3.84178 3.33359L23.1272 12.5571C23.3221 12.6502 23.4867 12.7965 23.602 12.9792C23.7172 13.1619 23.7783 13.3735 23.7783 13.5896C23.7783 13.8056 23.7172 14.0172 23.602 14.1999C23.4867 14.3826 23.3221 14.5289 23.1272 14.622L3.84178 23.8455C3.64408 23.9402 3.42334 23.9761 3.20581 23.949C2.98829 23.9218 2.78315 23.8327 2.61479 23.6923C2.44644 23.552 2.32196 23.3662 2.25616 23.157C2.19037 22.9479 2.18603 22.7243 2.24366 22.5128L4.17312 15.4394C4.19674 15.3527 4.24535 15.2749 4.3129 15.2156C4.38045 15.1564 4.46394 15.1183 4.55297 15.1062L13.8982 13.8367C13.9373 13.8311 13.9742 13.8156 14.0055 13.7915C14.0368 13.7675 14.0613 13.7357 14.0767 13.6994L14.0932 13.6426C14.1004 13.5915 14.0901 13.5395 14.064 13.495C14.0379 13.4504 13.9976 13.416 13.9495 13.3973L13.8991 13.3836L4.56304 12.1141C4.47418 12.1018 4.39088 12.0637 4.32351 12.0044C4.25614 11.9452 4.20766 11.8675 4.18411 11.7809L2.24366 4.66718C2.1858 4.45563 2.18996 4.23189 2.25565 4.02263C2.32135 3.81337 2.44581 3.6274 2.61421 3.48687C2.78261 3.34635 2.98785 3.25718 3.20549 3.23001C3.42313 3.20283 3.644 3.23879 3.84178 3.33359Z" fill="#6561E3"/>
</svg>
