<svg width="123" height="120" viewBox="0 0 123 120" fill="none" xmlns="http://www.w3.org/2000/svg">
<g clip-path="url(#clip0_1430_2)">
<path d="M49.988 0H50.004V0.007C63.803 0.011 76.298 5.608 85.34 14.652C94.367 23.683 99.959 36.167 99.968 49.955H99.975V49.988V50.028H99.968C99.963 55.585 99.051 60.933 97.374 65.92C97.093 66.757 96.799 67.561 96.497 68.329V68.336C95.051 71.996 93.182 75.456 90.95 78.643L120.032 104.782L120.05 104.798L120.207 104.944L120.218 104.955C121.86 106.518 122.754 108.611 122.867 110.735C122.977 112.835 122.324 114.983 120.888 116.706L120.877 116.722L120.702 116.925L120.667 116.96L120.521 117.12L120.505 117.141C118.94 118.783 116.851 119.675 114.725 119.787C112.628 119.898 110.478 119.247 108.754 117.809L108.739 117.798L108.535 117.623L108.506 117.599L78.761 90.865C77.881 91.485 76.983 92.074 76.074 92.63C74.841 93.385 73.564 94.096 72.261 94.745C65.562 98.087 57.992 99.967 49.989 99.967V99.974H49.973V99.967C36.174 99.963 23.677 94.366 14.635 85.322C5.605 76.291 0.016 63.805 0.007 50.021H0V49.988V49.972H0.007C0.011 36.173 5.608 23.676 14.652 14.634C23.683 5.608 36.167 0.016 49.955 0.007V0H49.988ZM50.004 11.21V11.217H49.988H49.955V11.21C39.269 11.217 29.583 15.56 22.571 22.569C15.56 29.578 11.213 39.274 11.21 49.973H11.217V49.989V50.022H11.21C11.217 60.708 15.557 70.389 22.569 77.403C29.578 84.415 39.274 88.762 49.972 88.764V88.757H49.988H50.021V88.764C60.707 88.757 70.389 84.416 77.403 77.405C84.414 70.396 88.761 60.703 88.763 50.005H88.757V49.989V49.956H88.763C88.757 39.27 84.413 29.584 77.405 22.572C70.396 15.56 60.703 11.213 50.004 11.21Z" fill="#6661E7"/>
</g>
<defs>
<clipPath id="clip0_1430_2">
<rect width="122.879" height="119.799" fill="white"/>
</clipPath>
</defs>
</svg>
