<svg width="100" height="100" viewBox="0 0 100 100" fill="none" xmlns="http://www.w3.org/2000/svg">
<path fill-rule="evenodd" clip-rule="evenodd" d="M49.9992 0C77.6099 0 99.9992 22.3901 99.9992 49.9992C99.9992 77.6107 77.609 99.9992 49.9992 99.9992C22.3893 100 0 77.6107 0 49.9992C0 22.3901 22.3893 0 49.9992 0ZM37.3673 32.7816L53.641 62.4422C54.7201 63.47 55.542 64.799 55.957 66.3452C57.1574 70.8228 54.4995 75.4264 50.022 76.6268C45.5452 77.8263 40.9408 75.1668 39.7404 70.6917C39.4246 69.5109 39.3774 68.3203 39.5597 67.1851L37.3673 32.7816ZM91.6764 52.8076C91.6764 56.4722 88.7036 59.445 85.0407 59.445C81.3753 59.445 78.4017 56.4722 78.4017 52.8076C78.4017 49.1439 81.3753 46.1711 85.0407 46.1711C88.7036 46.1702 91.6764 49.1439 91.6764 52.8076ZM8.32438 52.8076C8.32438 56.4722 11.2956 59.445 14.9609 59.445C18.6263 59.445 21.5975 56.4722 21.5975 52.8076C21.5975 49.1439 18.6263 46.1711 14.9609 46.1711C11.2964 46.1702 8.32438 49.1439 8.32438 52.8076ZM20.446 23.1852C17.8548 25.7764 17.8548 29.9805 20.446 32.5716C23.0371 35.1628 27.2412 35.1628 29.8324 32.5716C32.4235 29.9805 32.4235 25.7764 29.8324 23.1852C27.2412 20.5941 23.0371 20.5941 20.446 23.1852ZM50.0366 10.8114C53.702 10.8114 56.6724 13.7826 56.6724 17.4479C56.6724 21.1108 53.702 24.0845 50.0366 24.0845C46.3713 24.0845 43.4001 21.1117 43.4001 17.4479C43.4009 13.7826 46.3713 10.8089 50.0366 10.8114ZM79.5532 23.1852C82.1468 25.7764 82.1468 29.9805 79.5557 32.5716C76.9645 35.1628 72.7604 35.1628 70.1693 32.5716C67.5765 29.9805 67.5765 25.7764 70.1693 23.1852C72.7604 20.5941 76.9645 20.5941 79.5532 23.1852Z" fill="#6661E7"/>
</svg>
