<svg width="100" height="52" viewBox="0 0 100 52" fill="none" xmlns="http://www.w3.org/2000/svg">
<g clip-path="url(#clip0_1340_13)">
<path fill-rule="evenodd" clip-rule="evenodd" d="M5.81869 0H71.5169C74.7152 0 77.3356 2.62044 77.3356 5.81869V13.0778L100 4.98047V42.4072L77.3356 34.7575V45.3369C77.3356 48.5352 74.7152 51.1475 71.5169 51.1475H5.81869C2.62044 51.1475 0 48.5352 0 45.3369V5.81869C0 2.62044 2.62044 0 5.81869 0ZM21.3298 13.029V33.1136H25.2604V38.1266H14.7949V13.029H21.3298ZM33.6751 13.029V38.1266H27.1403V13.029H33.6751ZM52.0426 13.029L48.7386 38.1266H38.8591L35.0749 13.029H41.9596C42.7328 19.9463 43.3024 25.8057 43.6605 30.5908C44.0104 25.7487 44.3685 21.46 44.7347 17.7083L45.166 13.029H52.0426V13.029ZM53.4505 13.029H64.3311V18.042H59.9854V22.8353H64.0462V27.596H59.9854V33.1136H64.7786V38.1266H53.4505V13.029Z" fill="#6661E7"/>
</g>
<defs>
<clipPath id="clip0_1340_13">
<rect width="100" height="51.1475" fill="white"/>
</clipPath>
</defs>
</svg>
