<svg width="100" height="101" viewBox="0 0 100 101" fill="none" xmlns="http://www.w3.org/2000/svg">
<g clip-path="url(#clip0_1343_32)">
<path fill-rule="evenodd" clip-rule="evenodd" d="M1.90103 36.3732L95.7326 0.301092C96.2673 0.0356634 96.8697 -0.0620075 97.4609 0.0208846C98.052 0.103777 98.6043 0.363363 99.0454 0.765611C99.4865 1.16786 99.7957 1.69399 99.9325 2.27504C100.069 2.85608 100.027 3.46492 99.8123 4.02172L63.9115 98.351C63.7061 98.8936 63.3458 99.3639 62.8755 99.7035C62.4051 100.043 61.8454 100.237 61.2658 100.262C60.6861 100.286 60.1121 100.139 59.615 99.8404C59.1178 99.5414 58.7194 99.1029 58.4692 98.5795L44.0029 68.6513L72.7153 27.5531L31.6987 56.1839L1.68073 41.8073C1.15949 41.5568 0.722997 41.1591 0.425106 40.6634C0.127214 40.1677 -0.0190414 39.5957 0.00438474 39.0178C0.0278109 38.44 0.219894 37.8816 0.556933 37.4117C0.893973 36.9417 1.36122 36.5807 1.90103 36.3732V36.3732Z" fill="#6661E7"/>
</g>
<defs>
<clipPath id="clip0_1343_32">
<rect width="100" height="100.261" fill="white"/>
</clipPath>
</defs>
</svg>
