<svg width="100" height="103" viewBox="0 0 100 103" fill="none" xmlns="http://www.w3.org/2000/svg">
<g clip-path="url(#clip0_1340_11)">
<path d="M53.1922 72.6438L56.2922 52.3898C47.1862 53.2958 37.0782 55.5438 28.5482 61.5678C19.0042 68.3058 11.2842 79.9098 8.89815 99.9278C8.72415 101.414 7.37415 102.478 5.88615 102.302C4.74015 102.166 3.84415 101.33 3.57615 100.274C1.40015 93.7518 0.284154 87.5898 0.0501543 81.8058C-0.603846 65.9258 5.32815 52.9618 14.0862 43.0838C22.7582 33.2998 34.2182 26.5558 44.7502 23.0178C48.7862 21.6578 52.7082 20.7638 56.3042 20.3458L53.2162 3.17984C52.9522 1.71184 53.9302 0.303842 55.3982 0.0418415C56.2122 -0.102158 57.0062 0.133842 57.5982 0.621842L99.0182 34.8818C100.17 35.8358 100.332 37.5478 99.3782 38.6978L99.0702 39.0158L57.6582 75.0938C56.5302 76.0778 54.8142 75.9578 53.8302 74.8298C53.5713 74.5337 53.3802 74.1848 53.27 73.8072C53.1598 73.4297 53.1332 73.0327 53.1922 72.6438V72.6438Z" fill="#6661E7"/>
</g>
<defs>
<clipPath id="clip0_1340_11">
<rect width="100" height="102.322" fill="white"/>
</clipPath>
</defs>
</svg>
