<svg xmlns="http://www.w3.org/2000/svg" xmlns:xlink="http://www.w3.org/1999/xlink" aria-hidden="true" role="img" width="1em" height="1em" preserveAspectRatio="xMidYMid meet" viewBox="0 0 24 24"><g fill="none"><path d="M8 2H5a3 3 0 0 0-3 3v3h2.708A2.5 2.5 0 0 1 8 4.708V2zM2 9.5V14a3 3 0 0 0 3 3h3v-6.44l-1.72 1.72a.75.75 0 0 1-1.06-1.06L6.94 9.5H2zM9.5 17h1.519A6.5 6.5 0 0 1 22 12.81V9.5H10.56l1.72 1.72a.75.75 0 1 1-1.06 1.06L9.5 10.56V17zM22 8h-9.208A2.5 2.5 0 0 0 9.5 4.708V2H19a3 3 0 0 1 3 3v3zM10.5 8h-1V7a1 1 0 1 1 1 1zM8 8H7a1 1 0 1 1 1-1.008V8zm15 9.5a5.5 5.5 0 1 0-11 0a5.5 5.5 0 0 0 11 0zm-5 .5l.001 2.503a.5.5 0 1 1-1 0V18h-2.505a.5.5 0 0 1 0-1H17v-2.5a.5.5 0 1 1 1 0V17h2.497a.5.5 0 0 1 0 1H18z" fill="#6c757d"/></g></svg>