<svg width="111" height="123" viewBox="0 0 111 123" fill="none" xmlns="http://www.w3.org/2000/svg">
<g clip-path="url(#clip0)">
<path d="M39.27 58.64C39.2406 57.9999 39.3412 57.3604 39.5659 56.7603C39.7906 56.1602 40.1346 55.6119 40.5772 55.1485C41.0198 54.6851 41.5518 54.3163 42.1409 54.0643C42.7301 53.8123 43.3642 53.6823 44.005 53.6823C44.6458 53.6823 45.2799 53.8123 45.8691 54.0643C46.4582 54.3163 46.9902 54.6851 47.4328 55.1485C47.8754 55.6119 48.2194 56.1602 48.4441 56.7603C48.6688 57.3604 48.7694 57.9999 48.74 58.64V93.72C48.7694 94.3601 48.6688 94.9996 48.4441 95.5997C48.2194 96.1998 47.8754 96.7481 47.4328 97.2115C46.9902 97.6749 46.4582 98.0437 45.8691 98.2957C45.2799 98.5477 44.6458 98.6777 44.005 98.6777C43.3642 98.6777 42.7301 98.5477 42.1409 98.2957C41.5518 98.0437 41.0198 97.6749 40.5772 97.2115C40.1346 96.7481 39.7906 96.1998 39.5659 95.5997C39.3412 94.9996 39.2406 94.3601 39.27 93.72V58.64ZM102.87 38.78L98 103C97.6391 108.305 95.3941 113.305 91.67 117.1C89.8571 118.938 87.6957 120.396 85.3124 121.389C82.9291 122.381 80.3717 122.888 77.79 122.88H32.79C30.2116 122.886 27.6578 122.378 25.2781 121.385C22.8983 120.393 20.7402 118.936 18.93 117.1V117.1C15.2037 113.306 12.9553 108.305 12.59 103L7.74 38.78H0V25C0 21.68 1.63 20.42 4.84 20.42H27.58V10.79C27.5879 7.93075 28.7273 5.19087 30.7491 3.16906C32.7709 1.14726 35.5107 0.00791676 38.37 0L72.24 0C75.094 0.0158159 77.8262 1.15864 79.8416 3.1796C81.8569 5.20055 82.9921 7.93592 83 10.79V20.41H106.35C106.684 20.4029 107.019 20.423 107.35 20.47C108.209 20.6074 108.996 21.0307 109.584 21.6714C110.172 22.3121 110.527 23.1326 110.59 24C110.59 24.2 110.59 24.38 110.59 24.57V38.78H102.87ZM93.37 38.95H17.24L22 102.3C22.1906 105.338 23.456 108.209 25.57 110.4V110.4C26.5067 111.356 27.6258 112.114 28.8608 112.629C30.0959 113.144 31.4218 113.406 32.76 113.4H77.76C79.0977 113.403 80.4226 113.139 81.6572 112.624C82.8918 112.109 84.0112 111.353 84.95 110.4C87.0727 108.213 88.3457 105.341 88.54 102.3L93.37 39V38.95ZM71 20.41V12.05H39.64V20.41H71ZM61.87 58.64C61.8406 57.9999 61.9412 57.3604 62.1659 56.7603C62.3906 56.1602 62.7346 55.6119 63.1772 55.1485C63.6198 54.6851 64.1518 54.3163 64.7409 54.0643C65.3301 53.8123 65.9642 53.6823 66.605 53.6823C67.2458 53.6823 67.8799 53.8123 68.4691 54.0643C69.0582 54.3163 69.5902 54.6851 70.0328 55.1485C70.4754 55.6119 70.8194 56.1602 71.0441 56.7603C71.2688 57.3604 71.3694 57.9999 71.34 58.64V93.72C71.3694 94.3601 71.2688 94.9996 71.0441 95.5997C70.8194 96.1998 70.4754 96.7481 70.0328 97.2115C69.5902 97.6749 69.0582 98.0437 68.4691 98.2957C67.8799 98.5477 67.2458 98.6777 66.605 98.6777C65.9642 98.6777 65.3301 98.5477 64.7409 98.2957C64.1518 98.0437 63.6198 97.6749 63.1772 97.2115C62.7346 96.7481 62.3906 96.1998 62.1659 95.5997C61.9412 94.9996 61.8406 94.3601 61.87 93.72V58.64V58.64Z" fill="#F30005"/>
</g>
<defs>
<clipPath id="clip0">
<rect width="110.61" height="122.88" fill="white"/>
</clipPath>
</defs>
</svg>
